<svg width="354" height="370" viewBox="0 0 354 370" fill="none" xmlns="http://www.w3.org/2000/svg">
<g opacity="0.2">
<path d="M250.074 267.095C268.274 253.695 288.574 273.995 275.174 292.195C274.974 292.395 274.774 292.695 274.474 292.895C256.274 306.295 235.974 285.995 249.374 267.795C249.674 267.495 249.874 267.295 250.074 267.095Z" fill="#7ADED4"/>
<path d="M211.173 166.195C192.973 179.595 172.673 159.295 186.073 141.095C186.273 140.895 186.473 140.595 186.773 140.395C204.973 126.995 225.273 147.295 211.873 165.495C211.573 165.795 211.373 165.995 211.173 166.195Z" fill="#7ADED4"/>
<path d="M65.9742 336.995C75.0742 330.395 85.1742 340.495 78.4742 349.495C78.3742 349.595 78.2742 349.796 78.0742 349.896C68.9742 356.496 58.8742 346.395 65.5742 337.395C65.6742 337.195 65.8742 337.095 65.9742 336.995Z" fill="#7ADED4"/>
<path d="M65.9742 273.895C75.0742 267.295 85.1742 277.395 78.4742 286.395C78.3742 286.495 78.2742 286.695 78.0742 286.795C68.9742 293.395 58.8742 283.295 65.5742 274.295C65.6742 274.095 65.8742 273.995 65.9742 273.895Z" fill="#7ADED4"/>
<path d="M78.1739 95.7959C69.0739 102.396 58.9739 92.2959 65.6739 83.2959C65.7739 83.1959 65.8739 82.9959 66.0739 82.8959C75.1739 76.2959 85.2739 86.3959 78.5739 95.3959C78.4739 95.5959 78.2739 95.6959 78.1739 95.7959Z" fill="#7ADED4"/>
<path d="M78.1739 32.1952C69.0739 38.7952 58.9739 28.6952 65.6739 19.6952C65.7739 19.5952 65.8739 19.3953 66.0739 19.2953C75.1739 12.6953 85.2739 22.7953 78.5739 31.7953C78.4739 31.9953 78.2739 32.0952 78.1739 32.1952Z" fill="#7ADED4"/>
<path d="M16.1739 32.1952C7.07385 38.7952 -3.02615 28.6952 3.67385 19.6952C3.77385 19.5952 3.87385 19.3953 4.07385 19.2953C13.1738 12.6953 23.2738 22.7953 16.5738 31.7953C16.4738 31.9953 16.3739 32.0952 16.1739 32.1952Z" fill="#7ADED4"/>
<path d="M129.373 273.495C130.373 272.795 131.373 272.196 132.373 271.896C132.873 271.296 133.773 270.995 135.373 270.995C146.173 270.995 141.573 272.995 159.273 273.095C176.973 273.195 181.573 262.795 198.773 262.795C199.773 262.795 200.573 262.995 201.173 263.295C213.273 264.995 221.373 279.295 211.673 292.595C211.473 292.795 211.273 293.095 210.973 293.295C205.073 297.595 199.073 298.396 193.973 296.896C181.273 295.096 174.773 286.895 159.173 286.795C143.173 286.795 145.573 287.995 138.073 288.195C130.173 290.595 123.173 281.896 128.973 273.896C129.173 273.796 129.273 273.595 129.373 273.495Z" fill="#7ADED4"/>
<path d="M274.573 39.4951C256.373 52.8951 236.073 32.595 249.473 14.395C249.673 14.195 249.873 13.895 250.173 13.695C268.373 0.29501 288.673 20.595 275.273 38.795C275.073 39.095 274.773 39.2951 274.573 39.4951Z" fill="#7ADED4"/>
<path d="M211.174 102.296C207.874 104.696 204.574 105.996 201.374 106.396C200.774 106.796 199.974 106.996 198.974 106.996C182.974 106.996 176.874 96.6959 159.374 96.5959C141.674 96.5959 146.474 97.996 135.574 97.996C134.874 97.996 134.274 97.8959 133.874 97.7959C128.074 96.5959 124.474 89.6959 129.174 83.2959C129.274 83.1959 129.374 82.9959 129.574 82.8959C131.874 81.1959 134.274 80.5959 136.374 80.7959C146.274 80.8959 142.274 82.7959 159.574 82.7959C175.374 82.8959 180.774 74.4959 194.174 72.7959C209.874 68.3959 223.574 85.796 211.974 101.496C211.574 101.896 211.374 102.096 211.174 102.296Z" fill="#7ADED4"/>
<path d="M211.173 39.4951C192.973 52.8951 172.673 32.595 186.073 14.395C186.273 14.195 186.473 13.895 186.773 13.695C204.973 0.29501 225.273 20.595 211.873 38.795C211.573 39.095 211.373 39.2951 211.173 39.4951Z" fill="#7ADED4"/>
<path d="M274.874 102.296C256.674 115.696 236.374 95.3958 249.774 77.1957C249.974 76.9957 250.174 76.6958 250.474 76.4958C268.674 63.0958 288.974 83.3958 275.574 101.596C275.374 101.896 275.174 102.096 274.874 102.296Z" fill="#7ADED4"/>
<path d="M186.673 330.495C204.873 317.095 225.173 337.395 211.773 355.595C211.573 355.795 211.373 356.095 211.073 356.295C192.873 369.695 172.573 349.395 185.973 331.195C186.173 330.895 186.473 330.695 186.673 330.495Z" fill="#7ADED4"/>
<path d="M250.474 330.496C256.374 326.196 262.474 325.396 267.574 326.896C275.174 327.596 273.674 330.196 290.774 330.396C307.274 330.496 305.774 321.096 320.974 318.396C323.774 317.696 326.574 317.496 329.174 317.696C329.474 317.696 329.774 317.696 330.074 317.696C330.774 317.696 331.374 317.796 331.974 318.096C349.574 321.296 360.974 342.396 346.574 361.896C346.274 362.196 345.974 362.596 345.674 362.796C341.074 366.196 336.474 368.096 331.974 368.896C331.374 369.096 330.774 369.296 330.074 369.296C329.774 369.296 329.474 369.296 329.174 369.296C326.474 369.496 323.774 369.196 321.274 368.596C307.074 366.196 307.074 357.896 290.674 357.796C271.374 357.696 275.774 360.996 263.874 360.896C263.074 360.896 262.374 360.796 261.774 360.696C248.774 360.096 239.674 345.096 249.774 331.296C249.974 330.896 250.174 330.696 250.474 330.496Z" fill="#7ADED4"/>
<path d="M141.574 33.0957C132.474 39.6957 122.374 29.5957 129.074 20.5957C129.174 20.4957 129.274 20.2957 129.474 20.1957C138.574 13.5957 148.674 23.6957 141.974 32.6957C141.874 32.7957 141.674 32.8957 141.574 33.0957Z" fill="#7ADED4"/>
<path d="M2.57385 82.8959C11.6738 76.2959 21.7738 86.3959 15.0738 95.3959C14.9738 95.4959 14.8739 95.6959 14.6739 95.7959C5.57385 102.396 -4.52615 92.2959 2.17385 83.2959C2.27385 83.0959 2.47385 82.9959 2.57385 82.8959Z" fill="#7ADED4"/>
<path d="M78.1739 159.395C69.0739 165.995 58.9739 155.895 65.6739 146.895C65.7739 146.795 65.8739 146.595 66.0739 146.495C75.1739 139.895 85.2739 149.995 78.5739 158.995C78.4739 159.195 78.2739 159.295 78.1739 159.395Z" fill="#7ADED4"/>
<path d="M2.57385 146.495C11.6738 139.895 21.7738 149.995 15.0738 158.995C14.9738 159.095 14.8739 159.295 14.6739 159.395C5.57385 165.995 -4.52615 155.895 2.17385 146.895C2.27385 146.695 2.47385 146.595 2.57385 146.495Z" fill="#7ADED4"/>
<path d="M129.074 146.895C129.174 146.795 129.274 146.595 129.474 146.495C138.574 139.895 148.674 149.995 141.974 158.995C141.874 159.095 141.774 159.295 141.574 159.395C132.474 166.095 122.374 155.995 129.074 146.895Z" fill="#7ADED4"/>
<path d="M2.57385 210.096C11.6738 203.496 21.7738 213.596 15.0738 222.596C14.9738 222.696 14.8739 222.896 14.6739 222.996C5.57385 229.596 -4.52615 219.496 2.17385 210.496C2.27385 210.396 2.47385 210.196 2.57385 210.096Z" fill="#7ADED4"/>
<path d="M135.373 208.096C135.373 208.096 135.173 207.996 136.173 207.996C142.173 207.996 147.473 215.596 142.273 222.696C142.173 222.796 142.173 222.996 142.073 223.096C140.073 224.596 138.173 225.196 136.173 225.196C123.173 225.196 122.273 220.496 104.073 220.396C85.8731 220.296 84.8731 226.096 72.2731 226.096C72.1731 226.096 72.2731 225.196 72.2731 225.196C65.2731 225.196 60.5731 217.596 65.7731 210.496C65.8731 210.396 65.9731 210.196 66.0731 210.096C68.1731 208.596 71.2731 207.896 72.2731 207.996C84.2731 207.996 85.6731 213.796 103.873 213.896C121.973 213.896 122.273 208.096 135.373 208.096Z" fill="#7ADED4"/>
<path d="M2.57385 336.995C11.6738 330.395 21.7738 340.495 15.0738 349.495C14.9738 349.595 14.8739 349.796 14.6739 349.896C5.57385 356.496 -4.52615 346.395 2.17385 337.395C2.27385 337.195 2.47385 337.095 2.57385 336.995Z" fill="#7ADED4"/>
<path d="M129.375 336.995C138.475 330.395 148.575 340.495 141.875 349.495C141.775 349.595 141.675 349.796 141.475 349.896C132.375 356.496 122.275 346.395 128.975 337.395C129.175 337.195 129.275 337.095 129.375 336.995Z" fill="#7ADED4"/>
<path d="M262.775 199.396C276.175 199.496 285.875 214.795 275.575 228.795C275.375 228.995 275.175 229.295 274.875 229.495C270.775 232.495 266.575 233.795 262.675 233.795C262.575 233.795 262.575 233.795 262.475 233.795C246.475 233.795 248.475 225.195 230.975 225.195C213.575 225.195 209.875 233.495 199.375 233.795C199.275 233.795 199.175 233.795 199.175 233.795C199.075 233.795 198.975 233.795 198.875 233.795C198.775 233.795 198.675 233.795 198.575 233.795C185.275 233.595 175.675 218.396 185.975 204.396C186.175 204.196 186.375 203.895 186.675 203.695C190.775 200.695 194.875 199.396 198.775 199.396H198.875C209.675 199.396 213.275 207.895 230.975 207.995C248.675 208.095 245.275 199.396 262.475 199.396C262.575 199.396 262.675 199.396 262.775 199.396Z" fill="#7ADED4"/>
<path d="M345.673 172.296C341.073 175.696 336.473 177.596 331.973 178.396C331.373 178.596 330.773 178.796 330.073 178.796C329.773 178.796 329.473 178.796 329.173 178.796C326.473 178.996 323.773 178.696 321.273 178.096C307.073 175.696 307.073 167.396 290.673 167.296C271.973 167.196 275.473 170.296 264.973 170.396C250.473 172.196 238.873 155.996 249.873 141.096C250.073 140.896 250.273 140.596 250.573 140.396C255.673 136.596 260.973 135.496 265.673 136.296C275.673 136.696 272.473 139.796 290.873 139.896C307.373 139.996 305.873 130.596 321.073 127.896C323.873 127.196 326.673 126.996 329.273 127.196C329.573 127.196 329.873 127.196 330.173 127.196C330.873 127.196 331.473 127.296 332.073 127.596C349.673 130.796 361.073 151.896 346.673 171.396C346.373 171.696 346.073 171.996 345.673 172.296Z" fill="#7ADED4"/>
<path d="M345.674 45.0955C318.374 65.1955 287.874 34.6955 307.974 7.39547C308.274 7.09547 308.574 6.6955 308.874 6.4955C336.174 -13.6045 366.674 16.8955 346.574 44.1955C346.374 44.4955 346.074 44.7955 345.674 45.0955Z" fill="#7ADED4"/>
<path d="M345.674 108.695C318.374 128.795 287.874 98.2951 307.974 70.9951C308.274 70.6951 308.574 70.2951 308.874 70.0951C336.174 49.9951 366.674 80.4951 346.574 107.795C346.374 108.095 346.074 108.395 345.674 108.695Z" fill="#7ADED4"/>
<path d="M345.674 235.895C318.374 255.995 287.874 225.495 307.974 198.195C308.274 197.895 308.574 197.495 308.874 197.295C336.174 177.195 366.674 207.695 346.574 234.995C346.374 235.295 346.074 235.595 345.674 235.895Z" fill="#7ADED4"/>
<path d="M345.674 299.696C318.374 319.796 287.874 289.296 307.974 261.996C308.274 261.696 308.574 261.296 308.874 261.096C336.174 240.996 366.674 271.496 346.574 298.796C346.374 299.096 346.074 299.396 345.674 299.696Z" fill="#7ADED4"/>
</g>
</svg>
