<svg width="50" height="51" viewBox="0 0 50 51" fill="none" xmlns="http://www.w3.org/2000/svg">
<g id="Group">
<path id="Vector" d="M24.9 49.6001C38.2101 49.6001 49 38.8101 49 25.5C49 12.1899 38.2101 1.3999 24.9 1.3999C11.59 1.3999 0.800049 12.1899 0.800049 25.5C0.800049 38.8101 11.59 49.6001 24.9 49.6001Z" fill="white" stroke="#808080" stroke-miterlimit="10" stroke-linecap="round" stroke-linejoin="round"/>
<g id="Group_2">
<path id="Vector_2" d="M32.4001 33L26.7 23V17.5H23.2V23L17.5 33C16.7 34.3 17.7 36 19.2 36H30.7C32.2 36 33.2001 34.4 32.4001 33Z" stroke="#808080" stroke-miterlimit="10" stroke-linejoin="round"/>
<path id="Vector_3" d="M27.5 17.3999H22.3C21.6 17.3999 21.1 16.9002 21.1 16.2002C21.1 15.5002 21.6 15 22.3 15H27.5C28.2 15 28.7 15.5002 28.7 16.2002C28.7 16.9002 28.1 17.3999 27.5 17.3999Z" stroke="#808080" stroke-miterlimit="10" stroke-linejoin="round"/>
<path id="Vector_4" d="M21 26.6001H28.8" stroke="#808080" stroke-miterlimit="10" stroke-linejoin="round"/>
</g>
</g>
</svg>
