<svg width="50" height="50" viewBox="0 0 50 50" fill="none" xmlns="http://www.w3.org/2000/svg">
<path d="M25.4001 49.4C38.7101 49.4 49.5001 38.6101 49.5001 25.3C49.5001 11.9899 38.7101 1.19989 25.4001 1.19989C12.09 1.19989 1.30005 11.9899 1.30005 25.3C1.30005 38.6101 12.09 49.4 25.4001 49.4Z" fill="#0075C9" stroke="#0075C9" stroke-miterlimit="10"/>
<path d="M32.9003 32.5999L27.2003 22.5999V17.0999H23.7003V22.5999L18.0003 32.5999C17.2003 33.8999 18.2003 35.5999 19.7003 35.5999H31.2003C32.7003 35.5999 33.7003 33.9999 32.9003 32.5999Z" stroke="white" stroke-miterlimit="10" stroke-linejoin="round"/>
<path d="M27.9002 16.9999H22.7003C22.0003 16.9999 21.5002 16.5 21.5002 15.8C21.5002 15.1 22.0003 14.5999 22.7003 14.5999H27.9002C28.6002 14.5999 29.1003 15.1 29.1003 15.8C29.1003 16.5 28.6002 16.9999 27.9002 16.9999Z" stroke="white" stroke-miterlimit="10" stroke-linejoin="round"/>
<path d="M21.5002 26.1999H29.3002" stroke="white" stroke-miterlimit="10" stroke-linejoin="round"/>
<path d="M32.9002 33.1999L29.2002 25.9999H21.6002L17.9002 33.1999C17.1002 34.4999 18.1002 35.9999 19.6002 35.9999H31.1002C32.7002 35.9999 33.7002 34.4999 32.9002 33.1999Z" fill="white"/>
</svg>
