<svg width="44" height="45" viewBox="0 0 44 45" fill="none" xmlns="http://www.w3.org/2000/svg">
<path d="M18.9998 27.0999L26.8998 19.1998C28.0998 19.6998 29.4998 19.4998 30.4998 18.4998C31.4998 17.4998 31.6998 16.0998 31.1998 14.8998L29.5998 16.4998H27.8998V14.5999L29.4998 12.9998C28.2998 12.4998 26.8998 12.6998 25.8998 13.6998C24.8998 14.6998 24.6998 16.0998 25.1998 17.2998L17.2998 25.1998C16.0998 24.6998 14.6998 24.8998 13.6998 25.8998C12.6998 26.8998 12.4998 28.2998 12.9998 29.4998L14.5998 27.8998H16.4998V29.5999L14.8998 31.1998C16.0998 31.6998 17.4998 31.4998 18.4998 30.4998C19.2998 29.6998 19.4998 28.2999 18.9998 27.0999Z" stroke="white" stroke-miterlimit="10" stroke-linejoin="round"/>
<path d="M22.0998 43.6001C33.8635 43.6001 43.3998 34.0637 43.3998 22.3C43.3998 10.5364 33.8635 1 22.0998 1C10.3361 1 0.799805 10.5364 0.799805 22.3C0.799805 34.0637 10.3361 43.6001 22.0998 43.6001Z" stroke="white" stroke-miterlimit="10"/>
<path d="M22.0996 20.4993L18.9996 17.3993C19.4996 16.1993 19.2996 14.7994 18.2996 13.7994C17.2996 12.7994 15.8996 12.5994 14.6996 13.0994L16.2996 14.6994V16.5994H14.3996L12.7996 14.9993C12.2996 16.1993 12.4996 17.5994 13.4996 18.5994C14.4996 19.5994 15.8996 19.7994 17.0996 19.2994L20.1996 22.3993" stroke="white" stroke-miterlimit="10" stroke-linejoin="round"/>
<path d="M22.0996 23.9998L25.1996 27.0999C24.6996 28.2999 24.8996 29.6998 25.8996 30.6998C26.8996 31.6998 28.2996 31.8998 29.4996 31.3998L27.8996 29.7998V28.0999H29.5996L31.1996 29.6998C31.6996 28.4998 31.4996 27.0999 30.4996 26.0999C29.4996 25.0999 28.0996 24.8998 26.8996 25.3998L23.7996 22.2998" stroke="white" stroke-miterlimit="10" stroke-linejoin="round"/>
</svg>
