<svg width="45" height="44" viewBox="0 0 45 44" fill="none" xmlns="http://www.w3.org/2000/svg">
<path d="M22.6008 43.3002C34.3644 43.3002 43.9008 33.7639 43.9008 22.0002C43.9008 10.2365 34.3644 0.700195 22.6008 0.700195C10.8371 0.700195 1.30078 10.2365 1.30078 22.0002C1.30078 33.7639 10.8371 43.3002 22.6008 43.3002Z" stroke="#808080" stroke-miterlimit="10"/>
<path d="M22.6011 31.3996C27.7926 31.3996 32.0012 27.1911 32.0012 21.9996C32.0012 16.8081 27.7926 12.5996 22.6011 12.5996C17.4097 12.5996 13.2012 16.8081 13.2012 21.9996C13.2012 27.1911 17.4097 31.3996 22.6011 31.3996Z" stroke="#808080" stroke-miterlimit="10" stroke-linecap="round" stroke-linejoin="round"/>
<path d="M22.6003 23.1998C23.2631 23.1998 23.8004 22.6626 23.8004 21.9998C23.8004 21.3371 23.2631 20.7998 22.6003 20.7998C21.9376 20.7998 21.4004 21.3371 21.4004 21.9998C21.4004 22.6626 21.9376 23.1998 22.6003 23.1998Z" stroke="#808080" stroke-miterlimit="10" stroke-linecap="round" stroke-linejoin="round"/>
<path d="M23.5 21.1L27.5 17" stroke="#808080" stroke-miterlimit="10" stroke-linecap="round" stroke-linejoin="round"/>
<path d="M14.8008 22.0996H16.4008" stroke="#808080" stroke-miterlimit="10" stroke-linecap="round" stroke-linejoin="round"/>
<path d="M15.4004 24.8998L16.9004 24.2998" stroke="#808080" stroke-miterlimit="10" stroke-linecap="round" stroke-linejoin="round"/>
<path d="M29.8008 24.8998L28.3008 24.2998" stroke="#808080" stroke-miterlimit="10" stroke-linecap="round" stroke-linejoin="round"/>
<path d="M30.4012 22H28.7012" stroke="#808080" stroke-miterlimit="10" stroke-linecap="round" stroke-linejoin="round"/>
<path d="M29.8008 19L28.3008 19.6" stroke="#808080" stroke-miterlimit="10" stroke-linecap="round" stroke-linejoin="round"/>
<path d="M25.6003 14.7998L24.9004 16.2998" stroke="#808080" stroke-miterlimit="10" stroke-linecap="round" stroke-linejoin="round"/>
<path d="M22.5 14.2998V15.9998" stroke="#808080" stroke-miterlimit="10" stroke-linecap="round" stroke-linejoin="round"/>
<path d="M19.5996 14.7998L20.1996 16.2998" stroke="#808080" stroke-miterlimit="10" stroke-linecap="round" stroke-linejoin="round"/>
<path d="M17.0996 16.5L18.1996 17.6" stroke="#808080" stroke-miterlimit="10" stroke-linecap="round" stroke-linejoin="round"/>
<path d="M15.4004 19L16.9004 19.6" stroke="#808080" stroke-miterlimit="10" stroke-linecap="round" stroke-linejoin="round"/>
<path d="M26.3004 25.5996H18.9004V28.0996H26.3004V25.5996Z" stroke="#808080" stroke-miterlimit="10" stroke-linecap="round" stroke-linejoin="round"/>
<path d="M22.5996 33C28.6747 33 33.5996 28.0751 33.5996 22C33.5996 15.9249 28.6747 11 22.5996 11C16.5245 11 11.5996 15.9249 11.5996 22C11.5996 28.0751 16.5245 33 22.5996 33Z" stroke="#808080" stroke-miterlimit="10" stroke-linecap="round" stroke-linejoin="round"/>
<path d="M22.6003 36.6998C14.5003 36.6998 7.90039 30.0998 7.90039 21.9998C7.90039 13.8998 14.5003 7.2998 22.6003 7.2998" stroke="#808080" stroke-miterlimit="10" stroke-linecap="round" stroke-linejoin="round"/>
<path d="M36.2004 27.7002C35.1004 30.3002 33.2004 32.5002 30.9004 34.1002" stroke="#808080" stroke-miterlimit="10" stroke-linecap="round" stroke-linejoin="round"/>
<path d="M37.3004 22C37.3004 23.2 37.2004 24.4 36.9004 25.5" stroke="#808080" stroke-miterlimit="10" stroke-linecap="round" stroke-linejoin="round"/>
</svg>
