<svg width="44" height="44" viewBox="0 0 44 44" fill="none" xmlns="http://www.w3.org/2000/svg">
<path d="M19.3008 16.5004V10.4004H29.4008" stroke="#808080" stroke-miterlimit="10" stroke-linecap="round" stroke-linejoin="round"/>
<path d="M31.2 15.7998V26.7998H24.5" stroke="#808080" stroke-miterlimit="10" stroke-linecap="round" stroke-linejoin="round"/>
<path d="M27.6008 16.3L25.8008 17.2L26.7008 15.4L32.7008 9.40002C33.3008 8.80002 34.2008 9.70001 33.6008 10.3L27.6008 16.3Z" stroke="#808080" stroke-miterlimit="10" stroke-linecap="round" stroke-linejoin="round"/>
<path d="M31.8008 10.2998L32.7008 11.1998" stroke="#808080" stroke-miterlimit="10" stroke-linecap="round" stroke-linejoin="round"/>
<path d="M22.0012 43.3002C33.7648 43.3002 43.3011 33.7639 43.3011 22.0002C43.3011 10.2365 33.7648 0.700195 22.0012 0.700195C10.2375 0.700195 0.701172 10.2365 0.701172 22.0002C0.701172 33.7639 10.2375 43.3002 22.0012 43.3002Z" stroke="#808080" stroke-miterlimit="10"/>
<path d="M16.3008 23.5C19.6145 23.5 22.3008 22.3807 22.3008 21C22.3008 19.6193 19.6145 18.5 16.3008 18.5C12.9871 18.5 10.3008 19.6193 10.3008 21C10.3008 22.3807 12.9871 23.5 16.3008 23.5Z" stroke="#808080" stroke-miterlimit="10" stroke-linecap="round" stroke-linejoin="round"/>
<path d="M22.2012 23.5C22.2012 24.9 19.5012 26 16.2012 26C12.9012 26 10.2012 24.9 10.2012 23.5" stroke="#808080" stroke-miterlimit="10" stroke-linecap="round" stroke-linejoin="round"/>
<path d="M22.2012 26.2998C22.2012 27.6998 19.5012 28.7998 16.2012 28.7998C12.9012 28.7998 10.2012 27.6998 10.2012 26.2998" stroke="#808080" stroke-miterlimit="10" stroke-linecap="round" stroke-linejoin="round"/>
<path d="M10.3008 21V29.2C10.3008 30.6 13.0008 31.7 16.3008 31.7C19.6008 31.7 22.3008 30.6 22.3008 29.2V21" stroke="#808080" stroke-miterlimit="10" stroke-linecap="round" stroke-linejoin="round"/>
<path d="M10.3008 23.9004V32.1004C10.3008 33.5004 13.0008 34.6004 16.3008 34.6004C19.6008 34.6004 22.3008 33.5004 22.3008 32.1004V23.9004" stroke="#808080" stroke-miterlimit="10" stroke-linecap="round" stroke-linejoin="round"/>
<path d="M28.3008 35C31.6145 35 34.3008 33.8807 34.3008 32.5C34.3008 31.1193 31.6145 30 28.3008 30C24.9871 30 22.3008 31.1193 22.3008 32.5C22.3008 33.8807 24.9871 35 28.3008 35Z" stroke="#808080" stroke-miterlimit="10" stroke-linecap="round" stroke-linejoin="round"/>
<path d="M22.3008 32.5V34.9C22.3008 36.3 25.0008 37.4 28.3008 37.4C31.6008 37.4 34.3008 36.3 34.3008 34.9V32.5" stroke="#808080" stroke-miterlimit="10" stroke-linecap="round" stroke-linejoin="round"/>
</svg>
