<svg width="45" height="44" viewBox="0 0 45 44" fill="none" xmlns="http://www.w3.org/2000/svg">
<path d="M22.3 43.3002C34.0637 43.3002 43.6 33.7639 43.6 22.0002C43.6 10.2365 34.0637 0.700195 22.3 0.700195C10.5363 0.700195 1 10.2365 1 22.0002C1 33.7639 10.5363 43.3002 22.3 43.3002Z" stroke="#808080" stroke-miterlimit="10"/>
<path d="M30.8 25.9002H29V16.0002H19V14.2002H16.3V16.0002H14.5V18.7002H16.3V28.6002H26.2V30.4002H28.9V28.6002H30.7V25.9002H30.8ZM19 25.9002V18.7002H26.2V25.9002H19Z" stroke="#808080" stroke-miterlimit="10" stroke-linecap="round" stroke-linejoin="round"/>
<path d="M19 25.9002L26.2 18.7002" stroke="#808080" stroke-miterlimit="10" stroke-linecap="round" stroke-linejoin="round"/>
<path d="M28.9004 16.0002L35.3004 9.7002" stroke="#808080" stroke-miterlimit="10" stroke-linecap="round" stroke-linejoin="round"/>
<path d="M15.9004 16H20.4004" stroke="#808080" stroke-miterlimit="10" stroke-linecap="round" stroke-linejoin="round"/>
<path d="M16.3008 18.7002H19.0008" stroke="#808080" stroke-miterlimit="10" stroke-linecap="round" stroke-linejoin="round"/>
<path d="M26.1992 25.9004H28.8992" stroke="#808080" stroke-miterlimit="10" stroke-linecap="round" stroke-linejoin="round"/>
<path d="M26.1992 28.6006H28.8992" stroke="#808080" stroke-miterlimit="10" stroke-linecap="round" stroke-linejoin="round"/>
<path d="M7.09961 28.0998C6.59961 27.5998 6.59961 26.7998 7.09961 26.2998C7.59961 25.7998 8.39966 25.7998 8.89966 26.2998L14.8997 32.2998L15.9996 35.1998L13.0996 34.0998L7.09961 28.0998Z" stroke="#808080" stroke-miterlimit="10" stroke-linecap="round" stroke-linejoin="round"/>
<path d="M9.29999 26.7998L7.5 28.4998" stroke="#808080" stroke-miterlimit="10" stroke-linecap="round" stroke-linejoin="round"/>
<path d="M10.2004 27.5996L8.40039 29.3996" stroke="#808080" stroke-miterlimit="10" stroke-linecap="round" stroke-linejoin="round"/>
<path d="M14.8 32.2998L13 34.0998" stroke="#808080" stroke-miterlimit="10" stroke-linecap="round" stroke-linejoin="round"/>
<path d="M13.8989 33.2L9.29883 28.5" stroke="#808080" stroke-miterlimit="10" stroke-linecap="round" stroke-linejoin="round"/>
</svg>
