<svg width="44" height="44" viewBox="0 0 44 44" fill="none" xmlns="http://www.w3.org/2000/svg">
<path d="M21.9016 43.3002C33.6653 43.3002 43.2016 33.7639 43.2016 22.0002C43.2016 10.2365 33.6653 0.700195 21.9016 0.700195C10.1379 0.700195 0.601562 10.2365 0.601562 22.0002C0.601562 33.7639 10.1379 43.3002 21.9016 43.3002Z" stroke="#808080" stroke-miterlimit="10"/>
<path d="M18.8009 26.8L26.701 18.9C27.901 19.4 29.3009 19.2 30.3009 18.2C31.3009 17.2 31.501 15.8 31.001 14.6L29.401 16.2H27.701V14.3L29.3009 12.7C28.1009 12.2 26.701 12.4 25.701 13.4C24.701 14.4 24.501 15.8 25.001 17L17.001 25C15.801 24.5 14.401 24.7 13.401 25.7C12.401 26.7 12.201 28.1 12.701 29.3L14.3009 27.7H16.201V29.4L14.6009 31C15.8009 31.5 17.201 31.3 18.201 30.3C19.101 29.4 19.3009 28 18.8009 26.8Z" stroke="#808080" stroke-miterlimit="10" stroke-linejoin="round"/>
<path d="M21.9014 20.1996L18.8014 17.0996C19.3014 15.8996 19.1014 14.4996 18.1014 13.4996C17.1014 12.4996 15.7014 12.2996 14.5014 12.7996L16.1014 14.3996V16.2996H14.2014L12.6014 14.6996C12.1014 15.8996 12.3014 17.2996 13.3014 18.2996C14.3014 19.2996 15.7014 19.4996 16.9014 18.9996L20.0014 22.0996" stroke="#808080" stroke-miterlimit="10" stroke-linejoin="round"/>
<path d="M21.9023 23.7L25.0023 26.8C24.5023 28 24.7023 29.4 25.7023 30.4C26.7023 31.4 28.1023 31.6 29.3023 31.1L27.7023 29.5V27.8H29.4023L31.0023 29.4C31.5023 28.2 31.3023 26.8 30.3023 25.8C29.3023 24.8 27.9023 24.6 26.7023 25.1L23.6023 22" stroke="#808080" stroke-miterlimit="10" stroke-linejoin="round"/>
</svg>
