<svg width="70" height="70" viewBox="0 0 70 70" fill="none" xmlns="http://www.w3.org/2000/svg">
<path d="M35 69C53.7777 69 69 53.7777 69 35C69 16.2223 53.7777 1 35 1C16.2223 1 1 16.2223 1 35C1 53.7777 16.2223 69 35 69Z" stroke="black" stroke-miterlimit="10"/>
<path d="M16.6 29.6C16.6 18.2 25.8 9 37.2 9M45.7 10.9C50.1 12.9 53.7 16.5 55.8 20.9M51.6 28L49.5 27.6C49 27.5 48.6 27.1 48.5 26.6C48.4 26.1 48.5 25.6 48.9 25.3L50.5 23.8C50.7 23.6 50.8 23.2 50.6 23L49.7 21.4C49.5 21.1 49.2 21 48.9 21.1L46.8 21.8C46.3 22 45.8 21.8 45.5 21.5C45.1 21.1 45 20.6001 45.2 20.2001L45.9 18.1C46 17.8 45.9 17.5 45.6 17.3L44 16.4C43.7 16.2 43.4 16.3 43.2 16.5L41.7 18.1C41.4 18.5 40.8 18.6 40.4 18.5C39.9 18.4 39.5 18 39.4 17.5L39 15.4C38.9 15.1 38.7 14.9 38.4 14.9H36.5C36.2 14.9 35.9 15.1 35.9 15.4L35.5 17.5C35.4 18 35 18.4 34.5 18.5C34 18.6 33.5 18.5 33.2 18.1L31.7 16.5C31.5 16.3 31.1 16.2 30.9 16.4L29.3 17.3C29 17.5 28.9 17.8 29 18.1L29.7 20.2001C29.9 20.7001 29.7 21.2 29.4 21.5C29 21.9 28.5 22 28.1 21.8L26 21.1C25.7 21 25.4 21.1 25.2 21.4L24.3 23C24.1 23.3 24.2 23.6 24.4 23.8L26 25.3C26.4 25.6 26.5 26.2 26.4 26.6C26.3 27.1 25.9 27.5 25.4 27.6L23.3 28C23 28.1 22.8 28.3 22.8 28.6V30.5C22.8 30.8 23 31.1 23.3 31.1L25.4 31.5C25.9 31.6 26.3 32 26.4 32.5C26.5 33 26.4 33.5 26 33.8L24.4 35.3C24.2 35.5 24.1 35.9 24.3 36.1L25.2 37.7001C25.4 38.0001 25.7 38.1 26 38L28.1 37.3C28.6 37.1 29.1 37.3 29.4 37.6C29.8 38 29.9 38.5 29.7 38.9L29 41C28.9 41.3 29 41.6 29.3 41.8L30.9 42.7001C31.2 42.9001 31.5 42.8 31.7 42.6L33.2 41C33.5 40.6 34.1 40.5 34.5 40.6C35 40.7 35.4 41.1 35.5 41.6L35.9 43.7001C36 44.0001 36.2 44.2001 36.5 44.2001H38.4C38.7 44.2001 39 44.0001 39 43.7001L39.4 41.6C39.5 41.1 39.9 40.7 40.4 40.6C40.9 40.5 41.4 40.6 41.7 41L43.2 42.6C43.4 42.8 43.8 42.9001 44 42.7001L45.6 41.8C45.9 41.6 46 41.3 45.9 41L45.2 38.9C45 38.4 45.2 37.9 45.5 37.6C45.9 37.2 46.4 37.1 46.9 37.3L49 38C49.3 38.1 49.6 38.0001 49.8 37.7001L50.7 36.1C50.9 35.8 50.8 35.5 50.6 35.3L49 33.8C48.6 33.5 48.5 32.9 48.6 32.5C48.7 32 49.1 31.6 49.6 31.5L51.7 31.1C52 31 52.2 30.8 52.2 30.5V28.6C52.1 28.3 51.9 28 51.6 28ZM37.1 36.7001C33.2 36.7001 30 33.5 30 29.6C30 25.7 33.2 22.5 37.1 22.5C41 22.5 44.2 25.7 44.2 29.6C44.3 33.5 41.1 36.7001 37.1 36.7001Z" stroke="black" stroke-miterlimit="10" stroke-linecap="round" stroke-linejoin="round"/>
<path d="M37 53.7001C35.2 58.5001 30.6 61.9 25.1 61.9M31.1 49.3C31.1 49.2 31.1 49 31.1 48.9C31.1 48.6 31.2 48.2 31.4 48L32.4 47.1C32.8 46.8 32.9 46.2 32.6 45.8L32.1 44.9C31.8 44.5 31.3 44.3 30.8 44.4L29.6999 44.8C29.3999 44.9 28.9999 44.8 28.6999 44.6C28.3999 44.4 28.1 44.2 27.8 44C27.5 43.9 27.2999 43.6 27.1999 43.3L26.9 42.1C26.8 41.6 26.3 41.3 25.9 41.3H24.8C24.3 41.3 23.9 41.6 23.8 42.1L23.5 43.2001C23.4 43.5001 23.2 43.8 22.9 43.9C22.5 44.1 22.1 44.3 21.8 44.5C21.5 44.7 21.2 44.7001 20.9 44.7001L19.9 44.4C19.4 44.3 18.8999 44.5 18.6999 44.9L18.1999 45.9C17.9999 46.3 18 46.9001 18.4 47.2001L19.1 47.9C19.3 48.1 19.5 48.5 19.4 48.8C19.4 49 19.4 49.2 19.4 49.4C19.4 49.6 19.4 49.9 19.4 50.1C19.4 50.4 19.3 50.8 19.1 51L18.4 51.7001C18 52.0001 17.9999 52.6 18.1999 53L18.6999 54C18.8999 54.4 19.5 54.6 19.9 54.5L21 54.2001C21.3 54.1001 21.6 54.2 21.9 54.3C22.2 54.5 22.6 54.7 22.9 54.9C23.2 55 23.5 55.3001 23.5 55.7001L23.6999 56.8C23.7999 57.3 24.2 57.6 24.8 57.6H25.9C26.4 57.6 26.8 57.2 27 56.8L27.3 55.6C27.4 55.3 27.6 55 27.9 54.9C28.2 54.7 28.5 54.6 28.8 54.4C29.1 54.2 29.4 54.1001 29.8 54.2001L31 54.6C31.5 54.8 32 54.5 32.3 54.1L32.8 53.2001C33.1 52.8001 33 52.2 32.6 51.9L31.6 51C31.3 50.8 31.2 50.4 31.3 50.1C31.1 49.6 31.1 49.5 31.1 49.3ZM25.1999 53.1C23.0999 53.1 21.4 51.4 21.4 49.3C21.4 47.2 23.0999 45.5 25.1999 45.5C27.2999 45.5 29 47.2 29 49.3C28.9 51.4 27.2999 53.1 25.1999 53.1Z" stroke="black" stroke-miterlimit="10" stroke-linecap="round" stroke-linejoin="round"/>
</svg>
