<svg width="70" height="70" viewBox="0 0 70 70" fill="none" xmlns="http://www.w3.org/2000/svg">
<path d="M35 69C53.7777 69 69 53.7777 69 35C69 16.2223 53.7777 1 35 1C16.2223 1 1 16.2223 1 35C1 53.7777 16.2223 69 35 69Z" stroke="black" stroke-miterlimit="10"/>
<path d="M48.6 38.3002L49.7 37.2002" stroke="black" stroke-miterlimit="10" stroke-linecap="round" stroke-linejoin="round"/>
<path d="M50 39.7002L51.1 38.6001" stroke="black" stroke-miterlimit="10" stroke-linecap="round" stroke-linejoin="round"/>
<path d="M39.7 41.7002V49.2002H24.2V28.2002H27.2" stroke="black" stroke-miterlimit="10" stroke-linecap="round" stroke-linejoin="round"/>
<path d="M58.8 43.5L49.2 33.9C52.2 29.6 51.7 23.7 47.9 19.9C43.6 15.6 36.6 15.6 32.3 19.9C28 24.2 28 31.2 32.3 35.5C36.1 39.3 42 39.7001 46.3 36.8001L55.9 46.4C56.9 47.4 58.3 47.8 59.2 46.9C60.2 45.9 59.8 44.6 58.8 43.5Z" stroke="black" stroke-miterlimit="10" stroke-linecap="round" stroke-linejoin="round"/>
<path d="M40.2 36.7002C45.1706 36.7002 49.2 32.6708 49.2 27.7002C49.2 22.7296 45.1706 18.7002 40.2 18.7002C35.2294 18.7002 31.2 22.7296 31.2 27.7002C31.2 32.6708 35.2294 36.7002 40.2 36.7002Z" stroke="black" stroke-miterlimit="10" stroke-linecap="round" stroke-linejoin="round"/>
<path d="M31.7 26H42.7V36.2001" stroke="black" stroke-miterlimit="10" stroke-linecap="round" stroke-linejoin="round"/>
<path d="M40.2 38.7002C46.2751 38.7002 51.2 33.7753 51.2 27.7002C51.2 21.6251 46.2751 16.7002 40.2 16.7002C34.1249 16.7002 29.2 21.6251 29.2 27.7002C29.2 33.7753 34.1249 38.7002 40.2 38.7002Z" stroke="black" stroke-miterlimit="10" stroke-linecap="round" stroke-linejoin="round"/>
<path d="M35.2 22.7001C38 19.9001 42.5 19.9001 45.2 22.7001" stroke="black" stroke-miterlimit="10" stroke-linecap="round" stroke-linejoin="round"/>
<path d="M46.8 25.2002C47.3 26.6002 47.4 28.2002 47 29.7002" stroke="black" stroke-miterlimit="10" stroke-linecap="round" stroke-linejoin="round"/>
<path d="M18.2 26.2002H12.2V49.2002H18.2V26.2002Z" stroke="black" stroke-miterlimit="10" stroke-linecap="round" stroke-linejoin="round"/>
<path d="M12.2 29.2002H14.2" stroke="black" stroke-miterlimit="10" stroke-linecap="round" stroke-linejoin="round"/>
<path d="M12.2 33.2002H14.2" stroke="black" stroke-miterlimit="10" stroke-linecap="round" stroke-linejoin="round"/>
<path d="M12.2 37.2002H14.2" stroke="black" stroke-miterlimit="10" stroke-linecap="round" stroke-linejoin="round"/>
<path d="M12.2 41.2002H14.2" stroke="black" stroke-miterlimit="10" stroke-linecap="round" stroke-linejoin="round"/>
<path d="M12.2 45.2002H14.2" stroke="black" stroke-miterlimit="10" stroke-linecap="round" stroke-linejoin="round"/>
</svg>
