<svg width="50" height="50" viewBox="0 0 50 50" fill="none" xmlns="http://www.w3.org/2000/svg">
<path d="M24.6 49.3C37.9101 49.3 48.7 38.51 48.7 25.1999C48.7 11.8898 37.9101 1.09991 24.6 1.09991C11.2899 1.09991 0.5 11.8898 0.5 25.1999C0.5 38.51 11.2899 49.3 24.6 49.3Z" fill="#0075C9" stroke="#0075C9" stroke-miterlimit="10"/>
<path d="M13.1001 31.6999C13.1001 32.2999 13.5001 32.6999 14.1001 32.6999H16.1001V36.6999L20.1001 32.6999H35.1001C35.7001 32.6999 36.1001 32.2999 36.1001 31.6999V18.6999C36.1001 18.0999 35.7001 17.6999 35.1001 17.6999H14.1001C13.5001 17.6999 13.1001 18.0999 13.1001 18.6999V31.6999Z" fill="white" stroke="white" stroke-miterlimit="10" stroke-linecap="round" stroke-linejoin="round"/>
<path d="M21.1001 25.6999C21.3762 25.6999 21.6001 25.476 21.6001 25.1999C21.6001 24.9237 21.3762 24.6999 21.1001 24.6999C20.824 24.6999 20.6001 24.9237 20.6001 25.1999C20.6001 25.476 20.824 25.6999 21.1001 25.6999Z" fill="#0075C9" stroke="#0075C9" stroke-miterlimit="10"/>
<path d="M29.1001 25.6999C29.3762 25.6999 29.6001 25.476 29.6001 25.1999C29.6001 24.9237 29.3762 24.6999 29.1001 24.6999C28.824 24.6999 28.6001 24.9237 28.6001 25.1999C28.6001 25.476 28.824 25.6999 29.1001 25.6999Z" fill="#0075C9" stroke="#0075C9" stroke-miterlimit="10"/>
<path d="M25.1001 25.6999C25.3762 25.6999 25.6001 25.476 25.6001 25.1999C25.6001 24.9237 25.3762 24.6999 25.1001 24.6999C24.824 24.6999 24.6001 24.9237 24.6001 25.1999C24.6001 25.476 24.824 25.6999 25.1001 25.6999Z" fill="#0075C9" stroke="#0075C9" stroke-miterlimit="10"/>
</svg>
