<svg width="50" height="51" viewBox="0 0 50 51" fill="none" xmlns="http://www.w3.org/2000/svg">
<g id="Group">
<path id="Vector" d="M24.9001 49.5999C38.2101 49.5999 49.0001 38.81 49.0001 25.4999C49.0001 12.1899 38.2101 1.39996 24.9001 1.39996C11.59 1.39996 0.800049 12.1899 0.800049 25.4999C0.800049 38.81 11.59 49.5999 24.9001 49.5999Z" fill="#0075C9" stroke="#0075C9" stroke-miterlimit="10"/>
<g id="Group_2">
<path id="Vector_2" d="M26.9001 22.6999H28.9001V26.6999L32.9001 22.6999H36.4001V13.6999H21.4001V17.6999" stroke="white" stroke-miterlimit="10" stroke-linejoin="round"/>
<g id="Vector_3">
<path d="M18.9001 29.4V31.5999L15.0002 32.9999C14.1002 33.2999 13.4001 34.1999 13.4001 35.1999V36.6999H28.4001V35.1999C28.4001 34.1999 27.8001 33.2999 26.8001 32.9999L22.9001 31.5999V29.3" fill="white"/>
<path d="M18.9001 29.4V31.5999L15.0002 32.9999C14.1002 33.2999 13.4001 34.1999 13.4001 35.1999V36.6999H28.4001V35.1999C28.4001 34.1999 27.8001 33.2999 26.8001 32.9999L22.9001 31.5999V29.3" stroke="white" stroke-miterlimit="10" stroke-linejoin="round"/>
</g>
<path id="Vector_4" d="M20.8001 29.9C22.9541 29.9 24.7002 27.7956 24.7002 25.1999C24.7002 22.6042 22.9541 20.4999 20.8001 20.4999C18.6462 20.4999 16.9001 22.6042 16.9001 25.1999C16.9001 27.7956 18.6462 29.9 20.8001 29.9Z" fill="#0075C9" stroke="white" stroke-miterlimit="10" stroke-linejoin="round"/>
<path id="Vector_5" d="M24.7002 24.8C24.6002 24.8 24.5001 24.8 24.3001 24.8C23.0001 25.1 22.1001 24.6 21.4001 23.3C21.0001 24.2 19.6001 24.8 18.4001 24.8C17.8001 24.8 17.4001 24.7 16.9001 24.4" stroke="white" stroke-miterlimit="10" stroke-linejoin="round"/>
<g id="Group_3">
<g id="Group_4">
<g id="Group_5">
<path id="Vector_6" d="M32.9001 18.1999H31.9001V19.1999H32.9001V18.1999Z" fill="white"/>
</g>
</g>
</g>
<g id="Group_6">
<g id="Group_7">
<g id="Group_8">
<path id="Vector_7" d="M29.9001 18.1999H28.9001V19.1999H29.9001V18.1999Z" fill="white"/>
</g>
</g>
</g>
<g id="Group_9">
<g id="Group_10">
<g id="Group_11">
<path id="Vector_8" d="M26.9001 18.1999H25.9001V19.1999H26.9001V18.1999Z" fill="white"/>
</g>
</g>
</g>
</g>
</g>
</svg>
