<svg width="50" height="51" viewBox="0 0 50 51" fill="none" xmlns="http://www.w3.org/2000/svg">
<g id="Group">
<path id="Vector" d="M24.9 49.6001C38.2101 49.6001 49 38.8101 49 25.5C49 12.1899 38.2101 1.3999 24.9 1.3999C11.59 1.3999 0.799988 12.1899 0.799988 25.5C0.799988 38.8101 11.59 49.6001 24.9 49.6001Z" fill="white" stroke="#808080" stroke-miterlimit="10" stroke-linecap="round" stroke-linejoin="round"/>
<g id="Group_2">
<path id="Vector_2" d="M13.4 32C13.4 32.6 13.8 33 14.4 33H16.4V37L20.4 33H35.4C36 33 36.4 32.6 36.4 32V19C36.4 18.4 36 18 35.4 18H14.4C13.8 18 13.4 18.4 13.4 19V32Z" stroke="#808080" stroke-miterlimit="10" stroke-linecap="round" stroke-linejoin="round"/>
<path id="Vector_3" d="M21.4 26C21.6762 26 21.9 25.7761 21.9 25.5C21.9 25.2239 21.6762 25 21.4 25C21.1239 25 20.9 25.2239 20.9 25.5C20.9 25.7761 21.1239 26 21.4 26Z" stroke="#808080" stroke-miterlimit="10" stroke-linecap="round" stroke-linejoin="round"/>
<path id="Vector_4" d="M29.4 26C29.6762 26 29.9 25.7761 29.9 25.5C29.9 25.2239 29.6762 25 29.4 25C29.1239 25 28.9 25.2239 28.9 25.5C28.9 25.7761 29.1239 26 29.4 26Z" stroke="#808080" stroke-miterlimit="10" stroke-linecap="round" stroke-linejoin="round"/>
<path id="Vector_5" d="M25.4 26C25.6762 26 25.9 25.7761 25.9 25.5C25.9 25.2239 25.6762 25 25.4 25C25.1239 25 24.9 25.2239 24.9 25.5C24.9 25.7761 25.1239 26 25.4 26Z" stroke="#808080" stroke-miterlimit="10" stroke-linecap="round" stroke-linejoin="round"/>
</g>
</g>
</svg>
