<svg width="50" height="50" viewBox="0 0 50 50" fill="none" xmlns="http://www.w3.org/2000/svg">
<g id="Group">
<path id="Vector" d="M25.1 49.3C38.4101 49.3 49.2 38.51 49.2 25.1999C49.2 11.8898 38.4101 1.09991 25.1 1.09991C11.7899 1.09991 1 11.8898 1 25.1999C1 38.51 11.7899 49.3 25.1 49.3Z" fill="#0075C9" stroke="#0075C9" stroke-miterlimit="10"/>
<g id="Group_2">
<path id="Vector_2" d="M30.6001 31.6999C30.6001 32.2999 30.2001 32.6999 29.6001 32.6999H15.6001C15.0001 32.6999 14.6001 32.2999 14.6001 31.6999V23.6999C14.6001 23.0999 15.0001 22.6999 15.6001 22.6999H29.6001C30.2001 22.6999 30.6001 23.0999 30.6001 23.6999V31.6999Z" fill="white" stroke="white" stroke-miterlimit="10" stroke-linecap="round" stroke-linejoin="round"/>
<path id="Vector_3" d="M19.1001 28.6999C19.9285 28.6999 20.6001 28.0283 20.6001 27.1999C20.6001 26.3715 19.9285 25.6999 19.1001 25.6999C18.2717 25.6999 17.6001 26.3715 17.6001 27.1999C17.6001 28.0283 18.2717 28.6999 19.1001 28.6999Z" fill="#0075C9" stroke="#0075C9" stroke-miterlimit="10" stroke-linecap="round" stroke-linejoin="round"/>
<path id="Vector_4" d="M26.1001 28.6999C26.9285 28.6999 27.6001 28.0283 27.6001 27.1999C27.6001 26.3715 26.9285 25.6999 26.1001 25.6999C25.2717 25.6999 24.6001 26.3715 24.6001 27.1999C24.6001 28.0283 25.2717 28.6999 26.1001 28.6999Z" fill="#0075C9" stroke="#0075C9" stroke-miterlimit="10" stroke-linecap="round" stroke-linejoin="round"/>
<path id="Vector_5" d="M19.1001 25.6999H26.1001" stroke="#0075C9" stroke-miterlimit="10" stroke-linecap="round" stroke-linejoin="round"/>
<path id="Vector_6" d="M13.6001 19.6999H23.6001C24.2001 19.6999 24.6001 20.0999 24.6001 20.6999V22.6999" stroke="white" stroke-miterlimit="10" stroke-linecap="round" stroke-linejoin="round"/>
<path id="Vector_7" d="M28.6001 22.6999V19.6999C28.6001 19.0999 29.0001 18.6999 29.6001 18.6999H31.6001" stroke="white" stroke-miterlimit="10" stroke-linecap="round" stroke-linejoin="round"/>
<path id="Vector_8" d="M36.6001 18.6999C36.6001 19.2999 36.2001 19.6999 35.6001 19.6999H32.6001C32.0001 19.6999 31.6001 19.2999 31.6001 18.6999C31.6001 18.0999 32.0001 17.6999 32.6001 17.6999H35.6001C36.2001 17.6999 36.6001 18.0999 36.6001 18.6999Z" fill="white" stroke="white" stroke-miterlimit="10" stroke-linecap="round" stroke-linejoin="round"/>
<g id="Vector_9">
<path d="M30.6001 26.1999L35.9001 23.9999C36.1001 23.8999 36.3001 23.9999 36.4001 23.9999C36.5001 24.0999 36.6001 24.3 36.6001 24.4V30.8C36.6001 31 36.5001 31.0999 36.4001 31.1999C36.2001 31.2999 36.1001 31.2999 35.9001 31.1999L30.6001 28.9999" fill="white"/>
<path d="M30.6001 26.1999L35.9001 23.9999C36.1001 23.8999 36.3001 23.9999 36.4001 23.9999C36.5001 24.0999 36.6001 24.3 36.6001 24.4V30.8C36.6001 31 36.5001 31.0999 36.4001 31.1999C36.2001 31.2999 36.1001 31.2999 35.9001 31.1999L30.6001 28.9999" stroke="white" stroke-miterlimit="10" stroke-linecap="round" stroke-linejoin="round"/>
</g>
</g>
</g>
</svg>
