<svg width="948" height="644" viewBox="0 0 948 644" fill="none" xmlns="http://www.w3.org/2000/svg">
<g opacity="0.5">
<path opacity="0.4" d="M361.1 580.4C346.3 590.9 330 574.7 340.6 559.9C340.9 559.5 341.2 559.2 341.6 558.9C356.4 548.4 372.7 564.6 362.1 579.4C361.8 579.8 361.5 580.1 361.1 580.4Z" fill="#D7D7D7"/>
<path opacity="0.4" d="M242.3 457.2C236.2 461.4 229.6 454.8 233.8 448.7C234 448.5 234.1 448.3 234.4 448.1C240.5 443.9 247.1 450.5 242.9 456.6C242.7 456.8 242.5 457 242.3 457.2Z" fill="#D7D7D7"/>
<path opacity="0.4" d="M577.1 428.5C573.1 431.1 568.8 426.9 571.5 422.9C571.6 422.7 571.9 422.5 572.1 422.3C576.1 419.7 580.4 423.9 577.7 427.9C577.5 428.1 577.3 428.3 577.1 428.5Z" fill="#D7D7D7"/>
<path opacity="0.4" d="M579.7 460.4C571.7 465.8 563 457.1 568.4 449.1C568.7 448.7 569 448.4 569.4 448.1C577.4 442.7 586.1 451.4 580.7 459.4C580.4 459.8 580.1 460.1 579.7 460.4Z" fill="#D7D7D7"/>
<path opacity="0.4" d="M705.9 516.5C682.2 533.8 655.9 507.5 673.2 483.8C673.5 483.4 673.8 483.1 674.1 482.9C697.8 465.6 724.1 491.9 706.8 515.6C706.6 515.9 706.3 516.2 705.9 516.5Z" fill="#D7D7D7"/>
<path opacity="0.4" d="M242.3 414C236.2 418.2 229.6 411.6 233.8 405.5C234 405.3 234.1 405.1 234.4 404.9C240.5 400.7 247.1 407.3 242.9 413.4C242.7 413.7 242.5 413.9 242.3 414Z" fill="#D7D7D7"/>
<path opacity="0.4" d="M574.6 453.5C574.6 453.5 582.4 458.6 582.4 454.2C582.4 446.9 577.7 444.1 577.7 436.2C577.7 428.2 578.3 430.3 578.3 425.4C578.3 422 574.5 425.8 574.5 425.8C574.5 425.8 570.5 421.7 570.5 425.4C570.5 430.3 571.4 428.2 571.4 436.3C571.4 444.3 566.7 446.5 566.7 454.3C566.7 458.6 574.6 453.5 574.6 453.5Z" fill="#D7D7D7"/>
<path opacity="0.4" d="M466.3 363.9C462.8 366.1 459.1 362.4 461.3 358.9C461.5 358.7 461.7 358.5 461.9 358.3C465.4 356.1 469.1 359.8 466.9 363.3C466.7 363.6 466.5 363.8 466.3 363.9Z" fill="#D7D7D7"/>
<path opacity="0.4" d="M468.6 392.2C461.5 396.9 453.9 389.3 458.6 382.2C458.9 381.8 459.2 381.5 459.6 381.2C466.7 376.5 474.3 384.1 469.6 391.2C469.3 391.6 469 392 468.6 392.2Z" fill="#D7D7D7"/>
<path opacity="0.4" d="M464.1 386.1C464.1 386.1 471 390.6 471 386.7C471 380.2 466.8 377.8 466.8 370.7C466.8 363.6 467.4 365.5 467.4 361.1C467.4 358.1 464 361.4 464 361.4C464 361.4 460.5 357.8 460.5 361.1C460.5 365.5 461.3 363.6 461.3 370.7C461.3 377.8 457.2 379.7 457.2 386.6C457.1 390.6 464.1 386.1 464.1 386.1Z" fill="#D7D7D7"/>
<path opacity="0.4" d="M242.6 579.7C234.8 584.9 226.5 576.5 231.7 568.8C232 568.4 232.3 568.1 232.7 567.8C240.5 562.6 248.8 571 243.6 578.7C243.3 579.1 243 579.5 242.6 579.7Z" fill="#D7D7D7"/>
<path opacity="0.4" d="M242.6 607.8C234.8 613 226.5 604.6 231.7 596.9C232 596.5 232.3 596.2 232.7 595.9C240.5 590.7 248.8 599.1 243.6 606.8C243.3 607.2 243 607.5 242.6 607.8Z" fill="#D7D7D7"/>
<path opacity="0.4" d="M245.2 601.8C245.2 594.7 241.4 595.6 241.4 587.9C241.4 580.1 245.2 578.5 245.2 573.8C245.2 570.5 230 570.2 230 573.8C230 578.6 233.8 580.2 233.8 587.9C233.8 595.7 230 594.2 230 601.8C230.1 606 245.2 606 245.2 601.8Z" fill="#D7D7D7"/>
<path opacity="0.4" d="M366.1 638.7C343.9 654.6 319.4 630.1 335.3 607.9C335.7 607.4 336.1 606.9 336.6 606.6C358.8 590.7 383.3 615.2 367.4 637.4C367.1 637.9 366.6 638.4 366.1 638.7Z" fill="#D7D7D7"/>
<path opacity="0.4" d="M352.1 625.5C352.1 625.5 372.5 633.6 372.5 625C372.5 605.6 363.2 608.5 363.1 592.6C363 576.8 365.8 580.4 365.7 570.7C365.6 561 351.7 570.8 351.7 570.8C351.7 570.8 337.7 561.1 337.7 570.9C337.8 580.6 340.6 577 340.7 592.8C340.8 608.6 330.2 604.2 330.2 625.1C330.2 633.6 352.1 625.5 352.1 625.5Z" fill="#D7D7D7"/>
<path opacity="0.4" d="M466.401 319.2C462.801 321.5 458.9 317.7 461.3 314.1C461.5 313.9 461.701 313.7 461.901 313.5C465.501 311.2 469.4 315 467 318.6C466.8 318.8 466.601 319.1 466.401 319.2Z" fill="#D7D7D7"/>
<path opacity="0.4" d="M466.401 345.6C462.801 347.9 458.9 344.1 461.3 340.5C461.5 340.3 461.701 340.1 461.901 339.9C465.501 337.6 469.4 341.4 467 345C466.8 345.3 466.601 345.5 466.401 345.6Z" fill="#D7D7D7"/>
<path opacity="0.4" d="M464.4 342.7H467.7C467.7 337.5 465.5 337.1 465.5 329.5C465.5 321.9 467.7 321.6 467.7 316.3L460.5 316.4C460.5 321.1 462.9 322 462.9 329.6C462.9 337.2 460.5 337.3 460.5 342.8L464.4 342.7Z" fill="#D7D7D7"/>
<path opacity="0.4" d="M803 103.2C799.5 105.4 795.8 101.7 798 98.2C798.2 98 798.4 97.8 798.6 97.6C802.1 95.4 805.8 99.1 803.6 102.6C803.5 102.8 803.3 103 803 103.2Z" fill="#D7D7D7"/>
<path opacity="0.4" d="M805.4 131.4C798.3 136.1 790.7 128.5 795.4 121.4C795.7 121 796 120.7 796.4 120.4C803.5 115.7 811.1 123.3 806.4 130.4C806.1 130.8 805.8 131.2 805.4 131.4Z" fill="#D7D7D7"/>
<path opacity="0.4" d="M800.9 125.3C800.9 125.3 807.8 129.8 807.8 125.9C807.8 119.4 803.6 117 803.6 109.9C803.6 102.8 804.2 104.7 804.2 100.3C804.2 97.3001 800.8 100.6 800.8 100.6C800.8 100.6 797.3 97.0001 797.3 100.3C797.3 104.7 798.1 102.8 798.1 109.9C798.1 117 794 118.9 794 125.8C793.9 129.8 800.9 125.3 800.9 125.3Z" fill="#D7D7D7"/>
<path opacity="0.4" d="M916.1 176.8C912.1 179.4 907.9 175.2 910.5 171.2C910.7 171 910.9 170.8 911.1 170.6C915.1 168 919.3 172.2 916.7 176.2C916.6 176.5 916.3 176.7 916.1 176.8Z" fill="#D7D7D7"/>
<path opacity="0.4" d="M918.7 208.6C910.7 214 902.1 205.3 907.5 197.4C907.8 197 908.1 196.7 908.5 196.4C916.5 191 925.1 199.7 919.7 207.6C919.5 208 919.1 208.3 918.7 208.6Z" fill="#D7D7D7"/>
<path opacity="0.4" d="M913.6 201.8C913.6 201.8 921.3 206.8 921.3 202.5C921.3 195.2 916.6 192.5 916.6 184.6C916.6 176.6 917.2 178.7 917.2 173.8C917.2 170.4 913.4 174.2 913.4 174.2C913.4 174.2 909.4 170.1 909.4 173.8C909.4 178.7 910.3 176.6 910.3 184.6C910.3 192.6 905.6 194.7 905.6 202.5C905.8 206.8 913.6 201.8 913.6 201.8Z" fill="#D7D7D7"/>
<path opacity="0.4" d="M803.1 58.4001C799.5 60.7001 795.6 56.9001 798 53.3001C798.2 53.1001 798.4 52.9001 798.6 52.7001C802.2 50.4001 806.1 54.2001 803.7 57.8001C803.6 58.1001 803.4 58.3001 803.1 58.4001Z" fill="#D7D7D7"/>
<path opacity="0.4" d="M803.1 84.9001C799.5 87.2001 795.6 83.4001 798 79.8001C798.2 79.6001 798.4 79.4001 798.6 79.2001C802.2 76.9001 806.1 80.7001 803.7 84.3001C803.6 84.5001 803.4 84.7001 803.1 84.9001Z" fill="#D7D7D7"/>
<path opacity="0.4" d="M801.2 81.9H804.5C804.5 76.7 802.3 76.3001 802.3 68.7001C802.3 61.1001 804.5 60.8 804.5 55.5L797.3 55.6001C797.3 60.3001 799.7 61.2 799.7 68.8C799.7 76.4 797.3 76.5 797.3 82L801.2 81.9Z" fill="#D7D7D7"/>
<path opacity="0.4" d="M127.5 454.8C124.2 456.9 120.8 453.4 122.9 450.2C123 450 123.3 449.8 123.5 449.6C126.8 447.5 130.2 451 128.1 454.2C127.9 454.4 127.7 454.6 127.5 454.8Z" fill="#D7D7D7"/>
<path opacity="0.4" d="M127.5 478.7C124.2 480.8 120.8 477.3 122.9 474.1C123 473.9 123.3 473.7 123.5 473.5C126.8 471.4 130.2 474.9 128.1 478.1C127.9 478.4 127.7 478.6 127.5 478.7Z" fill="#D7D7D7"/>
<path opacity="0.4" d="M125.7 476.1H128.7C128.7 471.4 126.8 471 126.7 464.1C126.7 457.2 128.7 457 128.7 452.2L122.2 452.3C122.2 456.5 124.4 457.3 124.4 464.2C124.4 471.1 122.2 471.1 122.2 476.1H125.7Z" fill="#D7D7D7"/>
<path opacity="0.4" d="M128 433.6C123.9 436.3 119.5 431.9 122.2 427.8C122.4 427.6 122.6 427.4 122.8 427.2C126.9 424.5 131.3 428.9 128.6 433C128.5 433.2 128.3 433.4 128 433.6Z" fill="#D7D7D7"/>
<path opacity="0.4" d="M130.7 531.2C122.4 536.8 113.5 527.8 119.1 519.6C119.4 519.2 119.7 518.9 120.1 518.6C128.4 513 137.3 522 131.7 530.2C131.5 530.6 131.1 530.9 130.7 531.2Z" fill="#D7D7D7"/>
<path opacity="0.4" d="M128 412C123.9 414.7 119.5 410.3 122.2 406.2C122.4 406 122.6 405.8 122.8 405.6C126.9 402.9 131.3 407.3 128.6 411.4C128.5 411.7 128.3 411.9 128 412Z" fill="#D7D7D7"/>
<path opacity="0.4" d="M128 498.4C123.9 501.1 119.5 496.7 122.2 492.6C122.4 492.4 122.6 492.2 122.8 492C126.9 489.3 131.3 493.7 128.6 497.8C128.5 498.1 128.3 498.3 128 498.4Z" fill="#D7D7D7"/>
<path opacity="0.4" d="M125.6 524.2C125.6 524.2 133.6 529.4 133.6 524.9C133.6 517.4 128.8 514.6 128.7 506.4C128.7 498.1 129.4 500.4 129.4 495.3C129.4 491.8 125.5 495.7 125.5 495.7C125.5 495.7 121.4 491.5 121.4 495.3C121.4 500.4 122.3 498.2 122.4 506.5C122.4 514.8 117.6 516.9 117.6 525C117.6 529.4 125.6 524.2 125.6 524.2Z" fill="#D7D7D7"/>
<path opacity="0.4" d="M713.9 609C678.4 635.1 638.8 595.5 664.9 560C665.3 559.5 665.7 559 666.2 558.7C701.7 532.6 741.3 572.2 715.2 607.7C714.8 608.2 714.4 608.7 713.9 609Z" fill="#D7D7D7"/>
<path opacity="0.4" d="M691.2 588.3C691.2 588.3 723.6 601.2 723.6 587.4C723.6 556.7 708.8 561.1 708.6 536C708.4 510.9 712.8 516.6 712.7 501.2C712.6 485.8 690.5 501.3 690.5 501.3C690.5 501.3 668.2 486 668.3 501.4C668.4 516.8 672.8 511.1 673 536.2C673.2 561.3 656.4 554.4 656.4 587.4C656.5 601.2 691.2 588.3 691.2 588.3Z" fill="#D7D7D7"/>
<path opacity="0.4" d="M929.5 407.7C905.8 425 879.5 398.7 896.8 375C897.1 374.6 897.4 374.3 897.7 374.1C921.4 356.8 947.7 383.1 930.4 406.8C930.2 407.1 929.8 407.4 929.5 407.7Z" fill="#D7D7D7"/>
<path opacity="0.4" d="M937.5 500.3C902 526.4 862.4 486.8 888.5 451.3C888.9 450.8 889.3 450.3 889.8 450C925.3 423.9 964.9 463.5 938.8 499C938.4 499.4 938 499.9 937.5 500.3Z" fill="#D7D7D7"/>
<path opacity="0.4" d="M914.7 479.5C914.7 479.5 947.1 492.4 947.1 478.6C947.1 447.9 932.3 452.3 932.1 427.2C931.9 402.1 936.3 407.8 936.2 392.4C936.1 377 914 392.5 914 392.5C914 392.5 891.7 377.2 891.8 392.6C891.9 408 896.3 402.3 896.5 427.4C896.7 452.5 879.9 445.6 879.9 478.6C880.1 492.4 914.7 479.5 914.7 479.5Z" fill="#D7D7D7"/>
<path opacity="0.4" d="M924.1 283.2C908.3 294.5 890.8 277.1 902.2 261.3C902.5 260.9 902.8 260.6 903.2 260.3C919 249 936.5 266.4 925.1 282.2C924.8 282.6 924.5 282.9 924.1 283.2Z" fill="#D7D7D7"/>
<path opacity="0.4" d="M929.4 345.6C905.7 362.7 879.4 336.4 896.5 312.7C896.9 312.2 897.3 311.7 897.9 311.3C921.6 294.2 947.9 320.5 930.8 344.2C930.4 344.7 929.9 345.2 929.4 345.6Z" fill="#D7D7D7"/>
<path opacity="0.4" d="M914.4 331.4C914.4 331.4 936.2 340.1 936.2 330.8C936.2 310.1 926.3 313.1 926.1 296.2C926 279.3 928.9 283.1 928.9 272.8C928.8 262.4 914 272.9 914 272.9C914 272.9 899 262.6 899.1 273C899.2 283.4 902.2 279.5 902.3 296.4C902.4 313.3 891.1 308.6 891.1 330.9C891 340.1 914.4 331.4 914.4 331.4Z" fill="#D7D7D7"/>
<path opacity="0.4" d="M830.9 464.4C791.7 493.6 747.7 449.6 776.9 410.4C777.2 410.1 777.5 409.7 777.8 409.5C817 380.3 861 424.3 831.8 463.5C831.6 463.9 831.3 464.2 830.9 464.4Z" fill="#D7D7D7"/>
<path opacity="0.4" d="M844.2 616.9C785.299 660.7 719.4 594.8 763.2 535.9C763.6 535.4 763.999 535 764.499 534.6C823.399 490.8 889.299 556.7 845.499 615.6C845.199 616.1 844.7 616.6 844.2 616.9Z" fill="#D7D7D7"/>
<path opacity="0.4" d="M806.3 583.1C806.3 583.1 859.7 604.3 859.7 581.7C859.7 531 835.3 538.4 835 497C834.7 455.6 841.9 465 841.8 439.6C841.6 414.2 805.3 439.8 805.3 439.8C805.3 439.8 768.6 414.5 768.8 440C769 465.4 776.3 455.9 776.6 497.4C776.9 538.8 749.2 527.4 749.2 581.8C749.1 604.3 806.3 583.1 806.3 583.1Z" fill="#D7D7D7"/>
<path opacity="0.4" d="M125.1 611.4C130.844 611.4 135.5 606.744 135.5 601C135.5 595.256 130.844 590.6 125.1 590.6C119.356 590.6 114.7 595.256 114.7 601C114.7 606.744 119.356 611.4 125.1 611.4Z" fill="#D7D7D7"/>
<path opacity="0.4" d="M237.6 644C244.393 644 249.9 638.493 249.9 631.7C249.9 624.907 244.393 619.4 237.6 619.4C230.807 619.4 225.3 624.907 225.3 631.7C225.3 638.493 230.807 644 237.6 644Z" fill="#D7D7D7"/>
<path opacity="0.4" d="M13.5 644C20.9558 644 27 637.956 27 630.5C27 623.044 20.9558 617 13.5 617C6.04416 617 0 623.044 0 630.5C0 637.956 6.04416 644 13.5 644Z" fill="#D7D7D7"/>
<path opacity="0.4" d="M237.6 556.8C241.797 556.8 245.2 553.397 245.2 549.2C245.2 545.003 241.797 541.6 237.6 541.6C233.403 541.6 230 545.003 230 549.2C230 553.397 233.403 556.8 237.6 556.8Z" fill="#D7D7D7"/>
<path opacity="0.4" d="M351.4 546.3C356.702 546.3 361 542.002 361 536.7C361 531.398 356.702 527.1 351.4 527.1C346.098 527.1 341.8 531.398 341.8 536.7C341.8 542.002 346.098 546.3 351.4 546.3Z" fill="#D7D7D7"/>
<path opacity="0.4" d="M351.4 516.4C355.321 516.4 358.5 513.221 358.5 509.3C358.5 505.379 355.321 502.2 351.4 502.2C347.479 502.2 344.3 505.379 344.3 509.3C344.3 513.221 347.479 516.4 351.4 516.4Z" fill="#D7D7D7"/>
<path opacity="0.4" d="M351.4 492.1C355.321 492.1 358.5 488.921 358.5 485C358.5 481.079 355.321 477.9 351.4 477.9C347.479 477.9 344.3 481.079 344.3 485C344.3 488.921 347.479 492.1 351.4 492.1Z" fill="#D7D7D7"/>
<path opacity="0.4" d="M351.4 467.3C355.321 467.3 358.5 464.121 358.5 460.2C358.5 456.279 355.321 453.1 351.4 453.1C347.479 453.1 344.3 456.279 344.3 460.2C344.3 464.121 347.479 467.3 351.4 467.3Z" fill="#D7D7D7"/>
<path opacity="0.4" d="M351.4 438.8C353.002 438.8 354.3 437.502 354.3 435.9C354.3 434.299 353.002 433 351.4 433C349.798 433 348.5 434.299 348.5 435.9C348.5 437.502 349.798 438.8 351.4 438.8Z" fill="#D7D7D7"/>
<path opacity="0.4" d="M351.4 414.4C353.002 414.4 354.3 413.102 354.3 411.5C354.3 409.898 353.002 408.6 351.4 408.6C349.798 408.6 348.5 409.898 348.5 411.5C348.5 413.102 349.798 414.4 351.4 414.4Z" fill="#D7D7D7"/>
<path opacity="0.4" d="M351.4 390.1C353.002 390.1 354.3 388.802 354.3 387.2C354.3 385.598 353.002 384.3 351.4 384.3C349.798 384.3 348.5 385.598 348.5 387.2C348.5 388.802 349.798 390.1 351.4 390.1Z" fill="#D7D7D7"/>
<path opacity="0.4" d="M351.4 365.7C353.002 365.7 354.3 364.402 354.3 362.8C354.3 361.198 353.002 359.9 351.4 359.9C349.798 359.9 348.5 361.198 348.5 362.8C348.5 364.402 349.798 365.7 351.4 365.7Z" fill="#D7D7D7"/>
<path opacity="0.4" d="M351.4 341.4C353.002 341.4 354.3 340.102 354.3 338.5C354.3 336.898 353.002 335.6 351.4 335.6C349.798 335.6 348.5 336.898 348.5 338.5C348.5 340.102 349.798 341.4 351.4 341.4Z" fill="#D7D7D7"/>
<path opacity="0.4" d="M13.4996 501.8C15.1012 501.8 16.3996 500.502 16.3996 498.9C16.3996 497.299 15.1012 496 13.4996 496C11.898 496 10.5996 497.299 10.5996 498.9C10.5996 500.502 11.898 501.8 13.4996 501.8Z" fill="#D7D7D7"/>
<path opacity="0.4" d="M13.4996 477.5C15.1012 477.5 16.3996 476.202 16.3996 474.6C16.3996 472.998 15.1012 471.7 13.4996 471.7C11.898 471.7 10.5996 472.998 10.5996 474.6C10.5996 476.202 11.898 477.5 13.4996 477.5Z" fill="#D7D7D7"/>
<path opacity="0.4" d="M13.4996 453.1C15.1012 453.1 16.3996 451.802 16.3996 450.2C16.3996 448.598 15.1012 447.3 13.4996 447.3C11.898 447.3 10.5996 448.598 10.5996 450.2C10.5996 451.802 11.898 453.1 13.4996 453.1Z" fill="#D7D7D7"/>
<path opacity="0.4" d="M13.4996 428.7C15.1012 428.7 16.3996 427.402 16.3996 425.8C16.3996 424.198 15.1012 422.9 13.4996 422.9C11.898 422.9 10.5996 424.198 10.5996 425.8C10.5996 427.402 11.898 428.7 13.4996 428.7Z" fill="#D7D7D7"/>
<path opacity="0.4" d="M13.4996 404.4C15.1012 404.4 16.3996 403.102 16.3996 401.5C16.3996 399.898 15.1012 398.6 13.4996 398.6C11.898 398.6 10.5996 399.898 10.5996 401.5C10.5996 403.102 11.898 404.4 13.4996 404.4Z" fill="#D7D7D7"/>
<path opacity="0.4" d="M574.5 356.4C576.101 356.4 577.4 355.102 577.4 353.5C577.4 351.898 576.101 350.6 574.5 350.6C572.898 350.6 571.6 351.898 571.6 353.5C571.6 355.102 572.898 356.4 574.5 356.4Z" fill="#D7D7D7"/>
<path opacity="0.4" d="M574.5 332.1C576.101 332.1 577.4 330.802 577.4 329.2C577.4 327.598 576.101 326.3 574.5 326.3C572.898 326.3 571.6 327.598 571.6 329.2C571.6 330.802 572.898 332.1 574.5 332.1Z" fill="#D7D7D7"/>
<path opacity="0.4" d="M574.5 307.7C576.101 307.7 577.4 306.402 577.4 304.8C577.4 303.198 576.101 301.9 574.5 301.9C572.898 301.9 571.6 303.198 571.6 304.8C571.6 306.402 572.898 307.7 574.5 307.7Z" fill="#D7D7D7"/>
<path opacity="0.4" d="M574.5 283.4C576.101 283.4 577.4 282.102 577.4 280.5C577.4 278.898 576.101 277.6 574.5 277.6C572.898 277.6 571.6 278.898 571.6 280.5C571.6 282.102 572.898 283.4 574.5 283.4Z" fill="#D7D7D7"/>
<path opacity="0.4" d="M574.5 259C576.101 259 577.4 257.702 577.4 256.1C577.4 254.498 576.101 253.2 574.5 253.2C572.898 253.2 571.6 254.498 571.6 256.1C571.6 257.702 572.898 259 574.5 259Z" fill="#D7D7D7"/>
<path opacity="0.4" d="M690 321.9C691.601 321.9 692.9 320.602 692.9 319C692.9 317.398 691.601 316.1 690 316.1C688.398 316.1 687.1 317.398 687.1 319C687.1 320.602 688.398 321.9 690 321.9Z" fill="#D7D7D7"/>
<path opacity="0.4" d="M690 297.6C691.601 297.6 692.9 296.302 692.9 294.7C692.9 293.098 691.601 291.8 690 291.8C688.398 291.8 687.1 293.098 687.1 294.7C687.1 296.302 688.398 297.6 690 297.6Z" fill="#D7D7D7"/>
<path opacity="0.4" d="M690 273.2C691.601 273.2 692.9 271.902 692.9 270.3C692.9 268.698 691.601 267.4 690 267.4C688.398 267.4 687.1 268.698 687.1 270.3C687.1 271.902 688.398 273.2 690 273.2Z" fill="#D7D7D7"/>
<path opacity="0.4" d="M690 248.8C691.601 248.8 692.9 247.502 692.9 245.9C692.9 244.299 691.601 243 690 243C688.398 243 687.1 244.299 687.1 245.9C687.1 247.502 688.398 248.8 690 248.8Z" fill="#D7D7D7"/>
<path opacity="0.4" d="M690 224.5C691.601 224.5 692.9 223.202 692.9 221.6C692.9 219.998 691.601 218.7 690 218.7C688.398 218.7 687.1 219.998 687.1 221.6C687.1 223.202 688.398 224.5 690 224.5Z" fill="#D7D7D7"/>
<path opacity="0.4" d="M800.9 37.2001C802.502 37.2001 803.8 35.9017 803.8 34.3C803.8 32.6984 802.502 31.4 800.9 31.4C799.298 31.4 798 32.6984 798 34.3C798 35.9017 799.298 37.2001 800.9 37.2001Z" fill="#D7D7D7"/>
<path opacity="0.4" d="M800.9 12.9C802.502 12.9 803.8 11.6016 803.8 10C803.8 8.39837 802.502 7.1001 800.9 7.1001C799.298 7.1001 798 8.39837 798 10C798 11.6016 799.298 12.9 800.9 12.9Z" fill="#D7D7D7"/>
<path opacity="0.4" d="M237.6 531.6C241.797 531.6 245.2 528.197 245.2 524C245.2 519.803 241.797 516.4 237.6 516.4C233.403 516.4 230 519.803 230 524C230 528.197 233.403 531.6 237.6 531.6Z" fill="#D7D7D7"/>
<path opacity="0.4" d="M237.6 502.4C239.202 502.4 240.5 501.102 240.5 499.5C240.5 497.898 239.202 496.6 237.6 496.6C235.999 496.6 234.7 497.898 234.7 499.5C234.7 501.102 235.999 502.4 237.6 502.4Z" fill="#D7D7D7"/>
<path opacity="0.4" d="M237.6 478C239.202 478 240.5 476.702 240.5 475.1C240.5 473.498 239.202 472.2 237.6 472.2C235.999 472.2 234.7 473.498 234.7 475.1C234.7 476.702 235.999 478 237.6 478Z" fill="#D7D7D7"/>
<path opacity="0.4" d="M237.6 433.3C239.202 433.3 240.5 432.002 240.5 430.4C240.5 428.799 239.202 427.5 237.6 427.5C235.999 427.5 234.7 428.799 234.7 430.4C234.7 432.002 235.999 433.3 237.6 433.3Z" fill="#D7D7D7"/>
<path opacity="0.4" d="M464.1 638.3C482.601 638.3 497.6 623.302 497.6 604.8C497.6 586.299 482.601 571.3 464.1 571.3C445.598 571.3 430.6 586.299 430.6 604.8C430.6 623.302 445.598 638.3 464.1 638.3Z" fill="#D7D7D7"/>
<path opacity="0.4" d="M464.1 556.8C476.029 556.8 485.7 547.129 485.7 535.2C485.7 523.271 476.029 513.6 464.1 513.6C452.171 513.6 442.5 523.271 442.5 535.2C442.5 547.129 452.171 556.8 464.1 556.8Z" fill="#D7D7D7"/>
<path opacity="0.4" d="M574.5 554.9C586.43 554.9 596.1 545.229 596.1 533.3C596.1 521.371 586.43 511.7 574.5 511.7C562.571 511.7 552.9 521.371 552.9 533.3C552.9 545.229 562.571 554.9 574.5 554.9Z" fill="#D7D7D7"/>
<path opacity="0.4" d="M802.1 304.8C814.029 304.8 823.7 295.129 823.7 283.2C823.7 271.271 814.029 261.6 802.1 261.6C790.171 261.6 780.5 271.271 780.5 283.2C780.5 295.129 790.171 304.8 802.1 304.8Z" fill="#D7D7D7"/>
<path opacity="0.4" d="M803.1 385C821.933 385 837.2 369.733 837.2 350.9C837.2 332.067 821.933 316.8 803.1 316.8C784.267 316.8 769 332.067 769 350.9C769 369.733 784.267 385 803.1 385Z" fill="#D7D7D7"/>
<path opacity="0.4" d="M574.5 498.4C581.624 498.4 587.4 492.624 587.4 485.5C587.4 478.376 581.624 472.6 574.5 472.6C567.375 472.6 561.6 478.376 561.6 485.5C561.6 492.624 567.375 498.4 574.5 498.4Z" fill="#D7D7D7"/>
<path opacity="0.4" d="M802.1 247C809.225 247 815 241.225 815 234.1C815 226.976 809.225 221.2 802.1 221.2C794.976 221.2 789.2 226.976 789.2 234.1C789.2 241.225 794.976 247 802.1 247Z" fill="#D7D7D7"/>
<path opacity="0.4" d="M913.6 248C920.725 248 926.5 242.225 926.5 235.1C926.5 227.976 920.725 222.2 913.6 222.2C906.476 222.2 900.7 227.976 900.7 235.1C900.7 242.225 906.476 248 913.6 248Z" fill="#D7D7D7"/>
<path opacity="0.4" d="M574.5 411.5C578.698 411.5 582.1 408.098 582.1 403.9C582.1 399.703 578.698 396.3 574.5 396.3C570.303 396.3 566.9 399.703 566.9 403.9C566.9 408.098 570.303 411.5 574.5 411.5Z" fill="#D7D7D7"/>
<path opacity="0.4" d="M574.5 385.9C578.698 385.9 582.1 382.497 582.1 378.3C582.1 374.103 578.698 370.7 574.5 370.7C570.303 370.7 566.9 374.103 566.9 378.3C566.9 382.497 570.303 385.9 574.5 385.9Z" fill="#D7D7D7"/>
<path opacity="0.4" d="M690 351.3C694.198 351.3 697.6 347.897 697.6 343.7C697.6 339.503 694.198 336.1 690 336.1C685.803 336.1 682.4 339.503 682.4 343.7C682.4 347.897 685.803 351.3 690 351.3Z" fill="#D7D7D7"/>
<path opacity="0.4" d="M913.6 103.3C915.202 103.3 916.5 102.002 916.5 100.4C916.5 98.7984 915.202 97.5 913.6 97.5C911.999 97.5 910.7 98.7984 910.7 100.4C910.7 102.002 911.999 103.3 913.6 103.3Z" fill="#D7D7D7"/>
<path opacity="0.4" d="M913.6 78.9C915.202 78.9 916.5 77.6016 916.5 76C916.5 74.3984 915.202 73.1001 913.6 73.1001C911.999 73.1001 910.7 74.3984 910.7 76C910.7 77.6016 911.999 78.9 913.6 78.9Z" fill="#D7D7D7"/>
<path opacity="0.4" d="M913.6 54.6001C915.202 54.6001 916.5 53.3017 916.5 51.7001C916.5 50.0984 915.202 48.8 913.6 48.8C911.999 48.8 910.7 50.0984 910.7 51.7001C910.7 53.3017 911.999 54.6001 913.6 54.6001Z" fill="#D7D7D7"/>
<path opacity="0.4" d="M913.6 30.2001C915.202 30.2001 916.5 28.9017 916.5 27.3C916.5 25.6984 915.202 24.4 913.6 24.4C911.999 24.4 910.7 25.6984 910.7 27.3C910.7 28.9017 911.999 30.2001 913.6 30.2001Z" fill="#D7D7D7"/>
<path opacity="0.4" d="M913.6 5.80005C915.202 5.80005 916.5 4.50165 916.5 2.90002C916.5 1.2984 915.202 0 913.6 0C911.999 0 910.7 1.2984 910.7 2.90002C910.7 4.50165 911.999 5.80005 913.6 5.80005Z" fill="#D7D7D7"/>
<path opacity="0.4" d="M913.6 132.6C917.797 132.6 921.2 129.197 921.2 125C921.2 120.803 917.797 117.4 913.6 117.4C909.403 117.4 906 120.803 906 125C906 129.197 909.403 132.6 913.6 132.6Z" fill="#D7D7D7"/>
<path opacity="0.4" d="M690 376.1C694.198 376.1 697.6 372.697 697.6 368.5C697.6 364.303 694.198 360.9 690 360.9C685.803 360.9 682.4 364.303 682.4 368.5C682.4 372.697 685.803 376.1 690 376.1Z" fill="#D7D7D7"/>
<path opacity="0.4" d="M690 401C694.198 401 697.6 397.598 697.6 393.4C697.6 389.203 694.198 385.8 690 385.8C685.803 385.8 682.4 389.203 682.4 393.4C682.4 397.598 685.803 401 690 401Z" fill="#D7D7D7"/>
<path opacity="0.4" d="M690 429.8C695.081 429.8 699.2 425.681 699.2 420.6C699.2 415.519 695.081 411.4 690 411.4C684.919 411.4 680.8 415.519 680.8 420.6C680.8 425.681 684.919 429.8 690 429.8Z" fill="#D7D7D7"/>
<path opacity="0.4" d="M800.9 212.2C805.981 212.2 810.1 208.081 810.1 203C810.1 197.919 805.981 193.8 800.9 193.8C795.819 193.8 791.7 197.919 791.7 203C791.7 208.081 795.819 212.2 800.9 212.2Z" fill="#D7D7D7"/>
<path opacity="0.4" d="M800.9 183.7C804.766 183.7 807.9 180.566 807.9 176.7C807.9 172.834 804.766 169.7 800.9 169.7C797.034 169.7 793.9 172.834 793.9 176.7C793.9 180.566 797.034 183.7 800.9 183.7Z" fill="#D7D7D7"/>
<path opacity="0.4" d="M913.6 158.6C917.466 158.6 920.6 155.466 920.6 151.6C920.6 147.734 917.466 144.6 913.6 144.6C909.734 144.6 906.6 147.734 906.6 151.6C906.6 155.466 909.734 158.6 913.6 158.6Z" fill="#D7D7D7"/>
<path opacity="0.4" d="M800.9 159.2C804.766 159.2 807.9 156.066 807.9 152.2C807.9 148.334 804.766 145.2 800.9 145.2C797.034 145.2 793.9 148.334 793.9 152.2C793.9 156.066 797.034 159.2 800.9 159.2Z" fill="#D7D7D7"/>
<path opacity="0.4" d="M690 464.4C697.566 464.4 703.7 458.266 703.7 450.7C703.7 443.134 697.566 437 690 437C682.434 437 676.3 443.134 676.3 450.7C676.3 458.266 682.434 464.4 690 464.4Z" fill="#D7D7D7"/>
<path opacity="0.4" d="M464.1 503.6C471.225 503.6 477 497.824 477 490.7C477 483.575 471.225 477.8 464.1 477.8C456.976 477.8 451.2 483.575 451.2 490.7C451.2 497.824 456.976 503.6 464.1 503.6Z" fill="#D7D7D7"/>
<path opacity="0.4" d="M464.1 469.8C469.402 469.8 473.7 465.502 473.7 460.2C473.7 454.898 469.402 450.6 464.1 450.6C458.798 450.6 454.5 454.898 454.5 460.2C454.5 465.502 458.798 469.8 464.1 469.8Z" fill="#D7D7D7"/>
<path opacity="0.4" d="M464.1 440.9C468.021 440.9 471.2 437.721 471.2 433.8C471.2 429.879 468.021 426.7 464.1 426.7C460.179 426.7 457 429.879 457 433.8C457 437.721 460.179 440.9 464.1 440.9Z" fill="#D7D7D7"/>
<path opacity="0.4" d="M464.1 415.8C468.021 415.8 471.2 412.621 471.2 408.7C471.2 404.779 468.021 401.6 464.1 401.6C460.179 401.6 457 404.779 457 408.7C457 412.621 460.179 415.8 464.1 415.8Z" fill="#D7D7D7"/>
<path opacity="0.4" d="M125.1 581.5C129.297 581.5 132.7 578.098 132.7 573.9C132.7 569.703 129.297 566.3 125.1 566.3C120.903 566.3 117.5 569.703 117.5 573.9C117.5 578.098 120.903 581.5 125.1 581.5Z" fill="#D7D7D7"/>
<path opacity="0.4" d="M125.1 556.4C129.297 556.4 132.7 552.997 132.7 548.8C132.7 544.603 129.297 541.2 125.1 541.2C120.903 541.2 117.5 544.603 117.5 548.8C117.5 552.997 120.903 556.4 125.1 556.4Z" fill="#D7D7D7"/>
<path opacity="0.4" d="M13.4996 611.4C19.2434 611.4 23.8996 606.744 23.8996 601C23.8996 595.256 19.2434 590.6 13.4996 590.6C7.75585 590.6 3.09961 595.256 3.09961 601C3.09961 606.744 7.75585 611.4 13.4996 611.4Z" fill="#D7D7D7"/>
<path opacity="0.4" d="M13.5004 581.5C17.6978 581.5 21.1004 578.098 21.1004 573.9C21.1004 569.703 17.6978 566.3 13.5004 566.3C9.30303 566.3 5.90039 569.703 5.90039 573.9C5.90039 578.098 9.30303 581.5 13.5004 581.5Z" fill="#D7D7D7"/>
<path opacity="0.4" d="M13.5004 556.4C17.6978 556.4 21.1004 552.997 21.1004 548.8C21.1004 544.603 17.6978 541.2 13.5004 541.2C9.30303 541.2 5.90039 544.603 5.90039 548.8C5.90039 552.997 9.30303 556.4 13.5004 556.4Z" fill="#D7D7D7"/>
<path opacity="0.4" d="M13.5004 530.4C17.6978 530.4 21.1004 526.997 21.1004 522.8C21.1004 518.603 17.6978 515.2 13.5004 515.2C9.30303 515.2 5.90039 518.603 5.90039 522.8C5.90039 526.997 9.30303 530.4 13.5004 530.4Z" fill="#D7D7D7"/>
</g>
</svg>
