<svg width="152" height="73" viewBox="0 0 152 73" fill="none" xmlns="http://www.w3.org/2000/svg">
<path d="M42.4999 18.7004C61.2999 44.2004 32.7999 72.7001 7.29989 53.9001C6.99989 53.6001 6.69989 53.3002 6.39989 53.0002C-12.4001 27.5002 16.0999 -0.999983 41.5999 17.8C41.8999 18 42.1999 18.3004 42.4999 18.7004Z" fill="white"/>
<path d="M142.2 10.6002C170.4 48.9002 127.7 91.7001 89.3 63.5001C88.8 63.1001 88.4 62.7003 88 62.2003C59.8 23.9003 102.5 -18.9001 140.9 9.29988C141.4 9.59988 141.9 10.1002 142.2 10.6002Z" fill="white"/>
<path d="M119.9 35.1001C119.9 35.1001 133.8 0.200195 119 0.200195C85.9 0.200195 90.7 16.0998 63.6 16.2998C36.5 16.4998 42.7 11.7999 26.1 11.8999C9.49999 11.9999 26.2 35.7998 26.2 35.7998C26.2 35.7998 9.69997 59.8002 26.3 59.7002C42.9 59.6002 36.7 54.8001 63.8 54.6001C90.9 54.4001 83.4 72.5 119 72.5C133.8 72.5 119.9 35.1001 119.9 35.1001Z" fill="white"/>
</svg>
