<svg width="126" height="50" viewBox="0 0 126 50" fill="none" xmlns="http://www.w3.org/2000/svg">
<path d="M21.1 16.6002C30.4 29.3002 16.2 43.5 3.50004 34.2C3.30004 34.1 3.10004 33.9 3.00004 33.7C-6.29996 21 7.90005 6.80016 20.6 16.1002C20.8 16.2002 20.9 16.4002 21.1 16.6002Z" fill="white"/>
<path d="M119.1 7.49979C137.9 32.9998 109.4 61.5 83.9 42.7C83.6 42.4 83.3 42.0996 83 41.7996C64.2 16.2996 92.7 -12.2001 118.2 6.59989C118.5 6.79989 118.8 7.09979 119.1 7.49979Z" fill="white"/>
<path d="M98.8999 25C98.8999 25 114.5 1 101 1C78.4999 1 69.9999 15.5001 45.3999 15.6001C20.5999 15.7001 27.1999 13.6001 11.9999 13.6001C1.3999 13.6001 13.0999 25.3999 13.0999 25.3999C13.0999 25.3999 0.499904 37.7 11.9999 37.7C27.1999 37.7 20.7999 34.9 45.4999 34.8C70.2999 34.7001 76.7999 49.2002 100.9 49.2002C114.5 49.3002 98.8999 25 98.8999 25Z" fill="white"/>
</svg>
