<svg width="152" height="74" viewBox="0 0 152 74" fill="none" xmlns="http://www.w3.org/2000/svg">
<path d="M42.4999 19.9998C61.2999 45.4998 32.7999 73.9997 7.29989 55.1997C6.99989 54.8997 6.69989 54.5998 6.39989 54.2998C-12.4001 28.7998 16.0999 0.299854 41.5999 19.0999C41.8999 19.2999 42.1999 19.6998 42.4999 19.9998Z" fill="white"/>
<path d="M142.2 11.3996C170.4 49.6996 127.7 92.4997 89.3 64.2997C88.8 63.8997 88.4 63.4996 88 62.9996C59.8 24.6996 102.5 -18.1003 140.9 10.0997C141.4 10.3997 141.9 10.8996 142.2 11.3996Z" fill="white"/>
<path d="M119.9 35.8999C119.9 35.8999 133.8 1 119 1C85.9 1 90.7 16.9001 63.6 17.1001C36.5 17.3001 42.7 12.6 26.1 12.7C9.49999 12.8 26.2 36.6001 26.2 36.6001C26.2 36.6001 9.69997 60.6 26.3 60.5C42.9 60.4 36.7 55.5999 63.8 55.3999C90.9 55.1999 83.4 73.3 119 73.3C133.8 73.3 119.9 35.8999 119.9 35.8999Z" fill="white"/>
</svg>
