<svg width="139" height="50" viewBox="0 0 139 50" fill="none" xmlns="http://www.w3.org/2000/svg">
<path d="M43.1 7.90011C61.9 33.4001 33.4 61.9003 7.89999 43.1003C7.59999 42.8003 7.29999 42.5004 6.99999 42.2004C-11.8 16.7004 16.7 -11.7998 42.2 7.00021C42.5 7.30021 42.8 7.60011 43.1 7.90011Z" fill="white"/>
<path d="M132.5 7.90011C151.3 33.4001 122.8 61.9003 97.2999 43.1003C96.9999 42.8003 96.6999 42.5004 96.3999 42.2004C77.5999 16.7004 106.1 -11.7998 131.6 7.00021C131.9 7.30021 132.2 7.60011 132.5 7.90011Z" fill="white"/>
<path d="M114.2 1C91.6999 1 94.5999 13.0001 69.9999 13.1001C45.1999 13.2001 40.1999 1 24.9999 1C14.3999 1 13.4999 49.2998 24.9999 49.2998C40.1999 49.2998 45.2999 37.3002 69.9999 37.2002C94.6999 37.1002 89.9999 49.2998 114.2 49.2998C127.7 49.1998 127.7 1 114.2 1Z" fill="white"/>
</svg>
