<svg width="114" height="25" viewBox="0 0 114 25" fill="none" xmlns="http://www.w3.org/2000/svg">
<path d="M21.1 3.60013C30.4 16.3001 16.2 30.5002 3.50004 21.2002C3.30004 21.1002 3.10004 20.9002 3.00004 20.7002C-6.29996 8.00023 7.90004 -6.19987 20.6 3.10013C20.8 3.20013 21 3.40013 21.1 3.60013Z" fill="white"/>
<path d="M110.1 3.60013C119.4 16.3001 105.2 30.5002 92.5 21.2002C92.3 21.1002 92.1 20.9002 92 20.7002C82.7 8.00023 96.9 -6.19987 109.6 3.10013C109.8 3.20013 109.9 3.40013 110.1 3.60013Z" fill="white"/>
<path d="M100.9 11L101 0C83.6 0 82 7.1998 56.4 7.2998C30.8 7.3998 29.9 0 12 0L12.2 24.1001C27.9 24.1001 30.9 15.9999 56.5 15.8999C82.1 15.7999 82.3 24.1001 100.9 24.1001V11Z" fill="white"/>
</svg>
