<svg width="127" height="50" viewBox="0 0 127 50" fill="none" xmlns="http://www.w3.org/2000/svg">
<path d="M120.1 8.3999C119.8 8.0999 119.5 7.8 119.2 7.5C114.6 4.1 109.9 2.3002 105.4 1.7002C104.6 1.2002 103.5 0.899902 102 0.899902C79.5 0.899902 71 15.4 46.4 15.5C21.6 15.6 28.2 13.5 13 13.5C12 13.5 11.2 13.5998 10.6 13.7998C2.49999 15.4998 -2.60001 25.2002 3.99999 34.2002C4.09999 34.4002 4.29999 34.6002 4.49999 34.7002C7.69999 37.1002 11 37.9002 14 37.7002C27.9 37.6002 22.3 34.8998 46.5 34.7998C68.7 34.6998 76.2 46.2998 94.9 48.7998C117 54.9998 136.4 30.5999 120.1 8.3999Z" fill="white"/>
</svg>
