<svg width="153" height="75" viewBox="0 0 153 75" fill="none" xmlns="http://www.w3.org/2000/svg">
<path d="M143.2 11.6C142.8 11.1 142.4 10.6997 141.9 10.2997C135.5 5.59975 129 2.89975 122.7 1.79975C121.9 1.49975 121 1.29975 120 1.29975C119.6 1.29975 119.1 1.29975 118.7 1.29975C114.8 0.99975 111.1 1.40014 107.6 2.20014C87.6001 5.60014 87.7001 17.1998 64.7001 17.3998C38.5001 17.5998 43.4001 13.1999 28.7001 12.9999C8.30014 10.3999 -7.99987 33.2 7.40013 54.1C7.70013 54.4 8.00012 54.6999 8.30012 54.9999C15.5001 60.2999 23.0001 61.8001 29.5001 60.7001C43.5001 60.2001 39.0001 55.8001 64.9001 55.7001C88.2001 55.5001 85.9001 68.9 107.5 72.6C111.3 73.5 115 73.7999 118.6 73.4999C119.1 73.4999 119.6 73.4999 120.1 73.4999C121.1 73.4999 122 73.2999 122.8 72.9999C147.4 68.4999 163.3 38.9 143.2 11.6Z" stroke="white" stroke-miterlimit="10"/>
</svg>
