<svg width="127" height="50" viewBox="0 0 127 50" fill="none" xmlns="http://www.w3.org/2000/svg">
<path d="M120.1 7.4999C119.8 7.1999 119.5 6.9 119.2 6.6C110.9 0.500002 102.4 -0.600095 95.2 1.4999C77.5 3.9999 68.4 15.5 46.5 15.6C24 15.7 27.4 14.0001 16.9 13.7001C5.8 10.4001 -4.09999 22.5997 4.10001 33.7997C4.20001 33.9997 4.40001 34.1997 4.60001 34.2997C6.00001 35.2997 7.5 36.1 8.9 36.6C9.6 37.4 10.9 37.8998 13.2 37.8998C28.4 37.8998 22 35.0999 46.7 34.9999C71.4 34.8999 78 49.3998 102.1 49.3998C103.5 49.3998 104.6 49.1001 105.4 48.7001C122.3 46.2001 133.7 26.0999 120.1 7.4999Z" stroke="white" stroke-miterlimit="10"/>
</svg>
