<svg width="124" height="65" viewBox="0 0 124 65" fill="none" xmlns="http://www.w3.org/2000/svg">
<path d="M70 17.5001V16.0001L71.3 15.7001V6.9001L70 6.6001V5.1001H71.3H73.8H75.1V6.6001L73.8 6.9001V15.5001H77.3L77.4 14.0001H79.3V17.4001H70V17.5001Z" fill="white"/>
<path d="M93.5 5.2001V6.7001L92.2 7.0001V17.5001H89.7L84.7 9.2001H84.6V15.7001L86 16.0001V17.5001H80.9V16.0001L82.2 15.7001V6.9001L80.9 6.6001V5.1001H82.2H84.7L89.7 13.4001H89.8V6.9001L88.5 6.6001V5.1001H92.3H93.5V5.2001Z" fill="white"/>
<path d="M105 16.1001C104.6 16.5001 104 16.8001 103.3 17.2001C102.5 17.5001 101.6 17.7001 100.4 17.7001C98.7 17.7001 97.4 17.1001 96.4 16.0001C95.4 14.9001 94.8 13.4001 94.8 11.7001V11.3001C94.8 9.5001 95.3 8.0001 96.3 6.8001C97.3 5.6001 98.7 5.1001 100.3 5.1001C101.3 5.1001 102.1 5.3001 102.9 5.6001C103.7 5.9001 104.4 6.3001 104.9 6.8001V9.3001H103.1L102.8 7.7001C102.6 7.5001 102.3 7.4001 101.9 7.2001C101.5 7.1001 101.1 7.0001 100.6 7.0001C99.5 7.0001 98.7 7.4001 98.1 8.2001C97.5 9.0001 97.2 10.0001 97.2 11.3001V11.7001C97.2 12.9001 97.5 13.9001 98.1 14.7001C98.7 15.4001 99.5 15.8001 100.6 15.8001C101.1 15.8001 101.5 15.8001 101.8 15.7001C102.1 15.6001 102.3 15.5001 102.5 15.4001V13.3001L100.7 13.2001V11.5001H104.9V16.1001H105Z" fill="white"/>
<path d="M70.3 27.2001V26.4001H74.1V27.2001L72.7 27.3001V37.9001L74 38.0001V38.7001H70.2V38.0001L71.6 37.9001V27.3001L70.3 27.2001Z" fill="white"/>
<path d="M75.4 38.0001L76.8 37.9001V30.5001L75.4 30.4001V29.6001H77.7L77.8 31.2001C78.1 30.6001 78.5 30.2001 79 29.9001C79.5 29.6001 80.1 29.4001 80.8 29.4001C81.8 29.4001 82.5 29.7001 83.1 30.3001C83.6 30.9001 83.9 31.8001 83.9 33.1001V37.8001L85.3 37.9001V38.6001H81.5V38.0001L82.9 37.9001V33.2001C82.9 32.2001 82.7 31.4001 82.3 31.0001C81.9 30.6001 81.4 30.4001 80.6 30.4001C79.9 30.4001 79.3 30.6001 78.9 31.0001C78.5 31.4001 78.1 31.9001 77.9 32.5001V38.0001L79.3 38.1001V38.8001H75.5V38.0001H75.4Z" fill="white"/>
<path d="M88.4 30.4001L87.3 30.5001L89.6 36.5001L89.9 37.6001H90L90.3 36.5001L92.5 30.5001L91.4 30.4001V29.6001H94.5V30.4001L93.6 30.5001L90.4 38.8001H89.6L86.4 30.5001L85.5 30.4001V29.6001H88.6V30.4001H88.4Z" fill="white"/>
<path d="M99 38.9C97.9 38.9 96.9 38.5 96.2 37.6C95.4 36.8 95.1 35.7 95.1 34.4V34C95.1 32.7 95.5 31.6 96.2 30.8C97 29.9 97.9 29.5 98.9 29.5C100 29.5 100.9 29.9 101.5 30.6C102.1 31.3 102.5 32.3 102.5 33.4V34.3H96V34.5C96 35.5 96.3 36.4 96.8 37.1C97.3 37.8 98.1 38.1 99 38.1C99.6 38.1 100.2 38 100.6 37.8C101 37.6 101.4 37.4 101.7 37L102.1 37.7C101.8 38.1 101.3 38.3 100.8 38.6C100.3 38.8 99.7 38.9 99 38.9ZM98.8 30.3C98.1 30.3 97.4 30.6 96.9 31.2C96.4 31.8 96.1 32.5 96 33.3H101.3V33C101.3 32.2 101.1 31.5 100.6 31C100.3 30.6 99.6 30.3 98.8 30.3Z" fill="white"/>
<path d="M110.5 32.4H109.7L109.6 31.1C109.3 30.8 109 30.6 108.6 30.5C108.2 30.4 107.8 30.3 107.3 30.3C106.6 30.3 106 30.5 105.6 30.8C105.2 31.1 105 31.5 105 31.9C105 32.3 105.2 32.7 105.5 32.9C105.8 33.2 106.5 33.4 107.4 33.6C108.5 33.8 109.3 34.2 109.8 34.6C110.3 35 110.6 35.6 110.6 36.3C110.6 37.1 110.3 37.7 109.7 38.1C109.1 38.6 108.3 38.8 107.3 38.8C106.6 38.8 106 38.7 105.5 38.5C104.9 38.3 104.5 38 104.1 37.7V36H104.9L105 37.3C105.3 37.6 105.6 37.8 106 37.9C106.4 38 106.8 38.1 107.3 38.1C108 38.1 108.6 37.9 109 37.6C109.4 37.3 109.6 36.9 109.6 36.4C109.6 36 109.4 35.6 109.1 35.3C108.7 35 108.1 34.7 107.2 34.5C106.1 34.3 105.3 34 104.8 33.6C104.3 33.2 104 32.7 104 32C104 31.3 104.3 30.7 104.9 30.2C105.5 29.7 106.3 29.5 107.2 29.5C107.9 29.5 108.5 29.6 109 29.8C109.6 30 110 30.3 110.4 30.6L110.5 32.4Z" fill="white"/>
<path d="M114.6 27.3V29.6H116.6V30.4H114.6V36.3C114.6 36.9 114.7 37.3 114.9 37.6C115.1 37.9 115.4 38 115.8 38C116 38 116.1 38 116.3 38C116.5 38 116.6 38 116.8 37.9L117 38.7C116.8 38.8 116.6 38.8 116.4 38.9C116.2 38.9 115.9 39 115.7 39C115.1 39 114.6 38.8 114.2 38.4C113.8 38 113.7 37.4 113.7 36.5V30.6H112V29.8H113.6V27.5H114.6V27.3Z" fill="white"/>
<path d="M75.3 47.7001C76.6 47.7001 77.6 48.0001 78.3 48.7001C79 49.4001 79.4 50.2001 79.4 51.3001C79.4 52.4001 79 53.3001 78.3 53.9001C77.6 54.6001 76.6 54.9001 75.3 54.9001H72.5V59.1001L73.9 59.2001V59.9001H70.1V59.2001L71.5 59.1001V48.5001L70.1 48.4001V47.6001H71.5H75.3V47.7001ZM72.5 54.0001H75.3C76.3 54.0001 77.1 53.7001 77.6 53.2001C78.1 52.7001 78.4 52.0001 78.4 51.3001C78.4 50.5001 78.1 49.9001 77.6 49.3001C77.1 48.8001 76.3 48.5001 75.3 48.5001H72.5V54.0001Z" fill="white"/>
<path d="M83.1 50.9002L83.2 52.4002V52.5002C83.5 51.9002 83.8 51.5002 84.3 51.2002C84.7 50.9002 85.3 50.7002 85.9 50.7002C86 50.7002 86.2 50.7002 86.3 50.7002C86.4 50.7002 86.5 50.7002 86.6 50.8002L86.5 51.7002L85.7 51.6002C85.1 51.6002 84.5 51.8002 84.1 52.1002C83.7 52.5002 83.4 52.9002 83.2 53.6002V59.0002L84.6 59.1002V59.8002H80.8V59.1002L82.2 59.0002V51.6002L80.8 51.5002V50.7002H82.2H83.1V50.9002Z" fill="white"/>
<path d="M87.2 55.3002C87.2 54.0002 87.6 52.9002 88.3 52.0002C89 51.1002 90 50.7002 91.2 50.7002C92.4 50.7002 93.4 51.1002 94.1 52.0002C94.8 52.9002 95.2 54.0002 95.2 55.3002V55.6002C95.2 56.9002 94.8 58.1002 94.1 58.9002C93.4 59.8002 92.4 60.2002 91.2 60.2002C90 60.2002 89 59.8002 88.3 58.9002C87.6 58.0002 87.2 56.9002 87.2 55.6002V55.3002ZM88.3 55.6002C88.3 56.7002 88.6 57.5002 89.1 58.3002C89.6 59.0002 90.4 59.4002 91.3 59.4002C92.2 59.4002 93 59.0002 93.5 58.3002C94 57.6002 94.3 56.7002 94.3 55.6002V55.3002C94.3 54.3002 94 53.4002 93.5 52.7002C93 52.0002 92.2 51.6002 91.3 51.6002C90.4 51.6002 89.6 52.0002 89.1 52.7002C88.6 53.4002 88.3 54.3002 88.3 55.3002V55.6002Z" fill="white"/>
<path d="M98.7 60.8C98.7 61.7 98.5 62.5 98 63C97.6 63.5 96.9 63.8 96.1 63.8C95.9 63.8 95.8 63.8 95.6 63.8C95.5 63.8 95.3 63.7 95.1 63.7L95.2 62.8C95.3 62.8 95.4 62.9 95.6 62.9C95.8 62.9 95.9 62.9 96 62.9C96.5 62.9 96.9 62.7 97.2 62.4C97.5 62.1 97.6 61.5 97.6 60.9V51.9L96.2 51.8V51H98.6V60.8H98.7ZM98.7 48.2H97.7V46.8H98.7V48.2Z" fill="white"/>
<path d="M104.6 60.2002C103.5 60.2002 102.5 59.8002 101.8 58.9002C101 58.1002 100.7 57.0002 100.7 55.7002V55.2002C100.7 53.9002 101.1 52.8002 101.8 52.0002C102.6 51.1002 103.5 50.7002 104.5 50.7002C105.6 50.7002 106.5 51.1002 107.1 51.8002C107.7 52.5002 108.1 53.5002 108.1 54.6002V55.5002H101.7V55.7002C101.7 56.7002 102 57.6002 102.5 58.3002C103 59.0002 103.8 59.3002 104.7 59.3002C105.3 59.3002 105.9 59.2002 106.3 59.0002C106.7 58.8002 107.1 58.6002 107.4 58.2002L107.8 58.9002C107.5 59.3002 107 59.5002 106.5 59.8002C106 60.1002 105.3 60.2002 104.6 60.2002ZM104.5 51.6002C103.8 51.6002 103.1 51.9002 102.6 52.5002C102.1 53.1002 101.8 53.8002 101.7 54.6002H107V54.3002C107 53.5002 106.8 52.8002 106.3 52.3002C105.9 51.8002 105.3 51.6002 104.5 51.6002Z" fill="white"/>
<path d="M113.5 59.3001C114.2 59.3001 114.8 59.1001 115.3 58.7001C115.8 58.3001 116.1 57.8001 116.1 57.1001H117V57.2001C117 58.0001 116.7 58.7001 116 59.3001C115.3 59.9001 114.5 60.2001 113.6 60.2001C112.4 60.2001 111.4 59.8001 110.7 58.9001C110 58.0001 109.7 57.0001 109.7 55.6001V55.2001C109.7 53.9001 110 52.8001 110.7 51.9001C111.4 51.0001 112.3 50.6001 113.6 50.6001C114.3 50.6001 114.9 50.7001 115.5 51.0001C116.1 51.3001 116.6 51.6001 116.9 52.1001V54.1001H116L115.8 52.5001C115.5 52.2001 115.2 52.0001 114.8 51.8001C114.4 51.6001 113.9 51.5001 113.4 51.5001C112.4 51.5001 111.7 51.8001 111.2 52.5001C110.7 53.2001 110.5 54.1001 110.5 55.1001V55.5001C110.5 56.6001 110.7 57.5001 111.2 58.2001C111.8 59.0001 112.5 59.3001 113.5 59.3001Z" fill="white"/>
<path d="M120.8 48.6001V50.9001H122.8V51.7001H120.8V57.6001C120.8 58.2001 120.9 58.6001 121.1 58.9001C121.3 59.2001 121.6 59.3001 122 59.3001C122.2 59.3001 122.3 59.3001 122.5 59.3001C122.7 59.3001 122.8 59.3001 123 59.2001L123.2 60.0001C123 60.1001 122.8 60.1001 122.6 60.2001C122.4 60.2001 122.1 60.3001 121.9 60.3001C121.3 60.3001 120.8 60.1001 120.4 59.7001C120 59.3001 119.9 58.7001 119.9 57.8001V51.9001H118.3V51.1001H119.9V48.8001H120.8V48.6001Z" fill="white"/>
<path d="M48.1 15.6C48.5 17.7 46.7 19.5 44.6 19.1C43.4 18.9 42.5 17.9 42.3 16.8C41.9 14.7 43.7 12.9 45.8 13.3C46.9 13.5 47.9 14.4 48.1 15.6Z" fill="white"/>
<path d="M37.2 37.3002C37.6 39.4002 35.8 41.2002 33.7 40.8002C32.5 40.6002 31.6 39.6002 31.4 38.5002C31 36.4002 32.8 34.6002 34.9 35.0002C36 35.2002 37 36.1002 37.2 37.3002Z" fill="white"/>
<path d="M48.1 37.3002C48.5 39.4002 46.7 41.2002 44.6 40.8002C43.4 40.6002 42.5 39.6002 42.3 38.5002C41.9 36.4002 43.7 34.6002 45.8 35.0002C47 35.2002 47.9 36.1002 48.1 37.3002Z" fill="white"/>
<path d="M14 4.80008C14.4 6.00008 13.3 7.10008 12.1 6.70008C11.7 6.60008 11.3 6.20008 11.2 5.80008C10.8 4.60008 11.9 3.50008 13.1 3.90008C13.5 4.00008 13.8 4.40008 14 4.80008Z" fill="white"/>
<path d="M14 26.5C14.4 27.7 13.3 28.8 12.1 28.4C11.7 28.3 11.3 27.9 11.2 27.5C10.8 26.3 11.9 25.2 13.1 25.6C13.5 25.8 13.8 26.1 14 26.5Z" fill="white"/>
<path d="M14 15.6001C14.4 16.8001 13.3 17.9001 12.1 17.5001C11.7 17.4001 11.3 17.0001 11.2 16.6001C10.8 15.4001 11.9 14.3001 13.1 14.7001C13.5 14.8001 13.8 15.2001 14 15.6001Z" fill="white"/>
<path d="M14 48.3999C14.4 49.5999 13.3 50.6999 12.1 50.2999C11.7 50.1999 11.3 49.7999 11.2 49.3999C10.8 48.1999 11.9 47.0999 13.1 47.4999C13.5 47.5999 13.8 47.8999 14 48.3999Z" fill="white"/>
<path d="M14 59.3001C14.4 60.5001 13.3 61.6001 12.1 61.2001C11.7 61.1001 11.3 60.7001 11.2 60.3001C10.8 59.1001 11.9 58.0001 13.1 58.4001C13.5 58.5001 13.8 58.8001 14 59.3001Z" fill="white"/>
<path d="M3.3 59.3001C3.7 60.5001 2.6 61.6001 1.4 61.2001C0.999996 61.1001 0.599994 60.7001 0.499994 60.3001C0.0999942 59.1001 1.2 58.0001 2.4 58.4001C2.9 58.5001 3.2 58.8001 3.3 59.3001Z" fill="white"/>
<path d="M24.8 15.7C25.2 16.9 24.1 18 22.9 17.6C22.5 17.5 22.1 17.1 22 16.7C21.6 15.5 22.7 14.4 23.9 14.8C24.4 14.9 24.7 15.2 24.8 15.7Z" fill="white"/>
<path d="M48.1 59.0001C48.5 61.1001 46.7 62.9001 44.6 62.5001C43.4 62.3001 42.5 61.3001 42.3 60.2001C41.9 58.1001 43.7 56.3001 45.8 56.7001C46.9 56.9001 47.9 57.9001 48.1 59.0001Z" fill="white"/>
<path d="M37.2 48.3002C37.6 50.4002 35.8 52.2002 33.7 51.8002C32.5 51.6002 31.6 50.6002 31.4 49.5002C31 47.4002 32.8 45.6002 34.9 46.0002C36 46.2002 37 47.1002 37.2 48.3002Z" fill="white"/>
<path d="M37.2 59.0001C37.6 61.1001 35.8 62.9001 33.7 62.5001C32.5 62.3001 31.6 61.3001 31.4 60.2001C31 58.1001 32.8 56.3001 34.9 56.7001C36 56.9001 37 57.9001 37.2 59.0001Z" fill="white"/>
<path d="M48.1 48.3002C48.5 50.4002 46.7 52.2002 44.6 51.8002C43.4 51.6002 42.5 50.6002 42.3 49.5002C41.9 47.4002 43.7 45.6002 45.8 46.0002C47 46.2002 47.9 47.1002 48.1 48.3002Z" fill="white"/>
<path d="M37.2 26.5001C37.6 28.6001 35.8 30.4001 33.7 30.0001C32.5 29.8001 31.6 28.8001 31.4 27.7001C31 25.6001 32.8 23.8001 34.9 24.2001C36 24.4001 37 25.3001 37.2 26.5001Z" fill="white"/>
<path d="M48.1 26.5001C48.5 28.6001 46.7 30.4001 44.6 30.0001C43.4 29.8001 42.5 28.8001 42.3 27.7001C41.9 25.6001 43.7 23.8001 45.8 24.2001C47 24.4001 47.9 25.3001 48.1 26.5001Z" fill="white"/>
<path d="M37.2 4.70005C37.6 6.80005 35.8 8.60005 33.7 8.20005C32.5 8.00005 31.6 7.00006 31.4 5.90006C31 3.80006 32.8 2.00006 34.9 2.40006C36 2.60006 37 3.60005 37.2 4.70005Z" fill="white"/>
<path d="M37.2 15.5001C37.6 17.6001 35.8 19.4001 33.7 19.0001C32.5 18.8001 31.6 17.8001 31.4 16.7001C31 14.6001 32.8 12.8001 34.9 13.2001C36 13.4001 37 14.4001 37.2 15.5001Z" fill="white"/>
<path d="M48.1 4.70005C48.5 6.80005 46.7 8.60005 44.6 8.20005C43.4 8.00005 42.5 7.00006 42.3 5.90006C41.9 3.80006 43.7 2.00006 45.8 2.40006C47 2.60006 47.9 3.60005 48.1 4.70005Z" fill="white"/>
<path d="M24.8 59.1001C25.2 60.3001 24.1 61.4001 22.9 61.0001C22.5 60.9001 22.1 60.5001 22 60.1001C21.6 58.9001 22.7 57.8001 23.9 58.2001C24.4 58.3001 24.7 58.7001 24.8 59.1001Z" fill="white"/>
<path d="M3.09998 48.3999C3.49998 49.5999 2.39998 50.6999 1.19998 50.2999C0.799976 50.1999 0.399982 49.7999 0.299982 49.3999C-0.100018 48.1999 0.999976 47.0999 2.19998 47.4999C2.59998 47.5999 2.99998 47.8999 3.09998 48.3999Z" fill="white"/>
<path d="M24.8 48.3999C25.2 49.5999 24.1 50.6999 22.9 50.2999C22.5 50.1999 22.1 49.7999 22 49.3999C21.6 48.1999 22.7 47.0999 23.9 47.4999C24.4 47.5999 24.7 47.8999 24.8 48.3999Z" fill="white"/>
<path d="M14 37.3999C14.4 38.5999 13.3 39.6999 12.1 39.2999C11.7 39.1999 11.3 38.7999 11.2 38.3999C10.8 37.1999 11.9 36.0999 13.1 36.4999C13.5 36.6999 13.8 36.9999 14 37.3999Z" fill="white"/>
<path d="M3.09998 37.3999C3.49998 38.5999 2.39998 39.6999 1.19998 39.2999C0.799976 39.1999 0.399982 38.7999 0.299982 38.3999C-0.100018 37.1999 0.999976 36.0999 2.19998 36.4999C2.59998 36.6999 2.99998 36.9999 3.09998 37.3999Z" fill="white"/>
<path d="M24.8 37.3999C25.2 38.5999 24.1 39.6999 22.9 39.2999C22.5 39.1999 22.1 38.7999 22 38.3999C21.6 37.1999 22.7 36.0999 23.9 36.4999C24.4 36.6999 24.7 36.9999 24.8 37.3999Z" fill="white"/>
<path d="M3.09998 26.5C3.49998 27.7 2.39998 28.8 1.19998 28.4C0.799976 28.3 0.399982 27.9 0.299982 27.5C-0.100018 26.3 0.999976 25.2 2.19998 25.6C2.59998 25.8 2.99998 26.1 3.09998 26.5Z" fill="white"/>
<path d="M24.8 26.5C25.2 27.7 24.1 28.8 22.9 28.4C22.5 28.3 22.1 27.9 22 27.5C21.6 26.3 22.7 25.2 23.9 25.6C24.4 25.8 24.7 26.1 24.8 26.5Z" fill="white"/>
<path d="M3.09998 4.80008C3.49998 6.00008 2.39998 7.10008 1.19998 6.70008C0.799976 6.60008 0.399982 6.20008 0.299982 5.80008C-0.100018 4.60008 0.999976 3.50008 2.19998 3.90008C2.59998 4.00008 2.99998 4.40008 3.09998 4.80008Z" fill="white"/>
<path d="M24.8 4.80008C25.2 6.00008 24.1 7.10008 22.9 6.70008C22.5 6.60008 22.1 6.20008 22 5.80008C21.6 4.60008 22.7 3.50008 23.9 3.90008C24.4 4.00008 24.7 4.40008 24.8 4.80008Z" fill="white"/>
<path d="M34.1 16.1C34.1 16.1 36 13.2 34.4 13.2C31.6 13.2 30.6 15 27.6 15C24.6 15 25.4 14.8 23.5 14.8C22.2 14.8 23.6 16.2 23.6 16.2C23.6 16.2 22.1 17.7 23.5 17.7C25.4 17.7 24.6 17.4 27.6 17.3C30.6 17.3 31.4 19.1 34.4 19.1C36 19.1 34.1 16.1 34.1 16.1Z" fill="white"/>
<path d="M34.1 48.8001C34.1 48.8001 36 45.9001 34.4 45.9001C31.6 45.9001 30.6 47.7001 27.6 47.7001C24.6 47.7001 25.4 47.5001 23.5 47.5001C22.2 47.5001 23.6 48.9001 23.6 48.9001C23.6 48.9001 22.1 50.4001 23.5 50.4001C25.4 50.4001 24.6 50.1001 27.6 50.0001C30.6 50.0001 31.4 51.8001 34.4 51.8001C36 51.7001 34.1 48.8001 34.1 48.8001Z" fill="white"/>
<path d="M45.2 24.1001C42.4 24.1001 42.8 25.6001 39.8 25.6001C36.8 25.6001 36.2 24.1001 34.3 24.1001C33 24.1001 32.9 30.0001 34.3 30.0001C36.2 30.0001 36.8 28.5001 39.8 28.5001C42.8 28.5001 42.2 30.0001 45.2 30.0001C46.9 30.0001 46.9 24.1001 45.2 24.1001Z" fill="white"/>
<path d="M60.7 37.2C61.2 40.2 58.6 42.7 55.6 42.3C53.7 42 52.2 40.5 51.9 38.6C51.4 35.6 54 33.1 57 33.5C58.9 33.8 60.4 35.4 60.7 37.2Z" fill="white"/>
<path d="M56.9 37.8C56.9 37.8 58.6 33.5 56.8 33.5C52.8 33.5 53.3 35.4 50 35.5C46.7 35.5 47.4 34.9 45.4 35C43.4 35 45.4 37.9 45.4 37.9C45.4 37.9 43.4 40.8 45.4 40.8C47.4 40.8 46.7 40.2 50 40.2C53.3 40.2 52.4 42.4 56.7 42.4C58.6 42.3 56.9 37.8 56.9 37.8Z" fill="white"/>
<path d="M23.4 26.9001V25.6001C21.3 25.6001 21.1 26.5001 18 26.5001C14.9 26.5001 14.8 25.6001 12.6 25.6001V28.5001C14.5 28.5001 14.9 27.5001 18 27.5001C21.1 27.5001 21.2 28.5001 23.4 28.5001V26.9001Z" fill="white"/>
<path d="M60.7 59C61.2 62 58.6 64.5 55.6 64.1C53.7 63.8 52.2 62.3 51.9 60.4C51.4 57.4 54 54.9 57 55.3C58.9 55.7 60.4 57.2 60.7 59Z" fill="white"/>
<path d="M60.7 48.1001C61.2 51.1001 58.6 53.6001 55.6 53.2001C53.7 52.9001 52.2 51.4001 51.9 49.5001C51.4 46.5001 54 44.0001 57 44.4001C58.9 44.8001 60.4 46.3001 60.7 48.1001Z" fill="white"/>
<path d="M60.7 26.3001C61.2 29.3001 58.6 31.8001 55.6 31.4001C53.7 31.1001 52.2 29.6001 51.9 27.7001C51.4 24.7001 54 22.2001 57 22.6001C58.9 22.9001 60.4 24.5001 60.7 26.3001Z" fill="white"/>
<path d="M60.7 15.4002C61.2 18.4002 58.6 20.9002 55.6 20.5002C53.7 20.2002 52.2 18.7002 51.9 16.8002C51.4 13.8002 54 11.3002 57 11.7002C58.9 12.0002 60.4 13.5002 60.7 15.4002Z" fill="white"/>
<path d="M60.7 4.60011C61.2 7.60011 58.6 10.1001 55.6 9.70011C53.7 9.40011 52.2 7.90011 51.9 6.00011C51.4 3.00011 54 0.500112 57 0.900112C58.9 1.20011 60.4 2.70011 60.7 4.60011Z" fill="white"/>
<path d="M56.9 5.10005C56.9 5.10005 58.6 0.800049 56.8 0.800049C52.8 0.800049 53.3 2.70005 50 2.80005C46.7 2.80005 47.4 2.20005 45.4 2.30005C43.4 2.30005 45.4 5.20005 45.4 5.20005C45.4 5.20005 43.4 8.10005 45.4 8.10005C47.4 8.10005 46.7 7.50005 50 7.50005C53.3 7.50005 52.4 9.70005 56.7 9.70005C58.6 9.70005 56.9 5.10005 56.9 5.10005Z" fill="white"/>
</svg>
