<svg width="124" height="65" viewBox="0 0 124 65" fill="none" xmlns="http://www.w3.org/2000/svg">
<path d="M70 17.4996V15.9996L71.3 15.6996V6.89961L70 6.59961V5.09961H71.3H73.8H75.1V6.59961L73.8 6.89961V15.4996H77.3L77.4 13.9996H79.3V17.3996H70V17.4996Z" fill="#222944"/>
<path d="M93.5004 5.19961V6.69961L92.2004 6.99961V17.4996H89.7004L84.7004 9.19961H84.6004V15.6996L86.0004 15.9996V17.4996H80.9004V15.9996L82.2004 15.6996V6.89961L80.9004 6.59961V5.09961H82.2004H84.7004L89.7004 13.3996H89.8004V6.89961L88.5004 6.59961V5.09961H92.3004H93.5004V5.19961Z" fill="#222944"/>
<path d="M105 16.0996C104.6 16.4996 104 16.7996 103.3 17.1996C102.5 17.4996 101.6 17.6996 100.4 17.6996C98.6998 17.6996 97.3998 17.0996 96.3998 15.9996C95.3998 14.8996 94.7998 13.3996 94.7998 11.6996V11.2996C94.7998 9.49961 95.2998 7.99961 96.2998 6.79961C97.2998 5.59961 98.6998 5.09961 100.3 5.09961C101.3 5.09961 102.1 5.29961 102.9 5.59961C103.7 5.89961 104.4 6.29961 104.9 6.79961V9.29961H103.1L102.8 7.69961C102.6 7.49961 102.3 7.39961 101.9 7.19961C101.5 7.09961 101.1 6.99961 100.6 6.99961C99.4998 6.99961 98.6998 7.39961 98.0998 8.19961C97.4998 8.99961 97.1998 9.99961 97.1998 11.2996V11.6996C97.1998 12.8996 97.4998 13.8996 98.0998 14.6996C98.6998 15.3996 99.4998 15.7996 100.6 15.7996C101.1 15.7996 101.5 15.7996 101.8 15.6996C102.1 15.5996 102.3 15.4996 102.5 15.3996V13.2996L100.7 13.1996V11.4996H104.9V16.0996H105Z" fill="#222944"/>
<path d="M70.3002 27.1994V26.3994H74.1002V27.1994L72.7002 27.2994V37.8994L74.0002 37.9994V38.6994H70.2002V37.9994L71.6002 37.8994V27.2994L70.3002 27.1994Z" fill="#222944"/>
<path d="M75.4004 37.9994L76.8004 37.8994V30.4994L75.4004 30.3994V29.5994H77.7004L77.8004 31.1994C78.1004 30.5994 78.5004 30.1994 79.0004 29.8994C79.5004 29.5994 80.1004 29.3994 80.8004 29.3994C81.8004 29.3994 82.5004 29.6994 83.1004 30.2994C83.6004 30.8994 83.9004 31.7994 83.9004 33.0994V37.7994L85.3004 37.8994V38.5994H81.5004V37.9994L82.9004 37.8994V33.1994C82.9004 32.1994 82.7004 31.3994 82.3004 30.9994C81.9004 30.5994 81.4004 30.3994 80.6004 30.3994C79.9004 30.3994 79.3004 30.5994 78.9004 30.9994C78.5004 31.3994 78.1004 31.8994 77.9004 32.4994V37.9994L79.3004 38.0994V38.7994H75.5004V37.9994H75.4004Z" fill="#222944"/>
<path d="M88.4 30.3996L87.3 30.4996L89.6 36.4996L89.9 37.5996H90L90.3 36.4996L92.5 30.4996L91.4 30.3996V29.5996H94.5V30.3996L93.6 30.4996L90.4 38.7996H89.6L86.4 30.4996L85.5 30.3996V29.5996H88.6V30.3996H88.4Z" fill="#222944"/>
<path d="M98.9996 38.8995C97.8996 38.8995 96.8996 38.4995 96.1996 37.5995C95.3996 36.7995 95.0996 35.6995 95.0996 34.3995V33.9995C95.0996 32.6995 95.4996 31.5995 96.1996 30.7995C96.9996 29.8995 97.8996 29.4995 98.8996 29.4995C99.9996 29.4995 100.9 29.8995 101.5 30.5995C102.1 31.2995 102.5 32.2995 102.5 33.3995V34.2995H95.9996V34.4995C95.9996 35.4995 96.2996 36.3995 96.7996 37.0995C97.2996 37.7995 98.0996 38.0995 98.9996 38.0995C99.5996 38.0995 100.2 37.9995 100.6 37.7995C101 37.5995 101.4 37.3995 101.7 36.9995L102.1 37.6995C101.8 38.0995 101.3 38.2995 100.8 38.5995C100.3 38.7995 99.6996 38.8995 98.9996 38.8995ZM98.7996 30.2995C98.0996 30.2995 97.3996 30.5995 96.8996 31.1995C96.3996 31.7995 96.0996 32.4995 95.9996 33.2995H101.3V32.9995C101.3 32.1995 101.1 31.4995 100.6 30.9995C100.3 30.5995 99.5996 30.2995 98.7996 30.2995Z" fill="#222944"/>
<path d="M110.5 32.3995H109.7L109.6 31.0995C109.3 30.7995 109 30.5995 108.6 30.4995C108.2 30.3995 107.8 30.2995 107.3 30.2995C106.6 30.2995 106 30.4995 105.6 30.7995C105.2 31.0995 105 31.4995 105 31.8995C105 32.2995 105.2 32.6995 105.5 32.8995C105.8 33.1995 106.5 33.3995 107.4 33.5995C108.5 33.7995 109.3 34.1995 109.8 34.5995C110.3 34.9995 110.6 35.5995 110.6 36.2995C110.6 37.0995 110.3 37.6995 109.7 38.0995C109.1 38.5995 108.3 38.7995 107.3 38.7995C106.6 38.7995 106 38.6995 105.5 38.4995C104.9 38.2995 104.5 37.9995 104.1 37.6995V35.9995H104.9L105 37.2995C105.3 37.5995 105.6 37.7995 106 37.8995C106.4 37.9995 106.8 38.0995 107.3 38.0995C108 38.0995 108.6 37.8995 109 37.5995C109.4 37.2995 109.6 36.8995 109.6 36.3995C109.6 35.9995 109.4 35.5995 109.1 35.2995C108.7 34.9995 108.1 34.6995 107.2 34.4995C106.1 34.2995 105.3 33.9995 104.8 33.5995C104.3 33.1995 104 32.6995 104 31.9995C104 31.2995 104.3 30.6995 104.9 30.1995C105.5 29.6995 106.3 29.4995 107.2 29.4995C107.9 29.4995 108.5 29.5995 109 29.7995C109.6 29.9995 110 30.2995 110.4 30.5995L110.5 32.3995Z" fill="#222944"/>
<path d="M114.6 27.2998V29.5998H116.6V30.3998H114.6V36.2998C114.6 36.8998 114.7 37.2998 114.9 37.5998C115.1 37.8998 115.4 37.9998 115.8 37.9998C116 37.9998 116.1 37.9998 116.3 37.9998C116.5 37.9998 116.6 37.9998 116.8 37.8998L117 38.6998C116.8 38.7998 116.6 38.7998 116.4 38.8998C116.2 38.8998 115.9 38.9998 115.7 38.9998C115.1 38.9998 114.6 38.7998 114.2 38.3998C113.8 37.9998 113.7 37.3998 113.7 36.4998V30.5998H112V29.7998H113.6V27.4998H114.6V27.2998Z" fill="#222944"/>
<path d="M75.2996 47.6996C76.5996 47.6996 77.5996 47.9996 78.2996 48.6996C78.9996 49.3996 79.3996 50.1996 79.3996 51.2996C79.3996 52.3996 78.9996 53.2996 78.2996 53.8996C77.5996 54.5996 76.5996 54.8996 75.2996 54.8996H72.4996V59.0996L73.8996 59.1996V59.8996H70.0996V59.1996L71.4996 59.0996V48.4996L70.0996 48.3996V47.5996H71.4996H75.2996V47.6996ZM72.4996 53.9996H75.2996C76.2996 53.9996 77.0996 53.6996 77.5996 53.1996C78.0996 52.6996 78.3996 51.9996 78.3996 51.2996C78.3996 50.4996 78.0996 49.8996 77.5996 49.2996C77.0996 48.7996 76.2996 48.4996 75.2996 48.4996H72.4996V53.9996Z" fill="#222944"/>
<path d="M83.0998 50.8997L83.1998 52.3997V52.4997C83.4998 51.8997 83.7998 51.4997 84.2998 51.1997C84.6998 50.8997 85.2998 50.6997 85.8998 50.6997C85.9998 50.6997 86.1998 50.6997 86.2998 50.6997C86.3998 50.6997 86.4998 50.6997 86.5998 50.7997L86.4998 51.6997L85.6998 51.5997C85.0998 51.5997 84.4998 51.7997 84.0998 52.0997C83.6998 52.4997 83.3998 52.8997 83.1998 53.5997V58.9997L84.5998 59.0997V59.7997H80.7998V59.0997L82.1998 58.9997V51.5997L80.7998 51.4997V50.6997H82.1998H83.0998V50.8997Z" fill="#222944"/>
<path d="M87.2002 55.2997C87.2002 53.9997 87.6002 52.8997 88.3002 51.9997C89.0002 51.0997 90.0002 50.6997 91.2002 50.6997C92.4002 50.6997 93.4002 51.0997 94.1002 51.9997C94.8002 52.8997 95.2002 53.9997 95.2002 55.2997V55.5997C95.2002 56.8997 94.8002 58.0997 94.1002 58.8997C93.4002 59.7997 92.4002 60.1997 91.2002 60.1997C90.0002 60.1997 89.0002 59.7997 88.3002 58.8997C87.6002 57.9997 87.2002 56.8997 87.2002 55.5997V55.2997ZM88.3002 55.5997C88.3002 56.6997 88.6002 57.4997 89.1002 58.2997C89.6002 58.9997 90.4002 59.3997 91.3002 59.3997C92.2002 59.3997 93.0002 58.9997 93.5002 58.2997C94.0002 57.5997 94.3002 56.6997 94.3002 55.5997V55.2997C94.3002 54.2997 94.0002 53.3997 93.5002 52.6997C93.0002 51.9997 92.2002 51.5997 91.3002 51.5997C90.4002 51.5997 89.6002 51.9997 89.1002 52.6997C88.6002 53.3997 88.3002 54.2997 88.3002 55.2997V55.5997Z" fill="#222944"/>
<path d="M98.6996 60.7998C98.6996 61.6998 98.4996 62.4998 97.9996 62.9998C97.5996 63.4998 96.8996 63.7998 96.0996 63.7998C95.8996 63.7998 95.7996 63.7998 95.5996 63.7998C95.4996 63.7998 95.2996 63.6998 95.0996 63.6998L95.1996 62.7998C95.2996 62.7998 95.3996 62.8998 95.5996 62.8998C95.7996 62.8998 95.8996 62.8998 95.9996 62.8998C96.4996 62.8998 96.8996 62.6998 97.1996 62.3998C97.4996 62.0998 97.5996 61.4998 97.5996 60.8998V51.8998L96.1996 51.7998V50.9998H98.5996V60.7998H98.6996ZM98.6996 48.1998H97.6996V46.7998H98.6996V48.1998Z" fill="#222944"/>
<path d="M104.6 60.1997C103.5 60.1997 102.5 59.7997 101.8 58.8997C101 58.0997 100.7 56.9997 100.7 55.6997V55.1997C100.7 53.8997 101.1 52.7997 101.8 51.9997C102.6 51.0997 103.5 50.6997 104.5 50.6997C105.6 50.6997 106.5 51.0997 107.1 51.7997C107.7 52.4997 108.1 53.4997 108.1 54.5997V55.4997H101.7V55.6997C101.7 56.6997 102 57.5997 102.5 58.2997C103 58.9997 103.8 59.2997 104.7 59.2997C105.3 59.2997 105.9 59.1997 106.3 58.9997C106.7 58.7997 107.1 58.5997 107.4 58.1997L107.8 58.8997C107.5 59.2997 107 59.4997 106.5 59.7997C106 60.0997 105.3 60.1997 104.6 60.1997ZM104.5 51.5997C103.8 51.5997 103.1 51.8997 102.6 52.4997C102.1 53.0997 101.8 53.7997 101.7 54.5997H107V54.2997C107 53.4997 106.8 52.7997 106.3 52.2997C105.9 51.7997 105.3 51.5997 104.5 51.5997Z" fill="#222944"/>
<path d="M113.5 59.2996C114.2 59.2996 114.8 59.0996 115.3 58.6996C115.8 58.2996 116.1 57.7996 116.1 57.0996H117V57.1996C117 57.9996 116.7 58.6996 116 59.2996C115.3 59.8996 114.5 60.1996 113.6 60.1996C112.4 60.1996 111.4 59.7996 110.7 58.8996C110 57.9996 109.7 56.9996 109.7 55.5996V55.1996C109.7 53.8996 110 52.7996 110.7 51.8996C111.4 50.9996 112.3 50.5996 113.6 50.5996C114.3 50.5996 114.9 50.6996 115.5 50.9996C116.1 51.2996 116.6 51.5996 116.9 52.0996V54.0996H116L115.8 52.4996C115.5 52.1996 115.2 51.9996 114.8 51.7996C114.4 51.5996 113.9 51.4996 113.4 51.4996C112.4 51.4996 111.7 51.7996 111.2 52.4996C110.7 53.1996 110.5 54.0996 110.5 55.0996V55.4996C110.5 56.5996 110.7 57.4996 111.2 58.1996C111.8 58.9996 112.5 59.2996 113.5 59.2996Z" fill="#222944"/>
<path d="M120.8 48.5996V50.8996H122.8V51.6996H120.8V57.5996C120.8 58.1996 120.9 58.5996 121.1 58.8996C121.3 59.1996 121.6 59.2996 122 59.2996C122.2 59.2996 122.3 59.2996 122.5 59.2996C122.7 59.2996 122.8 59.2996 123 59.1996L123.2 59.9996C123 60.0996 122.8 60.0996 122.6 60.1996C122.4 60.1996 122.1 60.2996 121.9 60.2996C121.3 60.2996 120.8 60.0996 120.4 59.6996C120 59.2996 119.9 58.6996 119.9 57.7996V51.8996H118.3V51.0996H119.9V48.7996H120.8V48.5996Z" fill="#222944"/>
<path d="M48.1002 15.5997C48.5002 17.6997 46.7002 19.4997 44.6002 19.0997C43.4002 18.8997 42.5002 17.8997 42.3002 16.7997C41.9002 14.6997 43.7002 12.8997 45.8002 13.2997C46.9002 13.4997 47.9002 14.3997 48.1002 15.5997Z" fill="url(#paint0_linear_126_402)"/>
<path d="M37.2008 37.2999C37.6008 39.3999 35.8008 41.1999 33.7008 40.7999C32.5008 40.5999 31.6008 39.5999 31.4008 38.4999C31.0008 36.3999 32.8008 34.5999 34.9008 34.9999C36.0008 35.1999 37.0008 36.0999 37.2008 37.2999Z" fill="url(#paint1_linear_126_402)"/>
<path d="M48.1002 37.2999C48.5002 39.3999 46.7002 41.1999 44.6002 40.7999C43.4002 40.5999 42.5002 39.5999 42.3002 38.4999C41.9002 36.3999 43.7002 34.5999 45.8002 34.9999C47.0002 35.1999 47.9002 36.0999 48.1002 37.2999Z" fill="url(#paint2_linear_126_402)"/>
<path d="M14.0009 4.79959C14.4009 5.99959 13.3009 7.09959 12.1009 6.69959C11.7009 6.59959 11.3009 6.19959 11.2009 5.79959C10.8009 4.59959 11.9009 3.49959 13.1009 3.89959C13.5009 3.99959 13.8009 4.39959 14.0009 4.79959Z" fill="url(#paint3_linear_126_402)"/>
<path d="M14.0009 26.4998C14.4009 27.6998 13.3009 28.7998 12.1009 28.3998C11.7009 28.2998 11.3009 27.8998 11.2009 27.4998C10.8009 26.2998 11.9009 25.1998 13.1009 25.5998C13.5009 25.7998 13.8009 26.0998 14.0009 26.4998Z" fill="url(#paint4_linear_126_402)"/>
<path d="M14.0009 15.5999C14.4009 16.7999 13.3009 17.8999 12.1009 17.4999C11.7009 17.3999 11.3009 16.9999 11.2009 16.5999C10.8009 15.3999 11.9009 14.2999 13.1009 14.6999C13.5009 14.7999 13.8009 15.1999 14.0009 15.5999Z" fill="url(#paint5_linear_126_402)"/>
<path d="M14.0009 48.3997C14.4009 49.5997 13.3009 50.6997 12.1009 50.2997C11.7009 50.1997 11.3009 49.7997 11.2009 49.3997C10.8009 48.1997 11.9009 47.0997 13.1009 47.4997C13.5009 47.5997 13.8009 47.8997 14.0009 48.3997Z" fill="url(#paint6_linear_126_402)"/>
<path d="M14.0009 59.2996C14.4009 60.4996 13.3009 61.5996 12.1009 61.1996C11.7009 61.0996 11.3009 60.6996 11.2009 60.2996C10.8009 59.0996 11.9009 57.9996 13.1009 58.3996C13.5009 58.4996 13.8009 58.7996 14.0009 59.2996Z" fill="url(#paint7_linear_126_402)"/>
<path d="M3.30067 59.2996C3.70067 60.4996 2.60067 61.5996 1.40067 61.1996C1.00067 61.0996 0.600666 60.6996 0.500666 60.2996C0.100666 59.0996 1.20067 57.9996 2.40067 58.3996C2.90067 58.4996 3.20067 58.7996 3.30067 59.2996Z" fill="url(#paint8_linear_126_402)"/>
<path d="M24.8007 15.7C25.2007 16.9 24.1007 18 22.9007 17.6C22.5007 17.5 22.1007 17.1 22.0007 16.7C21.6007 15.5 22.7007 14.4 23.9007 14.8C24.4007 14.9 24.7007 15.2 24.8007 15.7Z" fill="url(#paint9_linear_126_402)"/>
<path d="M48.1002 58.9996C48.5002 61.0996 46.7002 62.8996 44.6002 62.4996C43.4002 62.2996 42.5002 61.2996 42.3002 60.1996C41.9002 58.0996 43.7002 56.2996 45.8002 56.6996C46.9002 56.8996 47.9002 57.8996 48.1002 58.9996Z" fill="url(#paint10_linear_126_402)"/>
<path d="M37.2008 48.2999C37.6008 50.3999 35.8008 52.1999 33.7008 51.7999C32.5008 51.5999 31.6008 50.5999 31.4008 49.4999C31.0008 47.3999 32.8008 45.5999 34.9008 45.9999C36.0008 46.1999 37.0008 47.0999 37.2008 48.2999Z" fill="url(#paint11_linear_126_402)"/>
<path d="M37.2008 58.9996C37.6008 61.0996 35.8008 62.8996 33.7008 62.4996C32.5008 62.2996 31.6008 61.2996 31.4008 60.1996C31.0008 58.0996 32.8008 56.2996 34.9008 56.6996C36.0008 56.8996 37.0008 57.8996 37.2008 58.9996Z" fill="url(#paint12_linear_126_402)"/>
<path d="M48.1002 48.2999C48.5002 50.3999 46.7002 52.1999 44.6002 51.7999C43.4002 51.5999 42.5002 50.5999 42.3002 49.4999C41.9002 47.3999 43.7002 45.5999 45.8002 45.9999C47.0002 46.1999 47.9002 47.0999 48.1002 48.2999Z" fill="url(#paint13_linear_126_402)"/>
<path d="M37.2008 26.4996C37.6008 28.5996 35.8008 30.3996 33.7008 29.9996C32.5008 29.7996 31.6008 28.7996 31.4008 27.6996C31.0008 25.5996 32.8008 23.7996 34.9008 24.1996C36.0008 24.3996 37.0008 25.2996 37.2008 26.4996Z" fill="url(#paint14_linear_126_402)"/>
<path d="M48.1002 26.4996C48.5002 28.5996 46.7002 30.3996 44.6002 29.9996C43.4002 29.7996 42.5002 28.7996 42.3002 27.6996C41.9002 25.5996 43.7002 23.7996 45.8002 24.1996C47.0002 24.3996 47.9002 25.2996 48.1002 26.4996Z" fill="url(#paint15_linear_126_402)"/>
<path d="M37.2008 4.69981C37.6008 6.79981 35.8008 8.59981 33.7008 8.19981C32.5008 7.99981 31.6008 6.99981 31.4008 5.89981C31.0008 3.79981 32.8008 1.99981 34.9008 2.39981C36.0008 2.59981 37.0008 3.59981 37.2008 4.69981Z" fill="url(#paint16_linear_126_402)"/>
<path d="M37.2008 15.4996C37.6008 17.5996 35.8008 19.3996 33.7008 18.9996C32.5008 18.7996 31.6008 17.7996 31.4008 16.6996C31.0008 14.5996 32.8008 12.7996 34.9008 13.1996C36.0008 13.3996 37.0008 14.3996 37.2008 15.4996Z" fill="url(#paint17_linear_126_402)"/>
<path d="M48.1002 4.69981C48.5002 6.79981 46.7002 8.59981 44.6002 8.19981C43.4002 7.99981 42.5002 6.99981 42.3002 5.89981C41.9002 3.79981 43.7002 1.99981 45.8002 2.39981C47.0002 2.59981 47.9002 3.59981 48.1002 4.69981Z" fill="url(#paint18_linear_126_402)"/>
<path d="M24.8007 59.0999C25.2007 60.2999 24.1007 61.3999 22.9007 60.9999C22.5007 60.8999 22.1007 60.4999 22.0007 60.0999C21.6007 58.8999 22.7007 57.7999 23.9007 58.1999C24.4007 58.2999 24.7007 58.6999 24.8007 59.0999Z" fill="url(#paint19_linear_126_402)"/>
<path d="M3.10047 48.3997C3.50047 49.5997 2.40046 50.6997 1.20046 50.2997C0.800465 50.1997 0.400471 49.7997 0.300471 49.3997C-0.0995293 48.1997 1.00046 47.0997 2.20046 47.4997C2.60046 47.5997 3.00047 47.8997 3.10047 48.3997Z" fill="url(#paint20_linear_126_402)"/>
<path d="M24.8007 48.3997C25.2007 49.5997 24.1007 50.6997 22.9007 50.2997C22.5007 50.1997 22.1007 49.7997 22.0007 49.3997C21.6007 48.1997 22.7007 47.0997 23.9007 47.4997C24.4007 47.5997 24.7007 47.8997 24.8007 48.3997Z" fill="url(#paint21_linear_126_402)"/>
<path d="M14.0009 37.3997C14.4009 38.5997 13.3009 39.6997 12.1009 39.2997C11.7009 39.1997 11.3009 38.7997 11.2009 38.3997C10.8009 37.1997 11.9009 36.0997 13.1009 36.4997C13.5009 36.6997 13.8009 36.9997 14.0009 37.3997Z" fill="url(#paint22_linear_126_402)"/>
<path d="M3.10047 37.3997C3.50047 38.5997 2.40046 39.6997 1.20046 39.2997C0.800465 39.1997 0.400471 38.7997 0.300471 38.3997C-0.0995293 37.1997 1.00046 36.0997 2.20046 36.4997C2.60046 36.6997 3.00047 36.9997 3.10047 37.3997Z" fill="url(#paint23_linear_126_402)"/>
<path d="M24.8007 37.3997C25.2007 38.5997 24.1007 39.6997 22.9007 39.2997C22.5007 39.1997 22.1007 38.7997 22.0007 38.3997C21.6007 37.1997 22.7007 36.0997 23.9007 36.4997C24.4007 36.6997 24.7007 36.9997 24.8007 37.3997Z" fill="url(#paint24_linear_126_402)"/>
<path d="M3.10047 26.4998C3.50047 27.6998 2.40046 28.7998 1.20046 28.3998C0.800465 28.2998 0.400471 27.8998 0.300471 27.4998C-0.0995293 26.2998 1.00046 25.1998 2.20046 25.5998C2.60046 25.7998 3.00047 26.0998 3.10047 26.4998Z" fill="url(#paint25_linear_126_402)"/>
<path d="M24.8007 26.4998C25.2007 27.6998 24.1007 28.7998 22.9007 28.3998C22.5007 28.2998 22.1007 27.8998 22.0007 27.4998C21.6007 26.2998 22.7007 25.1998 23.9007 25.5998C24.4007 25.7998 24.7007 26.0998 24.8007 26.4998Z" fill="url(#paint26_linear_126_402)"/>
<path d="M3.10047 4.79959C3.50047 5.99959 2.40046 7.09959 1.20046 6.69959C0.800465 6.59959 0.400471 6.19959 0.300471 5.79959C-0.0995293 4.59959 1.00046 3.49959 2.20046 3.89959C2.60046 3.99959 3.00047 4.39959 3.10047 4.79959Z" fill="url(#paint27_linear_126_402)"/>
<path d="M24.8007 4.79959C25.2007 5.99959 24.1007 7.09959 22.9007 6.69959C22.5007 6.59959 22.1007 6.19959 22.0007 5.79959C21.6007 4.59959 22.7007 3.49959 23.9007 3.89959C24.4007 3.99959 24.7007 4.39959 24.8007 4.79959Z" fill="url(#paint28_linear_126_402)"/>
<path d="M34.1006 16.0997C34.1006 16.0997 36.0006 13.1997 34.4006 13.1997C31.6006 13.1997 30.6006 14.9997 27.6006 14.9997C24.6006 14.9997 25.4006 14.7997 23.5006 14.7997C22.2006 14.7997 23.6006 16.1997 23.6006 16.1997C23.6006 16.1997 22.1006 17.6997 23.5006 17.6997C25.4006 17.6997 24.6006 17.3997 27.6006 17.2997C30.6006 17.2997 31.4006 19.0997 34.4006 19.0997C36.0006 19.0997 34.1006 16.0997 34.1006 16.0997Z" fill="url(#paint29_linear_126_402)"/>
<path d="M34.1006 48.7999C34.1006 48.7999 36.0006 45.8999 34.4006 45.8999C31.6006 45.8999 30.6006 47.6999 27.6006 47.6999C24.6006 47.6999 25.4006 47.4999 23.5006 47.4999C22.2006 47.4999 23.6006 48.8999 23.6006 48.8999C23.6006 48.8999 22.1006 50.3999 23.5006 50.3999C25.4006 50.3999 24.6006 50.0999 27.6006 49.9999C30.6006 49.9999 31.4006 51.7999 34.4006 51.7999C36.0006 51.6999 34.1006 48.7999 34.1006 48.7999Z" fill="url(#paint30_linear_126_402)"/>
<path d="M45.2009 24.0996C42.4009 24.0996 42.8009 25.5996 39.8009 25.5996C36.8009 25.5996 36.2009 24.0996 34.3009 24.0996C33.0009 24.0996 32.9009 29.9996 34.3009 29.9996C36.2009 29.9996 36.8009 28.4996 39.8009 28.4996C42.8009 28.4996 42.2009 29.9996 45.2009 29.9996C46.9009 29.9996 46.9009 24.0996 45.2009 24.0996Z" fill="url(#paint31_linear_126_402)"/>
<path d="M60.7009 37.1997C61.2009 40.1997 58.6009 42.6997 55.6009 42.2997C53.7009 41.9997 52.2008 40.4997 51.9008 38.5997C51.4008 35.5997 54.0009 33.0997 57.0009 33.4997C58.9009 33.7997 60.4009 35.3997 60.7009 37.1997Z" fill="url(#paint32_linear_126_402)"/>
<path d="M56.9006 37.8C56.9006 37.8 58.6006 33.5 56.8006 33.5C52.8006 33.5 53.3006 35.4 50.0006 35.5C46.7006 35.5 47.4006 34.9 45.4006 35C43.4006 35 45.4006 37.9 45.4006 37.9C45.4006 37.9 43.4006 40.8 45.4006 40.8C47.4006 40.8 46.7006 40.2 50.0006 40.2C53.3006 40.2 52.4006 42.4 56.7006 42.4C58.6006 42.3 56.9006 37.8 56.9006 37.8Z" fill="url(#paint33_linear_126_402)"/>
<path d="M23.4006 26.8996V25.5996C21.3006 25.5996 21.1006 26.4996 18.0006 26.4996C14.9006 26.4996 14.8006 25.5996 12.6006 25.5996V28.4996C14.5006 28.4996 14.9006 27.4996 18.0006 27.4996C21.1006 27.4996 21.2006 28.4996 23.4006 28.4996V26.8996Z" fill="url(#paint34_linear_126_402)"/>
<path d="M60.7009 59C61.2009 62 58.6009 64.5 55.6009 64.1C53.7009 63.8 52.2008 62.3 51.9008 60.4C51.4008 57.4 54.0009 54.9 57.0009 55.3C58.9009 55.7 60.4009 57.2 60.7009 59Z" fill="url(#paint35_linear_126_402)"/>
<path d="M60.7009 48.0996C61.2009 51.0996 58.6009 53.5996 55.6009 53.1996C53.7009 52.8996 52.2008 51.3996 51.9008 49.4996C51.4008 46.4996 54.0009 43.9996 57.0009 44.3996C58.9009 44.7996 60.4009 46.2996 60.7009 48.0996Z" fill="url(#paint36_linear_126_402)"/>
<path d="M60.7009 26.2998C61.2009 29.2998 58.6009 31.7998 55.6009 31.3998C53.7009 31.0998 52.2008 29.5998 51.9008 27.6998C51.4008 24.6998 54.0009 22.1998 57.0009 22.5998C58.9009 22.8998 60.4009 24.4998 60.7009 26.2998Z" fill="url(#paint37_linear_126_402)"/>
<path d="M60.7009 15.3999C61.2009 18.3999 58.6009 20.8999 55.6009 20.4999C53.7009 20.1999 52.2008 18.6999 51.9008 16.7999C51.4008 13.7999 54.0009 11.2999 57.0009 11.6999C58.9009 11.9999 60.4009 13.4999 60.7009 15.3999Z" fill="url(#paint38_linear_126_402)"/>
<path d="M60.7009 4.59962C61.2009 7.59962 58.6009 10.0996 55.6009 9.69962C53.7009 9.39962 52.2008 7.89962 51.9008 5.99962C51.4008 2.99962 54.0009 0.499624 57.0009 0.899624C58.9009 1.19962 60.4009 2.69962 60.7009 4.59962Z" fill="url(#paint39_linear_126_402)"/>
<path d="M56.9006 5.0998C56.9006 5.0998 58.6006 0.799805 56.8006 0.799805C52.8006 0.799805 53.3006 2.6998 50.0006 2.7998C46.7006 2.7998 47.4006 2.1998 45.4006 2.2998C43.4006 2.2998 45.4006 5.1998 45.4006 5.1998C45.4006 5.1998 43.4006 8.0998 45.4006 8.0998C47.4006 8.0998 46.7006 7.49981 50.0006 7.49981C53.3006 7.49981 52.4006 9.6998 56.7006 9.6998C58.6006 9.6998 56.9006 5.0998 56.9006 5.0998Z" fill="url(#paint40_linear_126_402)"/>
<defs>
<linearGradient id="paint0_linear_126_402" x1="0.581384" y1="16.1578" x2="60.2346" y2="16.1578" gradientUnits="userSpaceOnUse">
<stop stop-color="#7ADED4"/>
<stop offset="0.33" stop-color="#4EC1E0"/>
<stop offset="0.66" stop-color="#0075C9"/>
<stop offset="1" stop-color="#1825AA"/>
</linearGradient>
<linearGradient id="paint1_linear_126_402" x1="0.581976" y1="37.8704" x2="60.2352" y2="37.8704" gradientUnits="userSpaceOnUse">
<stop stop-color="#7ADED4"/>
<stop offset="0.33" stop-color="#4EC1E0"/>
<stop offset="0.66" stop-color="#0075C9"/>
<stop offset="1" stop-color="#1825AA"/>
</linearGradient>
<linearGradient id="paint2_linear_126_402" x1="0.581384" y1="37.8704" x2="60.2346" y2="37.8704" gradientUnits="userSpaceOnUse">
<stop stop-color="#7ADED4"/>
<stop offset="0.33" stop-color="#4EC1E0"/>
<stop offset="0.66" stop-color="#0075C9"/>
<stop offset="1" stop-color="#1825AA"/>
</linearGradient>
<linearGradient id="paint3_linear_126_402" x1="0.582051" y1="5.28579" x2="60.2353" y2="5.28579" gradientUnits="userSpaceOnUse">
<stop stop-color="#7ADED4"/>
<stop offset="0.33" stop-color="#4EC1E0"/>
<stop offset="0.66" stop-color="#0075C9"/>
<stop offset="1" stop-color="#1825AA"/>
</linearGradient>
<linearGradient id="paint4_linear_126_402" x1="0.582051" y1="27.0297" x2="60.2353" y2="27.0297" gradientUnits="userSpaceOnUse">
<stop stop-color="#7ADED4"/>
<stop offset="0.33" stop-color="#4EC1E0"/>
<stop offset="0.66" stop-color="#0075C9"/>
<stop offset="1" stop-color="#1825AA"/>
</linearGradient>
<linearGradient id="paint5_linear_126_402" x1="0.582051" y1="16.0956" x2="60.2353" y2="16.0956" gradientUnits="userSpaceOnUse">
<stop stop-color="#7ADED4"/>
<stop offset="0.33" stop-color="#4EC1E0"/>
<stop offset="0.66" stop-color="#0075C9"/>
<stop offset="1" stop-color="#1825AA"/>
</linearGradient>
<linearGradient id="paint6_linear_126_402" x1="0.582051" y1="48.8356" x2="60.2353" y2="48.8356" gradientUnits="userSpaceOnUse">
<stop stop-color="#7ADED4"/>
<stop offset="0.33" stop-color="#4EC1E0"/>
<stop offset="0.66" stop-color="#0075C9"/>
<stop offset="1" stop-color="#1825AA"/>
</linearGradient>
<linearGradient id="paint7_linear_126_402" x1="0.582051" y1="59.7385" x2="60.2353" y2="59.7385" gradientUnits="userSpaceOnUse">
<stop stop-color="#7ADED4"/>
<stop offset="0.33" stop-color="#4EC1E0"/>
<stop offset="0.66" stop-color="#0075C9"/>
<stop offset="1" stop-color="#1825AA"/>
</linearGradient>
<linearGradient id="paint8_linear_126_402" x1="0.581866" y1="59.7385" x2="60.2351" y2="59.7385" gradientUnits="userSpaceOnUse">
<stop stop-color="#7ADED4"/>
<stop offset="0.33" stop-color="#4EC1E0"/>
<stop offset="0.66" stop-color="#0075C9"/>
<stop offset="1" stop-color="#1825AA"/>
</linearGradient>
<linearGradient id="paint9_linear_126_402" x1="0.581846" y1="16.1581" x2="60.2351" y2="16.1581" gradientUnits="userSpaceOnUse">
<stop stop-color="#7ADED4"/>
<stop offset="0.33" stop-color="#4EC1E0"/>
<stop offset="0.66" stop-color="#0075C9"/>
<stop offset="1" stop-color="#1825AA"/>
</linearGradient>
<linearGradient id="paint10_linear_126_402" x1="0.581384" y1="59.5982" x2="60.2346" y2="59.5982" gradientUnits="userSpaceOnUse">
<stop stop-color="#7ADED4"/>
<stop offset="0.33" stop-color="#4EC1E0"/>
<stop offset="0.66" stop-color="#0075C9"/>
<stop offset="1" stop-color="#1825AA"/>
</linearGradient>
<linearGradient id="paint11_linear_126_402" x1="0.581976" y1="48.8358" x2="60.2352" y2="48.8358" gradientUnits="userSpaceOnUse">
<stop stop-color="#7ADED4"/>
<stop offset="0.33" stop-color="#4EC1E0"/>
<stop offset="0.66" stop-color="#0075C9"/>
<stop offset="1" stop-color="#1825AA"/>
</linearGradient>
<linearGradient id="paint12_linear_126_402" x1="0.581976" y1="59.5982" x2="60.2352" y2="59.5982" gradientUnits="userSpaceOnUse">
<stop stop-color="#7ADED4"/>
<stop offset="0.33" stop-color="#4EC1E0"/>
<stop offset="0.66" stop-color="#0075C9"/>
<stop offset="1" stop-color="#1825AA"/>
</linearGradient>
<linearGradient id="paint13_linear_126_402" x1="0.581384" y1="48.8358" x2="60.2346" y2="48.8358" gradientUnits="userSpaceOnUse">
<stop stop-color="#7ADED4"/>
<stop offset="0.33" stop-color="#4EC1E0"/>
<stop offset="0.66" stop-color="#0075C9"/>
<stop offset="1" stop-color="#1825AA"/>
</linearGradient>
<linearGradient id="paint14_linear_126_402" x1="0.581976" y1="27.0295" x2="60.2352" y2="27.0295" gradientUnits="userSpaceOnUse">
<stop stop-color="#7ADED4"/>
<stop offset="0.33" stop-color="#4EC1E0"/>
<stop offset="0.66" stop-color="#0075C9"/>
<stop offset="1" stop-color="#1825AA"/>
</linearGradient>
<linearGradient id="paint15_linear_126_402" x1="0.581384" y1="27.0295" x2="60.2346" y2="27.0295" gradientUnits="userSpaceOnUse">
<stop stop-color="#7ADED4"/>
<stop offset="0.33" stop-color="#4EC1E0"/>
<stop offset="0.66" stop-color="#0075C9"/>
<stop offset="1" stop-color="#1825AA"/>
</linearGradient>
<linearGradient id="paint16_linear_126_402" x1="0.581976" y1="5.28601" x2="60.2352" y2="5.28601" gradientUnits="userSpaceOnUse">
<stop stop-color="#7ADED4"/>
<stop offset="0.33" stop-color="#4EC1E0"/>
<stop offset="0.66" stop-color="#0075C9"/>
<stop offset="1" stop-color="#1825AA"/>
</linearGradient>
<linearGradient id="paint17_linear_126_402" x1="0.581976" y1="16.0953" x2="60.2352" y2="16.0953" gradientUnits="userSpaceOnUse">
<stop stop-color="#7ADED4"/>
<stop offset="0.33" stop-color="#4EC1E0"/>
<stop offset="0.66" stop-color="#0075C9"/>
<stop offset="1" stop-color="#1825AA"/>
</linearGradient>
<linearGradient id="paint18_linear_126_402" x1="0.581384" y1="5.28601" x2="60.2346" y2="5.28601" gradientUnits="userSpaceOnUse">
<stop stop-color="#7ADED4"/>
<stop offset="0.33" stop-color="#4EC1E0"/>
<stop offset="0.66" stop-color="#0075C9"/>
<stop offset="1" stop-color="#1825AA"/>
</linearGradient>
<linearGradient id="paint19_linear_126_402" x1="0.581846" y1="59.5985" x2="60.2351" y2="59.5985" gradientUnits="userSpaceOnUse">
<stop stop-color="#7ADED4"/>
<stop offset="0.33" stop-color="#4EC1E0"/>
<stop offset="0.66" stop-color="#0075C9"/>
<stop offset="1" stop-color="#1825AA"/>
</linearGradient>
<linearGradient id="paint20_linear_126_402" x1="0.58167" y1="48.8356" x2="60.2348" y2="48.8356" gradientUnits="userSpaceOnUse">
<stop stop-color="#7ADED4"/>
<stop offset="0.33" stop-color="#4EC1E0"/>
<stop offset="0.66" stop-color="#0075C9"/>
<stop offset="1" stop-color="#1825AA"/>
</linearGradient>
<linearGradient id="paint21_linear_126_402" x1="0.581846" y1="48.8356" x2="60.2351" y2="48.8356" gradientUnits="userSpaceOnUse">
<stop stop-color="#7ADED4"/>
<stop offset="0.33" stop-color="#4EC1E0"/>
<stop offset="0.66" stop-color="#0075C9"/>
<stop offset="1" stop-color="#1825AA"/>
</linearGradient>
<linearGradient id="paint22_linear_126_402" x1="0.582051" y1="37.9327" x2="60.2353" y2="37.9327" gradientUnits="userSpaceOnUse">
<stop stop-color="#7ADED4"/>
<stop offset="0.33" stop-color="#4EC1E0"/>
<stop offset="0.66" stop-color="#0075C9"/>
<stop offset="1" stop-color="#1825AA"/>
</linearGradient>
<linearGradient id="paint23_linear_126_402" x1="0.58167" y1="37.9327" x2="60.2348" y2="37.9327" gradientUnits="userSpaceOnUse">
<stop stop-color="#7ADED4"/>
<stop offset="0.33" stop-color="#4EC1E0"/>
<stop offset="0.66" stop-color="#0075C9"/>
<stop offset="1" stop-color="#1825AA"/>
</linearGradient>
<linearGradient id="paint24_linear_126_402" x1="0.581846" y1="37.9327" x2="60.2351" y2="37.9327" gradientUnits="userSpaceOnUse">
<stop stop-color="#7ADED4"/>
<stop offset="0.33" stop-color="#4EC1E0"/>
<stop offset="0.66" stop-color="#0075C9"/>
<stop offset="1" stop-color="#1825AA"/>
</linearGradient>
<linearGradient id="paint25_linear_126_402" x1="0.58167" y1="27.0297" x2="60.2348" y2="27.0297" gradientUnits="userSpaceOnUse">
<stop stop-color="#7ADED4"/>
<stop offset="0.33" stop-color="#4EC1E0"/>
<stop offset="0.66" stop-color="#0075C9"/>
<stop offset="1" stop-color="#1825AA"/>
</linearGradient>
<linearGradient id="paint26_linear_126_402" x1="0.581846" y1="27.0297" x2="60.2351" y2="27.0297" gradientUnits="userSpaceOnUse">
<stop stop-color="#7ADED4"/>
<stop offset="0.33" stop-color="#4EC1E0"/>
<stop offset="0.66" stop-color="#0075C9"/>
<stop offset="1" stop-color="#1825AA"/>
</linearGradient>
<linearGradient id="paint27_linear_126_402" x1="0.58167" y1="5.28579" x2="60.2348" y2="5.28579" gradientUnits="userSpaceOnUse">
<stop stop-color="#7ADED4"/>
<stop offset="0.33" stop-color="#4EC1E0"/>
<stop offset="0.66" stop-color="#0075C9"/>
<stop offset="1" stop-color="#1825AA"/>
</linearGradient>
<linearGradient id="paint28_linear_126_402" x1="0.581846" y1="5.28579" x2="60.2351" y2="5.28579" gradientUnits="userSpaceOnUse">
<stop stop-color="#7ADED4"/>
<stop offset="0.33" stop-color="#4EC1E0"/>
<stop offset="0.66" stop-color="#0075C9"/>
<stop offset="1" stop-color="#1825AA"/>
</linearGradient>
<linearGradient id="paint29_linear_126_402" x1="0.581843" y1="16.1578" x2="60.235" y2="16.1578" gradientUnits="userSpaceOnUse">
<stop stop-color="#7ADED4"/>
<stop offset="0.33" stop-color="#4EC1E0"/>
<stop offset="0.66" stop-color="#0075C9"/>
<stop offset="1" stop-color="#1825AA"/>
</linearGradient>
<linearGradient id="paint30_linear_126_402" x1="0.581843" y1="48.7686" x2="60.235" y2="48.7686" gradientUnits="userSpaceOnUse">
<stop stop-color="#7ADED4"/>
<stop offset="0.33" stop-color="#4EC1E0"/>
<stop offset="0.66" stop-color="#0075C9"/>
<stop offset="1" stop-color="#1825AA"/>
</linearGradient>
<linearGradient id="paint31_linear_126_402" x1="0.58215" y1="27.0295" x2="60.2353" y2="27.0295" gradientUnits="userSpaceOnUse">
<stop stop-color="#7ADED4"/>
<stop offset="0.33" stop-color="#4EC1E0"/>
<stop offset="0.66" stop-color="#0075C9"/>
<stop offset="1" stop-color="#1825AA"/>
</linearGradient>
<linearGradient id="paint32_linear_126_402" x1="0.582029" y1="37.9326" x2="60.2352" y2="37.9326" gradientUnits="userSpaceOnUse">
<stop stop-color="#7ADED4"/>
<stop offset="0.33" stop-color="#4EC1E0"/>
<stop offset="0.66" stop-color="#0075C9"/>
<stop offset="1" stop-color="#1825AA"/>
</linearGradient>
<linearGradient id="paint33_linear_126_402" x1="0.581786" y1="37.933" x2="60.235" y2="37.933" gradientUnits="userSpaceOnUse">
<stop stop-color="#7ADED4"/>
<stop offset="0.33" stop-color="#4EC1E0"/>
<stop offset="0.66" stop-color="#0075C9"/>
<stop offset="1" stop-color="#1825AA"/>
</linearGradient>
<linearGradient id="paint34_linear_126_402" x1="0.581791" y1="27.0295" x2="60.235" y2="27.0295" gradientUnits="userSpaceOnUse">
<stop stop-color="#7ADED4"/>
<stop offset="0.33" stop-color="#4EC1E0"/>
<stop offset="0.66" stop-color="#0075C9"/>
<stop offset="1" stop-color="#1825AA"/>
</linearGradient>
<linearGradient id="paint35_linear_126_402" x1="0.582029" y1="59.7389" x2="60.2352" y2="59.7389" gradientUnits="userSpaceOnUse">
<stop stop-color="#7ADED4"/>
<stop offset="0.33" stop-color="#4EC1E0"/>
<stop offset="0.66" stop-color="#0075C9"/>
<stop offset="1" stop-color="#1825AA"/>
</linearGradient>
<linearGradient id="paint36_linear_126_402" x1="0.582029" y1="48.8355" x2="60.2352" y2="48.8355" gradientUnits="userSpaceOnUse">
<stop stop-color="#7ADED4"/>
<stop offset="0.33" stop-color="#4EC1E0"/>
<stop offset="0.66" stop-color="#0075C9"/>
<stop offset="1" stop-color="#1825AA"/>
</linearGradient>
<linearGradient id="paint37_linear_126_402" x1="0.582029" y1="27.0297" x2="60.2352" y2="27.0297" gradientUnits="userSpaceOnUse">
<stop stop-color="#7ADED4"/>
<stop offset="0.33" stop-color="#4EC1E0"/>
<stop offset="0.66" stop-color="#0075C9"/>
<stop offset="1" stop-color="#1825AA"/>
</linearGradient>
<linearGradient id="paint38_linear_126_402" x1="0.582029" y1="16.0956" x2="60.2352" y2="16.0956" gradientUnits="userSpaceOnUse">
<stop stop-color="#7ADED4"/>
<stop offset="0.33" stop-color="#4EC1E0"/>
<stop offset="0.66" stop-color="#0075C9"/>
<stop offset="1" stop-color="#1825AA"/>
</linearGradient>
<linearGradient id="paint39_linear_126_402" x1="0.582029" y1="5.28582" x2="60.2352" y2="5.28582" gradientUnits="userSpaceOnUse">
<stop stop-color="#7ADED4"/>
<stop offset="0.33" stop-color="#4EC1E0"/>
<stop offset="0.66" stop-color="#0075C9"/>
<stop offset="1" stop-color="#1825AA"/>
</linearGradient>
<linearGradient id="paint40_linear_126_402" x1="0.581786" y1="5.286" x2="60.235" y2="5.286" gradientUnits="userSpaceOnUse">
<stop stop-color="#7ADED4"/>
<stop offset="0.33" stop-color="#4EC1E0"/>
<stop offset="0.66" stop-color="#0075C9"/>
<stop offset="1" stop-color="#1825AA"/>
</linearGradient>
</defs>
</svg>
