<svg width="401" height="419" viewBox="0 0 401 419" fill="none" xmlns="http://www.w3.org/2000/svg">
<path d="M117.405 302.841C96.8053 287.741 73.9053 310.641 89.0053 331.241C89.2053 331.541 89.5053 331.74 89.7053 331.94C110.305 347.04 133.205 324.141 118.105 303.541C117.905 303.341 117.705 303.041 117.405 302.841Z" stroke="#4EC1E0" stroke-miterlimit="10"/>
<path d="M161.407 188.841C182.007 203.941 204.907 181.04 189.807 160.44C189.607 160.14 189.307 159.941 189.107 159.741C168.507 144.641 145.607 167.541 160.707 188.141C160.907 188.441 161.207 188.641 161.407 188.841Z" stroke="#4EC1E0" stroke-miterlimit="10"/>
<path d="M325.507 381.841C315.207 374.341 303.807 385.741 311.307 396.041C311.407 396.241 311.607 396.34 311.707 396.44C322.007 403.94 333.407 392.541 325.907 382.241C325.807 382.041 325.607 381.941 325.507 381.841Z" stroke="#4EC1E0" stroke-miterlimit="10"/>
<path d="M325.507 310.54C315.207 303.04 303.807 314.441 311.307 324.741C311.407 324.941 311.607 325.041 311.707 325.141C322.007 332.641 333.407 321.24 325.907 310.94C325.807 310.84 325.607 310.64 325.507 310.54Z" stroke="#4EC1E0" stroke-miterlimit="10"/>
<path d="M311.707 109.341C322.007 116.841 333.407 105.441 325.907 95.1406C325.807 94.9406 325.607 94.8407 325.507 94.7407C315.207 87.2407 303.807 98.6404 311.307 108.94C311.407 109.04 311.507 109.241 311.707 109.341Z" stroke="#4EC1E0" stroke-miterlimit="10"/>
<path d="M311.707 37.4404C322.007 44.9404 333.407 33.5407 325.907 23.2407C325.807 23.0407 325.607 22.9408 325.507 22.8408C315.207 15.3408 303.807 26.7405 311.307 37.0405C311.407 37.2405 311.507 37.3404 311.707 37.4404Z" stroke="#4EC1E0" stroke-miterlimit="10"/>
<path d="M381.707 37.4404C392.007 44.9404 403.407 33.5407 395.907 23.2407C395.807 23.0407 395.607 22.9408 395.507 22.8408C385.207 15.3408 373.807 26.7405 381.307 37.0405C381.407 37.2405 381.607 37.3404 381.707 37.4404Z" stroke="#4EC1E0" stroke-miterlimit="10"/>
<path d="M253.806 310.141C252.706 309.341 251.506 308.741 250.406 308.341C249.906 307.741 248.806 307.341 247.006 307.341C234.706 307.341 239.906 309.541 220.006 309.641C200.006 309.741 194.806 298.041 175.406 298.041C174.306 298.041 173.406 298.241 172.706 298.641C159.006 300.541 149.806 316.741 160.806 331.741C161.006 332.041 161.306 332.24 161.506 332.44C168.106 337.34 175.006 338.241 180.806 336.541C195.106 334.541 202.506 325.241 220.106 325.141C238.206 325.141 235.506 326.441 244.006 326.741C253.006 329.441 260.906 319.541 254.306 310.641C254.106 310.441 254.006 310.241 253.806 310.141Z" stroke="#4EC1E0" stroke-miterlimit="10"/>
<path d="M89.8049 45.6406C110.405 60.7406 133.305 37.8407 118.205 17.2407C118.005 16.9407 117.705 16.7405 117.505 16.5405C96.9049 1.4405 74.0049 24.3404 89.1049 44.9404C89.2049 45.1404 89.5049 45.4406 89.8049 45.6406Z" stroke="#4EC1E0" stroke-miterlimit="10"/>
<path d="M161.405 116.64C165.105 119.34 168.905 120.841 172.505 121.341C173.205 121.741 174.105 122.04 175.305 122.04C193.405 122.04 200.305 110.341 220.105 110.341C240.105 110.341 234.705 111.94 247.005 111.94C247.805 111.94 248.405 111.841 249.005 111.741C255.505 110.441 259.605 102.641 254.305 95.3407C254.205 95.1407 254.005 95.0403 253.905 94.9403C251.305 93.0403 248.605 92.3404 246.205 92.5404C235.005 92.6404 239.505 94.7407 220.005 94.8407C202.105 94.9407 196.005 85.5404 180.905 83.5404C163.105 78.5404 147.605 98.1404 160.805 116.04C160.905 116.14 161.205 116.34 161.405 116.64Z" stroke="#4EC1E0" stroke-miterlimit="10"/>
<path d="M161.407 45.6406C182.007 60.7406 204.907 37.8407 189.807 17.2407C189.607 16.9407 189.307 16.7405 189.107 16.5405C168.507 1.4405 145.607 24.3404 160.707 44.9404C160.907 45.1404 161.207 45.4406 161.407 45.6406Z" stroke="#4EC1E0" stroke-miterlimit="10"/>
<path d="M89.4065 116.641C110.007 131.741 132.907 108.841 117.807 88.2407C117.607 87.9407 117.307 87.7405 117.107 87.5405C96.5065 72.4405 73.6065 95.3404 88.7065 115.94C88.9065 116.14 89.1065 116.341 89.4065 116.641Z" stroke="#4EC1E0" stroke-miterlimit="10"/>
<path d="M189.107 374.541C168.507 359.441 145.607 382.34 160.707 402.94C160.907 403.24 161.207 403.441 161.407 403.641C182.007 418.741 204.907 395.841 189.807 375.241C189.607 375.041 189.407 374.741 189.107 374.541Z" stroke="#4EC1E0" stroke-miterlimit="10"/>
<path d="M117.006 374.54C110.306 369.64 103.406 368.74 97.6057 370.44C89.0057 371.24 90.7057 374.241 71.4057 374.341C52.7057 374.441 54.4057 363.841 37.3057 360.741C34.1057 359.941 31.0057 359.74 28.0057 359.94C27.7057 359.94 27.3057 359.94 27.0057 359.94C26.2057 359.94 25.5057 360.141 24.9057 360.341C5.00566 363.941 -7.89435 387.741 8.40565 409.741C8.70565 410.141 9.00566 410.541 9.40566 410.741C14.5057 414.541 19.8057 416.74 24.9057 417.64C25.5057 417.94 26.2057 418.04 27.1057 418.04C27.5057 418.04 27.8057 418.04 28.1057 418.04C31.2057 418.24 34.2057 417.941 37.1057 417.341C53.2057 414.541 53.1057 405.24 71.7057 405.14C93.5057 404.94 88.5057 408.841 101.906 408.741C102.806 408.741 103.606 408.64 104.306 408.44C118.906 407.74 129.306 390.841 117.906 375.241C117.606 375.041 117.306 374.74 117.006 374.54Z" stroke="#4EC1E0" stroke-miterlimit="10"/>
<path d="M240.005 38.4404C250.305 45.9404 261.705 34.5407 254.205 24.2407C254.105 24.0407 253.905 23.9408 253.805 23.8408C243.505 16.3408 232.105 27.7405 239.605 38.0405C239.705 38.1405 239.905 38.2404 240.005 38.4404Z" stroke="#4EC1E0" stroke-miterlimit="10"/>
<path d="M397.106 94.7407C386.806 87.2407 375.406 98.6404 382.906 108.94C383.006 109.14 383.206 109.241 383.306 109.341C393.606 116.841 405.006 105.441 397.506 95.1406C397.406 95.0406 397.306 94.8407 397.106 94.7407Z" stroke="#4EC1E0" stroke-miterlimit="10"/>
<path d="M311.707 181.241C322.007 188.741 333.407 177.34 325.907 167.04C325.807 166.84 325.607 166.741 325.507 166.641C315.207 159.141 303.807 170.541 311.307 180.841C311.407 180.941 311.507 181.041 311.707 181.241Z" stroke="#4EC1E0" stroke-miterlimit="10"/>
<path d="M397.106 166.641C386.806 159.141 375.406 170.541 382.906 180.841C383.006 181.041 383.206 181.141 383.306 181.241C393.606 188.741 405.006 177.34 397.506 167.04C397.406 166.84 397.306 166.741 397.106 166.641Z" stroke="#4EC1E0" stroke-miterlimit="10"/>
<path d="M254.205 167.04C254.105 166.84 253.905 166.741 253.805 166.641C243.505 159.141 232.105 170.541 239.605 180.841C239.705 181.041 239.905 181.141 240.005 181.241C250.305 188.741 261.705 177.24 254.205 167.04Z" stroke="#4EC1E0" stroke-miterlimit="10"/>
<path d="M397.106 238.44C386.806 230.94 375.406 242.341 382.906 252.641C383.006 252.841 383.206 252.94 383.306 253.04C393.606 260.54 405.006 249.141 397.506 238.841C397.406 238.741 397.306 238.54 397.106 238.44Z" stroke="#4EC1E0" stroke-miterlimit="10"/>
<path d="M247.106 235.641C247.006 235.641 247.506 236.041 246.506 236.041C239.506 236.041 233.606 244.641 239.406 252.641C239.506 252.841 239.606 252.941 239.706 253.041C242.006 254.741 244.506 255.44 246.506 255.44C261.506 255.44 262.006 249.641 282.606 249.641C303.106 249.541 304.106 255.641 318.406 255.641C318.506 255.641 318.506 255.541 318.506 255.541C326.506 255.541 331.706 246.94 325.806 238.94C325.706 238.74 325.606 238.641 325.406 238.541C323.006 236.841 320.406 236.141 318.406 236.141C305.406 236.141 303.306 242.441 282.606 242.541C262.206 242.541 261.906 235.641 247.106 235.641Z" stroke="#4EC1E0" stroke-miterlimit="10"/>
<path d="M397.106 381.841C386.806 374.341 375.406 385.741 382.906 396.041C383.006 396.241 383.206 396.34 383.306 396.44C393.606 403.94 405.006 392.541 397.506 382.241C397.406 382.041 397.306 381.941 397.106 381.841Z" stroke="#4EC1E0" stroke-miterlimit="10"/>
<path d="M253.805 381.841C243.505 374.341 232.105 385.741 239.605 396.041C239.705 396.241 239.905 396.34 240.005 396.44C250.305 403.94 261.705 392.541 254.205 382.241C254.105 382.041 254.005 381.941 253.805 381.841Z" stroke="#4EC1E0" stroke-miterlimit="10"/>
<path d="M103.107 226.341C88.0066 226.441 77.0066 243.741 88.7066 259.541C88.9066 259.841 89.2066 260.041 89.4066 260.241C94.0066 263.641 98.8066 265.141 103.207 265.141C103.307 265.141 103.407 265.141 103.407 265.141C121.507 265.141 119.207 255.44 139.007 255.44C158.707 255.44 162.907 264.841 174.707 265.141C174.807 265.141 174.907 265.141 175.007 265.141C175.107 265.141 175.207 265.141 175.307 265.141C175.407 265.141 175.507 265.141 175.607 265.141C190.607 264.941 201.507 247.74 189.807 231.94C189.607 231.64 189.307 231.441 189.107 231.241C184.507 227.841 179.807 226.441 175.407 226.341C175.307 226.341 175.307 226.341 175.207 226.341C162.907 226.341 158.907 235.941 138.907 236.041C118.907 236.141 122.807 226.341 103.307 226.341C103.307 226.341 103.207 226.341 103.107 226.341Z" stroke="#4EC1E0" stroke-miterlimit="10"/>
<path d="M9.40487 195.741C14.5049 199.541 19.8049 201.74 24.9049 202.64C25.5049 202.94 26.2049 203.04 27.1049 203.04C27.5049 203.04 27.8049 203.04 28.1049 203.04C31.2049 203.24 34.2049 202.941 37.1049 202.341C53.2049 199.541 53.1049 190.24 71.7049 190.14C92.8049 189.94 88.8049 193.541 100.805 193.741C117.205 195.841 130.305 177.44 117.905 160.64C117.705 160.34 117.405 160.14 117.205 159.94C111.405 155.64 105.405 154.441 100.105 155.341C88.8049 155.741 92.4049 159.24 71.6049 159.44C52.9049 159.54 54.7049 148.941 37.5049 145.841C34.3049 145.041 31.2049 144.84 28.2049 145.04C27.9049 145.04 27.5049 145.04 27.2049 145.04C26.4049 145.04 25.7049 145.24 25.1049 145.44C5.20487 149.04 -7.69512 172.841 8.60488 194.841C8.60488 195.041 9.00487 195.441 9.40487 195.741Z" stroke="#4EC1E0" stroke-miterlimit="10"/>
<path d="M9.40526 51.9405C40.3053 74.6405 74.7053 40.2409 52.0053 9.34085C51.7053 8.94085 51.4053 8.54085 51.0053 8.34085C20.1053 -14.3591 -14.2947 20.0405 8.40525 50.9405C8.60525 51.3405 9.00526 51.6405 9.40526 51.9405Z" stroke="#4EC1E0" stroke-miterlimit="10"/>
<path d="M9.40526 123.841C40.3053 146.541 74.7053 112.141 52.0053 81.2407C51.7053 80.8407 51.4053 80.4407 51.0053 80.2407C20.1053 57.5407 -14.2947 91.9408 8.40525 122.841C8.60525 123.241 9.00526 123.541 9.40526 123.841Z" stroke="#4EC1E0" stroke-miterlimit="10"/>
<path d="M9.40526 267.54C40.3053 290.24 74.7053 255.84 52.0053 224.94C51.7053 224.54 51.4053 224.14 51.0053 223.94C20.1053 201.24 -14.2947 235.64 8.40525 266.54C8.60525 266.94 9.00526 267.34 9.40526 267.54Z" stroke="#4EC1E0" stroke-miterlimit="10"/>
<path d="M9.40526 339.641C40.3053 362.341 74.7053 327.94 52.0053 297.04C51.7053 296.64 51.4053 296.24 51.0053 296.04C20.1053 273.34 -14.2947 307.741 8.40525 338.641C8.60525 339.041 9.00526 339.341 9.40526 339.641Z" stroke="#4EC1E0" stroke-miterlimit="10"/>
</svg>
