<svg width="400" height="418" viewBox="0 0 400 418" fill="none" xmlns="http://www.w3.org/2000/svg">
<path d="M283.506 115.341C304.106 130.441 327.006 107.541 311.906 86.9406C311.706 86.6406 311.406 86.4407 311.206 86.2407C290.606 71.1407 267.706 94.0406 282.806 114.641C283.006 114.941 283.306 115.141 283.506 115.341Z" fill="#D7D7D7"/>
<path d="M239.507 229.44C218.907 214.34 196.007 237.24 211.107 257.84C211.307 258.14 211.607 258.34 211.807 258.54C232.407 273.64 255.307 250.74 240.207 230.14C240.007 229.84 239.807 229.64 239.507 229.44Z" fill="#D7D7D7"/>
<path d="M75.5054 36.4404C85.8054 43.9404 97.2055 32.5404 89.7055 22.2404C89.6055 22.0404 89.4054 21.9403 89.3054 21.8403C79.0054 14.3403 67.6054 25.7402 75.1054 36.0402C75.2054 36.2402 75.3054 36.3404 75.5054 36.4404Z" fill="#D7D7D7"/>
<path d="M75.5054 107.741C85.8054 115.241 97.2055 103.84 89.7055 93.5405C89.6055 93.3405 89.4054 93.2406 89.3054 93.1406C79.0054 85.6406 67.6054 97.0405 75.1054 107.341C75.2054 107.441 75.3054 107.641 75.5054 107.741Z" fill="#D7D7D7"/>
<path d="M89.2058 308.94C78.9058 301.44 67.5058 312.84 75.0058 323.14C75.1058 323.34 75.3058 323.44 75.4058 323.54C85.7058 331.04 97.1058 319.64 89.6058 309.34C89.6058 309.24 89.4058 309.04 89.2058 308.94Z" fill="#D7D7D7"/>
<path d="M89.2058 380.84C78.9058 373.34 67.5058 384.74 75.0058 395.04C75.1058 395.24 75.3058 395.34 75.4058 395.44C85.7058 402.94 97.1058 391.54 89.6058 381.24C89.6058 381.04 89.4058 380.94 89.2058 380.84Z" fill="#D7D7D7"/>
<path d="M19.2058 380.84C8.90583 373.34 -2.49419 384.74 5.00581 395.04C5.10581 395.24 5.30584 395.34 5.40584 395.44C15.7058 402.94 27.1058 391.54 19.6058 381.24C19.5058 381.04 19.4058 380.94 19.2058 380.84Z" fill="#D7D7D7"/>
<path d="M147.207 108.14C148.307 108.94 149.507 109.54 150.607 109.94C151.107 110.54 152.207 110.94 154.007 110.94C166.307 110.94 161.107 108.74 181.007 108.64C201.007 108.54 206.207 120.24 225.607 120.24C226.707 120.24 227.607 120.04 228.307 119.64C242.007 117.74 251.207 101.54 240.207 86.5403C240.007 86.2403 239.707 86.0403 239.507 85.8403C232.907 80.9403 226.007 80.0405 220.207 81.7405C205.907 83.7405 198.507 93.0404 180.907 93.1404C162.807 93.1404 165.507 91.8403 157.007 91.5403C148.007 88.8403 140.107 98.7404 146.707 107.64C146.807 107.84 147.007 108.04 147.207 108.14Z" fill="#D7D7D7"/>
<path d="M311.206 372.64C290.606 357.54 267.706 380.44 282.806 401.04C283.006 401.34 283.306 401.54 283.506 401.74C304.106 416.84 327.006 393.94 311.906 373.34C311.706 373.04 311.506 372.84 311.206 372.64Z" fill="#D7D7D7"/>
<path d="M239.505 301.64C235.805 298.94 232.006 297.44 228.406 296.94C227.706 296.54 226.805 296.24 225.605 296.24C207.505 296.24 200.606 307.94 180.806 307.94C160.806 307.94 166.206 306.34 153.906 306.34C153.106 306.34 152.506 306.44 151.906 306.54C145.406 307.84 141.305 315.64 146.605 322.94C146.705 323.14 146.905 323.24 147.005 323.34C149.605 325.24 152.305 325.94 154.705 325.74C165.905 325.64 161.406 323.54 180.906 323.44C198.806 323.34 204.905 332.74 220.005 334.74C237.805 339.74 253.305 320.14 240.105 302.24C240.005 302.14 239.805 301.84 239.505 301.64Z" fill="#D7D7D7"/>
<path d="M239.507 372.64C218.907 357.54 196.007 380.44 211.107 401.04C211.307 401.34 211.607 401.54 211.807 401.74C232.407 416.84 255.307 393.94 240.207 373.34C240.007 373.04 239.807 372.84 239.507 372.64Z" fill="#D7D7D7"/>
<path d="M311.507 301.64C290.907 286.54 268.007 309.44 283.107 330.04C283.307 330.34 283.607 330.54 283.807 330.74C304.407 345.84 327.307 322.94 312.207 302.34C312.107 302.14 311.807 301.84 311.507 301.64Z" fill="#D7D7D7"/>
<path d="M211.907 43.7402C232.507 58.8402 255.407 35.9401 240.307 15.3401C240.107 15.0401 239.807 14.8401 239.607 14.6401C219.007 -0.459888 196.107 22.44 211.207 43.04C211.307 43.24 211.607 43.5402 211.907 43.7402Z" fill="#D7D7D7"/>
<path d="M283.906 43.7404C290.606 48.6404 297.506 49.5403 303.306 47.8403C311.906 47.0403 310.206 44.0404 329.506 43.9404C348.206 43.8404 346.506 54.4402 363.606 57.5402C366.806 58.3402 369.906 58.5403 372.906 58.3403C373.206 58.3403 373.606 58.3403 373.906 58.3403C374.706 58.3403 375.406 58.1404 376.006 57.9404C395.906 54.3404 408.806 30.5402 392.506 8.54023C392.206 8.14023 391.906 7.74023 391.506 7.54023C386.406 3.74023 381.106 1.54032 376.006 0.640323C375.406 0.340323 374.706 0.240421 373.806 0.240421C373.406 0.240421 373.106 0.240421 372.806 0.240421C369.706 0.0404209 366.706 0.340372 363.806 0.940372C347.706 3.74037 347.806 13.0403 329.206 13.1403C307.406 13.3403 312.406 9.44023 299.006 9.54023C298.106 9.54023 297.306 9.64027 296.606 9.84027C282.006 10.5403 271.606 27.4402 283.006 43.0402C283.406 43.2402 283.606 43.5404 283.906 43.7404Z" fill="#D7D7D7"/>
<path d="M160.907 379.84C150.607 372.34 139.207 383.74 146.707 394.04C146.807 394.24 147.007 394.34 147.107 394.44C157.407 401.94 168.807 390.54 161.307 380.24C161.207 380.14 161.107 379.94 160.907 379.84Z" fill="#D7D7D7"/>
<path d="M3.80618 323.54C14.1062 331.04 25.5062 319.64 18.0062 309.34C17.9062 309.14 17.7062 309.04 17.6062 308.94C7.30616 301.44 -4.09379 312.84 3.40621 323.14C3.50621 323.24 3.70618 323.44 3.80618 323.54Z" fill="#D7D7D7"/>
<path d="M89.2058 237.04C78.9058 229.54 67.5058 240.94 75.0058 251.24C75.1058 251.44 75.3058 251.54 75.4058 251.64C85.7058 259.14 97.1058 247.74 89.6058 237.44C89.6058 237.34 89.4058 237.14 89.2058 237.04Z" fill="#D7D7D7"/>
<path d="M3.80618 251.64C14.1062 259.14 25.5062 247.74 18.0062 237.44C17.9062 237.24 17.7062 237.14 17.6062 237.04C7.30616 229.54 -4.09379 240.94 3.40621 251.24C3.50621 251.44 3.70618 251.54 3.80618 251.64Z" fill="#D7D7D7"/>
<path d="M146.707 251.24C146.807 251.44 147.007 251.54 147.107 251.64C157.407 259.14 168.807 247.74 161.307 237.44C161.207 237.24 161.007 237.14 160.907 237.04C150.607 229.54 139.207 240.94 146.707 251.24Z" fill="#D7D7D7"/>
<path d="M3.80618 179.84C14.1062 187.34 25.5062 175.94 18.0062 165.64C17.9062 165.44 17.7062 165.34 17.6062 165.24C7.30616 157.74 -4.09379 169.14 3.40621 179.44C3.50621 179.54 3.70618 179.64 3.80618 179.84Z" fill="#D7D7D7"/>
<path d="M153.905 183.14C154.005 183.14 153.005 182.24 154.005 182.24C161.005 182.24 167.105 173.64 161.305 165.64C161.205 165.44 161.005 165.34 160.905 165.24C158.605 163.54 156.005 162.84 154.005 162.84C139.005 162.84 138.705 168.84 118.105 168.94C97.6053 169.04 96.8053 163.24 82.6053 163.24C82.5053 163.24 82.1053 162.84 82.1053 162.84C74.1053 162.84 69.2053 171.44 75.0053 179.44C75.1053 179.64 75.1053 179.74 75.3053 179.84C77.7053 181.54 80.2053 182.24 82.2053 182.24C95.2053 182.24 97.5053 176.14 118.205 176.14C138.505 176.04 139.105 183.14 153.905 183.14Z" fill="#D7D7D7"/>
<path d="M3.80618 36.4404C14.1062 43.9404 25.5062 32.5404 18.0062 22.2404C17.9062 22.0404 17.7062 21.9403 17.6062 21.8403C7.30616 14.3403 -4.09379 25.7402 3.40621 36.0402C3.50621 36.2402 3.70618 36.3404 3.80618 36.4404Z" fill="#D7D7D7"/>
<path d="M147.207 36.4404C157.507 43.9404 168.907 32.5404 161.407 22.2404C161.307 22.0404 161.107 21.9403 161.007 21.8403C150.707 14.3403 139.307 25.7402 146.807 36.0402C146.807 36.2402 147.007 36.3404 147.207 36.4404Z" fill="#D7D7D7"/>
<path d="M297.807 191.941C312.907 191.841 323.907 174.541 312.207 158.741C312.007 158.441 311.707 158.241 311.507 158.041C306.907 154.641 302.107 153.141 297.707 153.141C297.607 153.141 297.507 153.141 297.507 153.141C279.407 153.141 281.707 162.841 261.907 162.841C242.207 162.841 238.007 153.441 226.207 153.141C226.107 153.141 226.007 153.141 225.907 153.141C225.807 153.141 225.707 153.141 225.607 153.141C225.507 153.141 225.407 153.141 225.307 153.141C210.307 153.341 199.407 170.541 211.107 186.341C211.307 186.641 211.607 186.841 211.807 187.041C216.407 190.441 221.107 191.841 225.507 191.941C225.607 191.941 225.607 191.941 225.707 191.941C238.007 191.941 242.007 182.341 262.007 182.241C282.007 182.141 278.107 191.941 297.607 191.941C297.607 191.941 297.707 191.941 297.807 191.941Z" fill="#D7D7D7"/>
<path d="M391.606 222.54C386.506 218.74 381.206 216.54 376.106 215.64C375.506 215.34 374.806 215.24 373.906 215.24C373.506 215.24 373.206 215.24 372.906 215.24C369.806 215.04 366.806 215.34 363.906 215.94C347.806 218.74 347.906 228.04 329.306 228.14C308.206 228.34 312.206 224.74 300.206 224.54C283.806 222.44 270.706 240.84 283.106 257.64C283.306 257.94 283.606 258.14 283.806 258.34C289.606 262.64 295.606 263.84 300.906 262.94C312.206 262.54 308.606 259.04 329.406 258.84C348.106 258.74 346.306 269.34 363.506 272.44C366.706 273.24 369.806 273.44 372.806 273.24C373.106 273.24 373.506 273.24 373.806 273.24C374.606 273.24 375.306 273.04 375.906 272.84C395.806 269.24 408.706 245.44 392.406 223.44C392.306 223.24 392.006 222.84 391.606 222.54Z" fill="#D7D7D7"/>
<path d="M391.607 366.34C360.707 343.64 326.307 378.04 349.007 408.94C349.307 409.34 349.607 409.74 350.007 409.94C380.907 432.64 415.307 398.24 392.607 367.34C392.307 366.94 392.007 366.54 391.607 366.34Z" fill="#D7D7D7"/>
<path d="M391.607 294.44C360.707 271.74 326.307 306.14 349.007 337.04C349.307 337.44 349.607 337.84 350.007 338.04C380.907 360.74 415.307 326.34 392.607 295.44C392.307 295.04 392.007 294.74 391.607 294.44Z" fill="#D7D7D7"/>
<path d="M391.607 150.641C360.707 127.941 326.307 162.341 349.007 193.241C349.307 193.641 349.607 194.041 350.007 194.241C380.907 216.941 415.307 182.541 392.607 151.641C392.307 151.341 392.007 150.941 391.607 150.641Z" fill="#D7D7D7"/>
<path d="M391.607 78.6406C360.707 55.9406 326.307 90.3407 349.007 121.241C349.307 121.641 349.607 122.041 350.007 122.241C380.907 144.941 415.307 110.541 392.607 79.6406C392.307 79.2406 392.007 78.9406 391.607 78.6406Z" fill="#D7D7D7"/>
</svg>
