<svg width="399" height="418" viewBox="0 0 399 418" fill="none" xmlns="http://www.w3.org/2000/svg">
<path d="M116.405 301.841C95.8053 286.741 72.9053 309.641 88.0053 330.241C88.2053 330.541 88.5053 330.741 88.7053 330.941C109.305 346.041 132.205 323.141 117.105 302.541C116.905 302.341 116.705 302.041 116.405 301.841Z" fill="#D7D7D7"/>
<path d="M160.407 187.841C181.007 202.941 203.907 180.041 188.807 159.441C188.607 159.141 188.307 158.941 188.107 158.741C167.507 143.641 144.607 166.541 159.707 187.141C159.907 187.441 160.207 187.641 160.407 187.841Z" fill="#D7D7D7"/>
<path d="M324.507 380.841C314.207 373.341 302.807 384.741 310.307 395.041C310.407 395.241 310.607 395.341 310.707 395.441C321.007 402.941 332.407 391.541 324.907 381.241C324.807 381.041 324.607 380.941 324.507 380.841Z" fill="#D7D7D7"/>
<path d="M324.507 309.541C314.207 302.041 302.807 313.441 310.307 323.741C310.407 323.941 310.607 324.041 310.707 324.141C321.007 331.641 332.407 320.241 324.907 309.941C324.807 309.841 324.607 309.641 324.507 309.541Z" fill="#D7D7D7"/>
<path d="M310.707 108.341C321.007 115.841 332.407 104.441 324.907 94.1411C324.807 93.9411 324.607 93.8412 324.507 93.7412C314.207 86.2412 302.807 97.6411 310.307 107.941C310.407 108.041 310.507 108.241 310.707 108.341Z" fill="#D7D7D7"/>
<path d="M310.707 36.4409C321.007 43.9409 332.407 32.5409 324.907 22.2409C324.807 22.0409 324.607 21.9408 324.507 21.8408C314.207 14.3408 302.807 25.7407 310.307 36.0407C310.407 36.2407 310.507 36.3409 310.707 36.4409Z" fill="#D7D7D7"/>
<path d="M380.707 36.4409C391.007 43.9409 402.407 32.5409 394.907 22.2409C394.807 22.0409 394.607 21.9408 394.507 21.8408C384.207 14.3408 372.807 25.7407 380.307 36.0407C380.407 36.2407 380.607 36.3409 380.707 36.4409Z" fill="#D7D7D7"/>
<path d="M252.806 309.141C251.706 308.341 250.506 307.741 249.406 307.341C248.906 306.741 247.806 306.341 246.006 306.341C233.706 306.341 238.906 308.541 219.006 308.641C199.006 308.741 193.806 297.041 174.406 297.041C173.306 297.041 172.406 297.241 171.706 297.641C158.006 299.541 148.806 315.741 159.806 330.741C160.006 331.041 160.306 331.241 160.506 331.441C167.106 336.341 174.006 337.241 179.806 335.541C194.106 333.541 201.506 324.241 219.106 324.141C237.206 324.141 234.506 325.441 243.006 325.741C252.006 328.441 259.906 318.541 253.306 309.641C253.106 309.441 253.006 309.241 252.806 309.141Z" fill="#D7D7D7"/>
<path d="M88.8049 44.6406C109.405 59.7406 132.305 36.8407 117.205 16.2407C117.005 15.9407 116.705 15.7405 116.505 15.5405C95.9049 0.440471 73.0049 23.3406 88.1049 43.9406C88.2049 44.1406 88.5049 44.4406 88.8049 44.6406Z" fill="#D7D7D7"/>
<path d="M160.405 115.641C164.105 118.341 167.905 119.841 171.505 120.341C172.205 120.741 173.105 121.041 174.305 121.041C192.405 121.041 199.305 109.341 219.105 109.341C239.105 109.341 233.705 110.941 246.005 110.941C246.805 110.941 247.405 110.841 248.005 110.741C254.505 109.441 258.605 101.641 253.305 94.3409C253.205 94.1409 253.005 94.041 252.905 93.941C250.305 92.041 247.605 91.3409 245.205 91.5409C234.005 91.6409 238.505 93.7409 219.005 93.8409C201.105 93.9409 195.005 84.5409 179.905 82.5409C162.105 77.5409 146.605 97.1409 159.805 115.041C159.905 115.141 160.205 115.341 160.405 115.641Z" fill="#D7D7D7"/>
<path d="M160.407 44.6406C181.007 59.7406 203.907 36.8407 188.807 16.2407C188.607 15.9407 188.307 15.7405 188.107 15.5405C167.507 0.440471 144.607 23.3406 159.707 43.9406C159.907 44.1406 160.207 44.4406 160.407 44.6406Z" fill="#D7D7D7"/>
<path d="M88.4065 115.641C109.007 130.741 131.907 107.841 116.807 87.2407C116.607 86.9407 116.307 86.7405 116.107 86.5405C95.5065 71.4405 72.6065 94.3406 87.7065 114.941C87.9065 115.141 88.1065 115.341 88.4065 115.641Z" fill="#D7D7D7"/>
<path d="M188.107 373.54C167.507 358.44 144.607 381.341 159.707 401.941C159.907 402.241 160.207 402.441 160.407 402.641C181.007 417.741 203.907 394.841 188.807 374.241C188.607 374.041 188.407 373.74 188.107 373.54Z" fill="#D7D7D7"/>
<path d="M116.006 373.541C109.306 368.641 102.406 367.741 96.6057 369.441C88.0057 370.241 89.7057 373.241 70.4057 373.341C51.7057 373.441 53.4057 362.841 36.3057 359.741C33.1057 358.941 30.0057 358.741 27.0057 358.941C26.7057 358.941 26.3057 358.941 26.0057 358.941C25.2057 358.941 24.5057 359.141 23.9057 359.341C4.00566 362.941 -8.89435 386.741 7.40565 408.741C7.70565 409.141 8.00566 409.541 8.40566 409.741C13.5057 413.541 18.8057 415.741 23.9057 416.641C24.5057 416.941 25.2057 417.041 26.1057 417.041C26.5057 417.041 26.8057 417.041 27.1057 417.041C30.2057 417.241 33.2057 416.941 36.1057 416.341C52.2057 413.541 52.1057 404.241 70.7057 404.141C92.5057 403.941 87.5057 407.841 100.906 407.741C101.806 407.741 102.606 407.641 103.306 407.441C117.906 406.741 128.306 389.841 116.906 374.241C116.606 374.041 116.306 373.741 116.006 373.541Z" fill="#D7D7D7"/>
<path d="M239.005 37.4409C249.305 44.9409 260.705 33.5409 253.205 23.2409C253.105 23.0409 252.905 22.9408 252.805 22.8408C242.505 15.3408 231.105 26.7407 238.605 37.0407C238.705 37.1407 238.905 37.2409 239.005 37.4409Z" fill="#D7D7D7"/>
<path d="M396.106 93.7412C385.806 86.2412 374.406 97.6411 381.906 107.941C382.006 108.141 382.206 108.241 382.306 108.341C392.606 115.841 404.006 104.441 396.506 94.1411C396.406 94.0411 396.306 93.8412 396.106 93.7412Z" fill="#D7D7D7"/>
<path d="M310.707 180.241C321.007 187.741 332.407 176.34 324.907 166.04C324.807 165.84 324.607 165.741 324.507 165.641C314.207 158.141 302.807 169.541 310.307 179.841C310.407 179.941 310.507 180.041 310.707 180.241Z" fill="#D7D7D7"/>
<path d="M396.106 165.641C385.806 158.141 374.406 169.541 381.906 179.841C382.006 180.041 382.206 180.141 382.306 180.241C392.606 187.741 404.006 176.34 396.506 166.04C396.406 165.84 396.306 165.741 396.106 165.641Z" fill="#D7D7D7"/>
<path d="M253.205 166.04C253.105 165.84 252.905 165.741 252.805 165.641C242.505 158.141 231.105 169.541 238.605 179.841C238.705 180.041 238.905 180.141 239.005 180.241C249.305 187.741 260.705 176.24 253.205 166.04Z" fill="#D7D7D7"/>
<path d="M396.106 237.441C385.806 229.941 374.406 241.341 381.906 251.641C382.006 251.841 382.206 251.941 382.306 252.041C392.606 259.541 404.006 248.141 396.506 237.841C396.406 237.741 396.306 237.541 396.106 237.441Z" fill="#D7D7D7"/>
<path d="M246.106 235.141C246.006 235.141 246.006 235.041 245.006 235.041C238.006 235.041 232.306 243.641 238.206 251.641C238.306 251.841 238.206 251.941 238.406 252.041C240.706 253.741 243.006 254.441 245.006 254.441C260.006 254.441 260.706 248.941 281.406 248.841C301.906 248.741 303.206 255.041 317.406 255.041C317.506 255.041 317.006 254.441 317.006 254.441C325.006 254.441 330.406 245.841 324.606 237.841C324.506 237.641 324.306 237.541 324.106 237.441C321.706 235.741 319.006 235.041 317.006 235.041C304.006 235.041 302.106 241.641 281.506 241.641C260.906 241.741 260.906 235.141 246.106 235.141Z" fill="#D7D7D7"/>
<path d="M396.106 380.841C385.806 373.341 374.406 384.741 381.906 395.041C382.006 395.241 382.206 395.341 382.306 395.441C392.606 402.941 404.006 391.541 396.506 381.241C396.406 381.041 396.306 380.941 396.106 380.841Z" fill="#D7D7D7"/>
<path d="M252.805 380.841C242.505 373.341 231.105 384.741 238.605 395.041C238.705 395.241 238.905 395.341 239.005 395.441C249.305 402.941 260.705 391.541 253.205 381.241C253.105 381.041 253.005 380.941 252.805 380.841Z" fill="#D7D7D7"/>
<path d="M102.107 225.341C87.0066 225.441 76.0066 242.741 87.7066 258.541C87.9066 258.841 88.2066 259.041 88.4066 259.241C93.0066 262.641 97.8066 264.141 102.207 264.141C102.307 264.141 102.407 264.141 102.407 264.141C120.507 264.141 118.207 254.441 138.007 254.441C157.707 254.441 161.907 263.841 173.707 264.141C173.807 264.141 173.907 264.141 174.007 264.141C174.107 264.141 174.207 264.141 174.307 264.141C174.407 264.141 174.507 264.141 174.607 264.141C189.607 263.941 200.507 246.741 188.807 230.941C188.607 230.641 188.307 230.441 188.107 230.241C183.507 226.841 178.807 225.441 174.407 225.341C174.307 225.341 174.307 225.341 174.207 225.341C161.907 225.341 157.907 234.941 137.907 235.041C117.907 235.141 121.807 225.341 102.307 225.341C102.307 225.341 102.207 225.341 102.107 225.341Z" fill="#D7D7D7"/>
<path d="M8.40487 194.741C13.5049 198.541 18.8049 200.741 23.9049 201.641C24.5049 201.941 25.2049 202.041 26.1049 202.041C26.5049 202.041 26.8049 202.041 27.1049 202.041C30.2049 202.241 33.2049 201.941 36.1049 201.341C52.2049 198.541 52.1049 189.241 70.7049 189.141C91.8049 188.941 87.8049 192.541 99.8049 192.741C116.205 194.841 129.305 176.441 116.905 159.641C116.705 159.341 116.405 159.141 116.205 158.941C110.405 154.641 104.405 153.441 99.1049 154.341C87.8049 154.741 91.4049 158.241 70.6049 158.441C51.9049 158.541 53.7049 147.941 36.5049 144.841C33.3049 144.041 30.2049 143.841 27.2049 144.041C26.9049 144.041 26.5049 144.041 26.2049 144.041C25.4049 144.041 24.7049 144.241 24.1049 144.441C4.20487 148.041 -8.69512 171.841 7.60488 193.841C7.60488 194.041 8.00487 194.441 8.40487 194.741Z" fill="#D7D7D7"/>
<path d="M8.40526 50.9409C39.3053 73.6409 73.7053 39.2408 51.0053 8.34079C50.7053 7.94079 50.4053 7.54079 50.0053 7.34079C19.1053 -15.3592 -15.2947 19.0409 7.40525 49.9409C7.60525 50.3409 8.00526 50.6409 8.40526 50.9409Z" fill="#D7D7D7"/>
<path d="M8.40526 122.841C39.3053 145.541 73.7053 111.141 51.0053 80.2412C50.7053 79.8412 50.4053 79.4412 50.0053 79.2412C19.1053 56.5412 -15.2947 90.9411 7.40525 121.841C7.60525 122.241 8.00526 122.541 8.40526 122.841Z" fill="#D7D7D7"/>
<path d="M8.40526 266.541C39.3053 289.241 73.7053 254.841 51.0053 223.941C50.7053 223.541 50.4053 223.141 50.0053 222.941C19.1053 200.241 -15.2947 234.641 7.40525 265.541C7.60525 265.941 8.00526 266.341 8.40526 266.541Z" fill="#D7D7D7"/>
<path d="M8.40526 338.641C39.3053 361.341 73.7053 326.941 51.0053 296.041C50.7053 295.641 50.4053 295.241 50.0053 295.041C19.1053 272.341 -15.2947 306.741 7.40525 337.641C7.60525 338.041 8.00526 338.341 8.40526 338.641Z" fill="#D7D7D7"/>
</svg>
