<svg width="401" height="419" viewBox="0 0 401 419" fill="none" xmlns="http://www.w3.org/2000/svg">
<path d="M283.506 116.341C304.106 131.441 327.006 108.54 311.906 87.9404C311.706 87.6404 311.406 87.4407 311.206 87.2407C290.606 72.1407 267.706 95.0406 282.806 115.641C283.006 115.941 283.306 116.141 283.506 116.341Z" stroke="#4EC1E0" stroke-miterlimit="10"/>
<path d="M239.507 230.44C218.907 215.34 196.007 238.241 211.107 258.841C211.307 259.141 211.607 259.34 211.807 259.54C232.407 274.64 255.307 251.741 240.207 231.141C240.007 230.841 239.807 230.64 239.507 230.44Z" stroke="#4EC1E0" stroke-miterlimit="10"/>
<path d="M75.5054 37.4404C85.8054 44.9404 97.2055 33.5407 89.7055 23.2407C89.6055 23.0407 89.4054 22.9408 89.3054 22.8408C79.0054 15.3408 67.6054 26.7405 75.1054 37.0405C75.2054 37.2405 75.3054 37.3404 75.5054 37.4404Z" stroke="#4EC1E0" stroke-miterlimit="10"/>
<path d="M75.5054 108.741C85.8054 116.241 97.2055 104.84 89.7055 94.5405C89.6055 94.3405 89.4054 94.2406 89.3054 94.1406C79.0054 86.6406 67.6054 98.0408 75.1054 108.341C75.2054 108.441 75.3054 108.641 75.5054 108.741Z" stroke="#4EC1E0" stroke-miterlimit="10"/>
<path d="M89.2058 309.94C78.9058 302.44 67.5058 313.841 75.0058 324.141C75.1058 324.341 75.3058 324.44 75.4058 324.54C85.7058 332.04 97.1058 320.641 89.6058 310.341C89.6058 310.241 89.4058 310.04 89.2058 309.94Z" stroke="#4EC1E0" stroke-miterlimit="10"/>
<path d="M89.2058 381.841C78.9058 374.341 67.5058 385.741 75.0058 396.041C75.1058 396.241 75.3058 396.34 75.4058 396.44C85.7058 403.94 97.1058 392.541 89.6058 382.241C89.6058 382.041 89.4058 381.941 89.2058 381.841Z" stroke="#4EC1E0" stroke-miterlimit="10"/>
<path d="M19.2058 381.841C8.90583 374.341 -2.49419 385.741 5.00581 396.041C5.10581 396.241 5.30584 396.34 5.40584 396.44C15.7058 403.94 27.1058 392.541 19.6058 382.241C19.5058 382.041 19.4058 381.941 19.2058 381.841Z" stroke="#4EC1E0" stroke-miterlimit="10"/>
<path d="M147.207 109.141C148.307 109.941 149.507 110.541 150.607 110.941C151.107 111.541 152.207 111.941 154.007 111.941C166.307 111.941 161.107 109.741 181.007 109.641C201.007 109.541 206.207 121.241 225.607 121.241C226.707 121.241 227.607 121.041 228.307 120.641C242.007 118.741 251.207 102.541 240.207 87.5407C240.007 87.2407 239.707 87.041 239.507 86.841C232.907 81.941 226.007 81.0409 220.207 82.7409C205.907 84.7409 198.507 94.0408 180.907 94.1408C162.807 94.1408 165.507 92.8407 157.007 92.5407C148.007 89.8407 140.107 99.7408 146.707 108.641C146.807 108.841 147.007 109.041 147.207 109.141Z" stroke="#4EC1E0" stroke-miterlimit="10"/>
<path d="M311.206 373.641C290.606 358.541 267.706 381.441 282.806 402.041C283.006 402.341 283.306 402.541 283.506 402.741C304.106 417.841 327.006 394.941 311.906 374.341C311.706 374.041 311.506 373.841 311.206 373.641Z" stroke="#4EC1E0" stroke-miterlimit="10"/>
<path d="M239.505 302.641C235.805 299.941 232.006 298.44 228.406 297.94C227.706 297.54 226.805 297.241 225.605 297.241C207.505 297.241 200.606 308.94 180.806 308.94C160.806 308.94 166.206 307.341 153.906 307.341C153.106 307.341 152.506 307.441 151.906 307.541C145.406 308.841 141.305 316.64 146.605 323.94C146.705 324.14 146.905 324.241 147.005 324.341C149.605 326.241 152.305 326.941 154.705 326.741C165.905 326.641 161.406 324.54 180.906 324.44C198.806 324.34 204.905 333.741 220.005 335.741C237.805 340.741 253.305 321.141 240.105 303.241C240.005 303.141 239.805 302.841 239.505 302.641Z" stroke="#4EC1E0" stroke-miterlimit="10"/>
<path d="M239.507 373.641C218.907 358.541 196.007 381.441 211.107 402.041C211.307 402.341 211.607 402.541 211.807 402.741C232.407 417.841 255.307 394.941 240.207 374.341C240.007 374.041 239.807 373.841 239.507 373.641Z" stroke="#4EC1E0" stroke-miterlimit="10"/>
<path d="M311.507 302.641C290.907 287.541 268.007 310.441 283.107 331.041C283.307 331.341 283.607 331.541 283.807 331.741C304.407 346.841 327.307 323.941 312.207 303.341C312.107 303.141 311.807 302.841 311.507 302.641Z" stroke="#4EC1E0" stroke-miterlimit="10"/>
<path d="M211.907 44.7407C232.507 59.8407 255.407 36.9408 240.307 16.3408C240.107 16.0408 239.807 15.8406 239.607 15.6406C219.007 0.5406 196.107 23.4405 211.207 44.0405C211.307 44.2405 211.607 44.5407 211.907 44.7407Z" stroke="#4EC1E0" stroke-miterlimit="10"/>
<path d="M283.906 44.7409C290.606 49.6409 297.506 50.541 303.306 48.841C311.906 48.041 310.206 45.0406 329.506 44.9406C348.206 44.8406 346.506 55.4407 363.606 58.5407C366.806 59.3407 369.906 59.541 372.906 59.341C373.206 59.341 373.606 59.341 373.906 59.341C374.706 59.341 375.406 59.1406 376.006 58.9406C395.906 55.3406 408.806 31.5407 392.506 9.54074C392.206 9.14074 391.906 8.74074 391.506 8.54074C386.406 4.74074 381.106 2.54084 376.006 1.64084C375.406 1.34084 374.706 1.24094 373.806 1.24094C373.406 1.24094 373.106 1.24094 372.806 1.24094C369.706 1.04094 366.706 1.34064 363.806 1.94064C347.706 4.74064 347.806 14.0408 329.206 14.1408C307.406 14.3408 312.406 10.4407 299.006 10.5407C298.106 10.5407 297.306 10.641 296.606 10.841C282.006 11.541 271.606 28.4407 283.006 44.0407C283.406 44.2407 283.606 44.5409 283.906 44.7409Z" stroke="#4EC1E0" stroke-miterlimit="10"/>
<path d="M160.907 380.841C150.607 373.341 139.207 384.741 146.707 395.041C146.807 395.241 147.007 395.34 147.107 395.44C157.407 402.94 168.807 391.541 161.307 381.241C161.207 381.141 161.107 380.941 160.907 380.841Z" stroke="#4EC1E0" stroke-miterlimit="10"/>
<path d="M3.80618 324.54C14.1062 332.04 25.5062 320.641 18.0062 310.341C17.9062 310.141 17.7062 310.04 17.6062 309.94C7.30616 302.44 -4.09379 313.841 3.40621 324.141C3.50621 324.241 3.70618 324.44 3.80618 324.54Z" stroke="#4EC1E0" stroke-miterlimit="10"/>
<path d="M89.2058 238.04C78.9058 230.54 67.5058 241.941 75.0058 252.241C75.1058 252.441 75.3058 252.541 75.4058 252.641C85.7058 260.141 97.1058 248.74 89.6058 238.44C89.6058 238.34 89.4058 238.14 89.2058 238.04Z" stroke="#4EC1E0" stroke-miterlimit="10"/>
<path d="M3.80618 252.641C14.1062 260.141 25.5062 248.74 18.0062 238.44C17.9062 238.24 17.7062 238.14 17.6062 238.04C7.30616 230.54 -4.09379 241.941 3.40621 252.241C3.50621 252.441 3.70618 252.541 3.80618 252.641Z" stroke="#4EC1E0" stroke-miterlimit="10"/>
<path d="M146.707 252.241C146.807 252.441 147.007 252.541 147.107 252.641C157.407 260.141 168.807 248.74 161.307 238.44C161.207 238.24 161.007 238.14 160.907 238.04C150.607 230.54 139.207 241.941 146.707 252.241Z" stroke="#4EC1E0" stroke-miterlimit="10"/>
<path d="M3.80618 180.841C14.1062 188.341 25.5062 176.941 18.0062 166.641C17.9062 166.441 17.7062 166.341 17.6062 166.241C7.30616 158.741 -4.09379 170.14 3.40621 180.44C3.50621 180.54 3.70618 180.641 3.80618 180.841Z" stroke="#4EC1E0" stroke-miterlimit="10"/>
<path d="M153.906 183.641C154.006 183.641 153.506 183.241 154.506 183.241C161.506 183.241 167.406 174.641 161.606 166.641C161.506 166.441 161.506 166.341 161.306 166.241C159.006 164.541 156.506 163.841 154.506 163.841C139.506 163.841 139.006 169.641 118.406 169.641C97.9061 169.741 96.8061 163.641 82.6061 163.641C82.5061 163.641 82.6061 163.741 82.6061 163.741C74.6061 163.741 69.4061 172.341 75.2061 180.341C75.3061 180.541 75.4061 180.641 75.6061 180.741C78.0061 182.441 80.6061 183.141 82.6061 183.141C95.6061 183.141 97.7062 176.841 118.306 176.741C138.806 176.741 139.106 183.641 153.906 183.641Z" stroke="#4EC1E0" stroke-miterlimit="10"/>
<path d="M3.80618 37.4404C14.1062 44.9404 25.5062 33.5407 18.0062 23.2407C17.9062 23.0407 17.7062 22.9408 17.6062 22.8408C7.30616 15.3408 -4.09379 26.7405 3.40621 37.0405C3.50621 37.2405 3.70618 37.3404 3.80618 37.4404Z" stroke="#4EC1E0" stroke-miterlimit="10"/>
<path d="M147.207 37.4404C157.507 44.9404 168.907 33.5407 161.407 23.2407C161.307 23.0407 161.107 22.9408 161.007 22.8408C150.707 15.3408 139.307 26.7405 146.807 37.0405C146.807 37.2405 147.007 37.3404 147.207 37.4404Z" stroke="#4EC1E0" stroke-miterlimit="10"/>
<path d="M297.807 192.94C312.907 192.84 323.907 175.541 312.207 159.741C312.007 159.441 311.707 159.241 311.507 159.041C306.907 155.641 302.107 154.141 297.707 154.141C297.607 154.141 297.507 154.141 297.507 154.141C279.407 154.141 281.707 163.841 261.907 163.841C242.207 163.841 238.007 154.441 226.207 154.141C226.107 154.141 226.007 154.141 225.907 154.141C225.807 154.141 225.707 154.141 225.607 154.141C225.507 154.141 225.407 154.141 225.307 154.141C210.307 154.341 199.407 171.541 211.107 187.341C211.307 187.641 211.607 187.841 211.807 188.041C216.407 191.441 221.107 192.84 225.507 192.94C225.607 192.94 225.607 192.94 225.707 192.94C238.007 192.94 242.007 183.341 262.007 183.241C282.007 183.141 278.107 192.94 297.607 192.94C297.607 192.94 297.707 192.94 297.807 192.94Z" stroke="#4EC1E0" stroke-miterlimit="10"/>
<path d="M391.606 223.541C386.506 219.741 381.206 217.541 376.106 216.641C375.506 216.341 374.806 216.241 373.906 216.241C373.506 216.241 373.206 216.241 372.906 216.241C369.806 216.041 366.806 216.341 363.906 216.941C347.806 219.741 347.906 229.041 329.306 229.141C308.206 229.341 312.206 225.741 300.206 225.541C283.806 223.441 270.706 241.841 283.106 258.641C283.306 258.941 283.606 259.141 283.806 259.341C289.606 263.641 295.606 264.841 300.906 263.941C312.206 263.541 308.606 260.041 329.406 259.841C348.106 259.741 346.306 270.341 363.506 273.441C366.706 274.241 369.806 274.441 372.806 274.241C373.106 274.241 373.506 274.241 373.806 274.241C374.606 274.241 375.306 274.041 375.906 273.841C395.806 270.241 408.706 246.441 392.406 224.441C392.306 224.241 392.006 223.841 391.606 223.541Z" stroke="#4EC1E0" stroke-miterlimit="10"/>
<path d="M391.607 367.341C360.707 344.641 326.307 379.04 349.007 409.94C349.307 410.34 349.607 410.74 350.007 410.94C380.907 433.64 415.307 399.241 392.607 368.341C392.307 367.941 392.007 367.541 391.607 367.341Z" stroke="#4EC1E0" stroke-miterlimit="10"/>
<path d="M391.607 295.44C360.707 272.74 326.307 307.14 349.007 338.04C349.307 338.44 349.607 338.84 350.007 339.04C380.907 361.74 415.307 327.34 392.607 296.44C392.307 296.04 392.007 295.74 391.607 295.44Z" stroke="#4EC1E0" stroke-miterlimit="10"/>
<path d="M391.607 151.641C360.707 128.941 326.307 163.341 349.007 194.241C349.307 194.641 349.607 195.041 350.007 195.241C380.907 217.941 415.307 183.541 392.607 152.641C392.307 152.341 392.007 151.941 391.607 151.641Z" stroke="#4EC1E0" stroke-miterlimit="10"/>
<path d="M391.607 79.6406C360.707 56.9406 326.307 91.3407 349.007 122.241C349.307 122.641 349.607 123.041 350.007 123.241C380.907 145.941 415.307 111.541 392.607 80.6406C392.307 80.2406 392.007 79.9406 391.607 79.6406Z" stroke="#4EC1E0" stroke-miterlimit="10"/>
</svg>
