<svg width="44" height="45" viewBox="0 0 44 45" fill="none" xmlns="http://www.w3.org/2000/svg">
<path d="M21.7994 31.6995C26.9909 31.6995 31.1994 27.4909 31.1994 22.2994C31.1994 17.108 26.9909 12.8994 21.7994 12.8994C16.6079 12.8994 12.3994 17.108 12.3994 22.2994C12.3994 27.4909 16.6079 31.6995 21.7994 31.6995Z" stroke="white" stroke-miterlimit="10" stroke-linecap="round" stroke-linejoin="round"/>
<path d="M21.7996 23.4995C22.4624 23.4995 22.9996 22.9623 22.9996 22.2996C22.9996 21.6368 22.4624 21.0996 21.7996 21.0996C21.1369 21.0996 20.5996 21.6368 20.5996 22.2996C20.5996 22.9623 21.1369 23.4995 21.7996 23.4995Z" stroke="white" stroke-miterlimit="10" stroke-linecap="round" stroke-linejoin="round"/>
<path d="M22.6992 21.3998L26.7992 17.2998" stroke="white" stroke-miterlimit="10" stroke-linecap="round" stroke-linejoin="round"/>
<path d="M14 22.3994H15.7" stroke="white" stroke-miterlimit="10" stroke-linecap="round" stroke-linejoin="round"/>
<path d="M14.6992 25.1996L16.1992 24.5996" stroke="white" stroke-miterlimit="10" stroke-linecap="round" stroke-linejoin="round"/>
<path d="M29 25.1996L27.5 24.5996" stroke="white" stroke-miterlimit="10" stroke-linecap="round" stroke-linejoin="round"/>
<path d="M29.6 22.2998H28" stroke="white" stroke-miterlimit="10" stroke-linecap="round" stroke-linejoin="round"/>
<path d="M29 19.2998L27.5 19.8998" stroke="white" stroke-miterlimit="10" stroke-linecap="round" stroke-linejoin="round"/>
<path d="M24.7992 15.0996L24.1992 16.5996" stroke="white" stroke-miterlimit="10" stroke-linecap="round" stroke-linejoin="round"/>
<path d="M21.7998 14.5996V16.2996" stroke="white" stroke-miterlimit="10" stroke-linecap="round" stroke-linejoin="round"/>
<path d="M18.8994 15.0996L19.4994 16.5996" stroke="white" stroke-miterlimit="10" stroke-linecap="round" stroke-linejoin="round"/>
<path d="M16.3994 16.7998L17.4994 17.8998" stroke="white" stroke-miterlimit="10" stroke-linecap="round" stroke-linejoin="round"/>
<path d="M14.6992 19.2998L16.1992 19.8998" stroke="white" stroke-miterlimit="10" stroke-linecap="round" stroke-linejoin="round"/>
<path d="M25.5992 25.8994H18.1992V28.3994H25.5992V25.8994Z" stroke="white" stroke-miterlimit="10" stroke-linecap="round" stroke-linejoin="round"/>
<path d="M21.7998 33.2998C27.8749 33.2998 32.7998 28.3749 32.7998 22.2998C32.7998 16.2247 27.8749 11.2998 21.7998 11.2998C15.7247 11.2998 10.7998 16.2247 10.7998 22.2998C10.7998 28.3749 15.7247 33.2998 21.7998 33.2998Z" stroke="white" stroke-miterlimit="10" stroke-linecap="round" stroke-linejoin="round"/>
<path d="M21.7996 36.9995C13.6996 36.9995 7.09961 30.3996 7.09961 22.2996C7.09961 14.1996 13.6996 7.59961 21.7996 7.59961" stroke="white" stroke-miterlimit="10" stroke-linecap="round" stroke-linejoin="round"/>
<path d="M35.3996 28C34.2996 30.6 32.3996 32.8 30.0996 34.4" stroke="white" stroke-miterlimit="10" stroke-linecap="round" stroke-linejoin="round"/>
<path d="M36.5992 22.2998C36.5992 23.4998 36.4992 24.6998 36.1992 25.7998" stroke="white" stroke-miterlimit="10" stroke-linecap="round" stroke-linejoin="round"/>
<path d="M21.8 43.6001C33.5637 43.6001 43.1 34.0637 43.1 22.3C43.1 10.5364 33.5637 1 21.8 1C10.0363 1 0.5 10.5364 0.5 22.3C0.5 34.0637 10.0363 43.6001 21.8 43.6001Z" stroke="white" stroke-miterlimit="10"/>
</svg>
